<?xml version="1.0" encoding="UTF-8" standalone="no"?><!DOCTYPE svg PUBLIC "-//W3C//DTD SVG 1.1//EN" "http://www.w3.org/Graphics/SVG/1.1/DTD/svg11.dtd"><svg width="100%" height="100%" viewBox="0 0 3561 2121" version="1.1" xmlns="http://www.w3.org/2000/svg" xmlns:xlink="http://www.w3.org/1999/xlink" xml:space="preserve" xmlns:serif="http://www.serif.com/" style="fill-rule:evenodd;clip-rule:evenodd;stroke-linejoin:round;stroke-miterlimit:2;"><g><clipPath id="_clip1"><rect x="1501.519" y="1276.009" width="391.808" height="430.935"/></clipPath><g clip-path="url(#_clip1)"><g><g><g><clipPath id="_clip2"><rect x="1501.519" y="1276.009" width="391.808" height="430.935"/></clipPath><g clip-path="url(#_clip2)"><rect x="1501.519" y="1276.009" width="391.808" height="431.597" style="fill:#fa031e;fill-rule:nonzero;"/></g></g></g></g></g></g><g><g><g><g><g><path d="M435.284,1222.332c42.708,-64.518 94.065,-96.788 154.08,-96.788c92.676,0 161.74,39.54 207.205,118.62c10.004,-13.628 22.049,-27.93 36.111,-42.925c14.084,-15.017 36.589,-31.38 67.491,-49.089c30.903,-17.73 62.717,-26.606 95.443,-26.606c72.711,0 133.605,27.951 182.682,83.854c49.067,55.903 73.611,148.383 73.611,277.431l0,238.585c0,20.898 -0.684,36.578 -2.04,47.049c-1.367,10.449 -5.675,22.483 -12.934,36.111c-11.838,24.544 -46.832,36.806 -104.991,36.806c-57.27,0 -92.253,-12.728 -104.948,-38.194c-6.369,-13.628 -10.243,-25.662 -11.632,-36.111c-1.367,-10.438 -2.04,-26.128 -2.04,-47.049l0,-238.585c0,-79.047 -28.168,-118.576 -84.505,-118.576c-31.803,0 -53.385,10.46 -64.757,31.38c-11.372,20.898 -17.057,50.423 -17.057,88.585l0,238.585c0,21.821 -0.684,37.739 -2.04,47.743c-1.367,9.983 -5.675,21.788 -12.934,35.417c-12.739,24.544 -48.177,36.806 -106.337,36.806c-57.27,0 -92.263,-12.728 -104.991,-38.194c-6.369,-13.628 -10.232,-25.662 -11.589,-36.111c-1.367,-10.438 -2.04,-26.128 -2.04,-47.049l0,-238.585c0,-79.047 -28.19,-118.576 -84.549,-118.576c-54.514,0 -81.771,39.529 -81.771,118.576l0,241.319c0,20.92 -0.684,36.61 -2.04,47.049c-1.367,10.449 -5.686,22.483 -12.977,36.111c-13.628,23.644 -49.078,35.46 -106.337,35.46c-57.27,0 -92.253,-12.261 -104.948,-36.806c-6.369,-13.628 -10.243,-25.434 -11.632,-35.417c-1.367,-10.004 -2.04,-25.922 -2.04,-47.743l0,-479.905c0,-20.888 0.673,-36.556 2.04,-47.005c1.389,-10.471 5.707,-22.059 12.977,-34.766c13.628,-24.566 45.888,-36.849 96.788,-36.849c50.89,0 84.071,8.192 99.523,24.566c15.451,16.352 23.177,39.974 23.177,70.877Z" style="fill:#6b00f6;fill-rule:nonzero;"/></g></g></g><g><g><g><path d="M1827.24,1203.235c5.436,-50.89 41.33,-76.345 107.682,-76.345c35.438,0 61.806,2.734 79.08,8.203c17.274,5.447 29.308,14.996 36.111,28.646c6.825,13.628 10.916,25.673 12.283,36.111c1.389,10.449 2.083,26.128 2.083,47.049l0,477.127c0,20.92 -0.694,36.61 -2.083,47.049c-1.367,10.449 -5.23,22.483 -11.589,36.111c-12.706,23.644 -43.826,35.46 -93.359,35.46c-49.544,0 -82.715,-6.131 -99.523,-18.403c-16.819,-12.261 -26.595,-30.219 -29.34,-53.863c-33.626,48.177 -89.746,72.266 -168.359,72.266c-78.624,0 -151.562,-35.894 -218.837,-107.682c-67.253,-71.81 -100.868,-155.208 -100.868,-250.174c0,-94.987 33.854,-178.147 101.562,-249.479c67.73,-71.354 142.036,-107.031 222.917,-107.031c30.903,0 59.071,5.458 84.505,16.363c25.456,10.916 43.186,21.137 53.168,30.686c10.004,9.527 18.197,18.826 24.566,27.908Zm-248.134,283.594c0,29.98 11.816,57.02 35.46,81.12c23.633,24.078 52.268,36.111 85.894,36.111c33.615,0 61.556,-12.261 83.811,-36.806c22.276,-24.533 33.42,-51.573 33.42,-81.12c0,-29.536 -10.677,-57.031 -32.031,-82.465c-21.354,-25.456 -49.989,-38.194 -85.894,-38.194c-35.916,0 -65.007,12.739 -87.283,38.194c-22.255,25.434 -33.377,53.158 -33.377,83.16Z" style="fill:#6b00f6;fill-rule:nonzero;"/></g></g></g><g><g><g><path d="M2661.567,1135.092c17.274,5.447 31.597,14.757 42.969,27.951c11.372,13.173 17.057,34.31 17.057,63.411c0,29.08 -8.637,60.894 -25.911,95.443c-17.274,34.527 -42.274,51.78 -75,51.78c-16.352,0 -32.031,-3.624 -47.049,-10.894c-14.996,-7.292 -34.755,-10.938 -59.288,-10.938c-24.544,0 -47.483,8.637 -68.837,25.911c-21.354,17.274 -32.031,38.184 -32.031,62.717l0,286.285c0,20.92 -0.684,36.61 -2.04,47.049c-1.367,10.449 -5.686,22.483 -12.977,36.111c-13.628,23.644 -49.078,35.46 -106.337,35.46c-43.641,0 -74.989,-7.726 -94.054,-23.177c-14.562,-12.728 -22.743,-32.27 -24.566,-58.637l0,-518.056c0,-20.888 0.673,-36.556 2.04,-47.005c1.389,-10.471 5.263,-22.059 11.632,-34.766c12.695,-24.566 48.145,-36.849 106.337,-36.849c54.514,0 88.585,10.46 102.214,31.38c10.004,14.529 15.017,29.514 15.017,44.965c4.536,-6.337 11.122,-14.041 19.748,-23.134c8.648,-9.115 27.051,-21.398 55.208,-36.849c28.179,-15.451 52.951,-23.177 74.306,-23.177c21.376,0 39.334,1.15 53.863,3.429c14.551,2.257 30.447,6.12 47.7,11.589Z" style="fill:#6b00f6;fill-rule:nonzero;"/></g></g></g></g></g><g><g><clipPath id="_clip3"><path d="M81.304,-0.347l3399.121,0c21.549,0 42.198,8.55 57.433,23.785c15.234,15.234 23.785,35.883 23.785,57.433l0,920.074c0,21.539 -8.55,42.198 -23.785,57.433c-15.234,15.224 -35.883,23.785 -57.433,23.785l-3399.121,0c-21.539,0 -42.198,-8.561 -57.422,-23.785c-15.234,-15.234 -23.796,-35.894 -23.796,-57.433l0,-920.074c0,-21.549 8.561,-42.198 23.796,-57.433c15.224,-15.234 35.883,-23.785 57.422,-23.785Z"/></clipPath><g clip-path="url(#_clip3)"><g><g><g><g><clipPath id="_clip4"><path d="M81.304,-0.347l3399.121,0c21.549,0 42.198,8.55 57.433,23.785c15.234,15.234 23.785,35.883 23.785,57.433l0,920.074c0,21.539 -8.55,42.198 -23.785,57.433c-15.234,15.224 -35.883,23.785 -57.433,23.785l-3399.121,0c-21.539,0 -42.198,-8.561 -57.422,-23.785c-15.234,-15.234 -23.796,-35.894 -23.796,-57.433l-0,-920.074c0,-21.549 8.561,-42.198 23.796,-57.433c15.224,-15.234 35.883,-23.785 57.422,-23.785Z"/></clipPath><g clip-path="url(#_clip4)"><rect x="0.087" y="-0.347" width="3560.449" height="1082.509" style="fill:#6b00f6;fill-rule:nonzero;"/></g></g></g></g></g></g></g></g><g><g><g><g><rect x="2820.464" y="921.311" width="260.449" height="289.963" style="fill:#6b00f6;fill-rule:nonzero;"/></g></g></g></g><g><g><g><g><clipPath id="_clip5"><rect x="1474.023" y="366.352" width="391.808" height="430.935"/></clipPath><g clip-path="url(#_clip5)"><rect x="1474.023" y="366.352" width="391.808" height="431.608" style="fill:#f7a102;fill-rule:nonzero;"/></g></g></g></g></g><g><g><g><g><g><path d="M230.944,829.476c-15.538,-9.809 -23.307,-25.347 -23.307,-46.615c0,-21.267 15.538,-53.581 46.615,-96.962c8.995,-13.889 23.524,-20.833 43.576,-20.833c20.052,0 47.244,10.026 81.597,30.078c34.375,20.03 65.462,30.035 93.273,30.035c49.881,0 74.826,-9.82 74.826,-29.47c0,-15.538 -27.409,-26.975 -82.205,-34.332c-51.541,-7.378 -102.669,-26.606 -153.385,-57.682c-23.73,-14.724 -43.359,-37.826 -58.898,-69.314c-15.538,-31.51 -23.307,-68.934 -23.307,-112.283c0,-129.275 88.759,-193.924 266.276,-193.924c58.073,0 117.795,13.921 179.167,41.753c28.613,13.086 42.925,29.449 42.925,49.089c0,19.618 -9.006,43.75 -26.997,72.396c-18.001,28.624 -36.404,42.925 -55.208,42.925c-9.809,0 -28.016,-6.131 -54.601,-18.403c-26.595,-12.261 -55.425,-18.403 -86.502,-18.403c-48.264,0 -72.396,9.006 -72.396,26.997c0,24.544 27.799,40.495 83.42,47.873c53.993,5.729 106.348,21.267 157.075,46.615c23.72,11.458 43.555,31.315 59.505,59.549c15.972,28.212 23.958,63.585 23.958,106.12c0,42.535 -7.986,78.733 -23.958,108.594c-15.951,29.861 -38.238,52.159 -66.884,66.884c-52.344,25.347 -118.001,38.021 -196.962,38.021c-78.939,0 -154.807,-22.895 -227.604,-68.707Z" style="fill:#fff;fill-rule:nonzero;"/></g></g></g><g><g><g><path d="M1201.589,457.644l-79.731,-4.905l0,169.358c0,22.081 3.472,38.043 10.417,47.873c6.944,9.809 20.02,14.714 39.236,14.714c19.238,0 33.963,0.629 44.184,1.866c10.243,1.215 21.094,5.1 32.552,11.632c18.804,10.655 28.212,38.053 28.212,82.205c0,51.541 -11.458,83.03 -34.375,94.488c-12.272,5.729 -23.112,9.223 -32.509,10.46c-9.408,1.215 -23.112,1.823 -41.102,1.823c-85.069,0 -149.696,-19.227 -193.88,-57.682c-44.184,-38.455 -66.276,-103.483 -66.276,-195.095l0,-181.641c-15.538,2.463 -32.313,3.689 -50.304,3.689c-18.001,0 -32.932,-6.944 -44.792,-20.833c-11.871,-13.911 -17.795,-37.641 -17.795,-71.181c0,-33.529 2.04,-57.867 6.12,-73.003c4.102,-15.158 9.831,-26.009 17.188,-32.552c13.108,-10.612 29.47,-15.929 49.089,-15.929l40.495,4.905l0,-126.389c0,-18.837 0.608,-32.747 1.823,-41.753c1.237,-8.995 5.132,-18.804 11.675,-29.427c10.645,-20.454 42.144,-30.686 94.488,-30.686c55.642,0 88.77,15.137 99.392,45.399c4.102,13.086 6.163,33.941 6.163,62.587l0,120.269c35.992,-3.266 63.194,-4.905 81.597,-4.905c18.403,0 32.303,0.608 41.71,1.823c9.397,1.215 20.237,5.111 32.509,11.675c21.267,10.623 31.901,42.122 31.901,94.488c0,51.541 -11.046,83.03 -33.116,94.488c-12.272,5.729 -23.112,9.201 -32.509,10.417c-9.408,1.215 -23.524,1.823 -42.361,1.823Z" style="fill:#fff;fill-rule:nonzero;"/></g></g></g><g><g><g><path d="M1358.694,564.415c0,-98.177 34.353,-179.167 103.082,-242.969c68.717,-63.802 147.244,-95.703 235.59,-95.703c88.368,0 166.493,31.706 234.375,95.095c67.904,63.401 101.866,144.184 101.866,242.361c0,67.914 -17.6,128.255 -52.778,181.033c-35.189,52.756 -77.941,91.602 -128.255,116.536c-50.293,24.946 -102.431,37.413 -156.424,37.413c-53.993,0 -106.359,-13.281 -157.075,-39.844c-50.727,-26.584 -93.479,-65.853 -128.255,-117.795c-34.755,-51.964 -52.127,-110.677 -52.127,-176.128Zm256.467,87.76c26.183,20.03 52.778,30.035 79.774,30.035c26.997,0 53.993,-10.211 80.99,-30.642c26.997,-20.454 40.495,-50.716 40.495,-90.799c0,-40.104 -12.695,-69.965 -38.064,-89.583c-25.347,-19.64 -52.756,-29.47 -82.205,-29.47c-29.46,0 -56.879,10.232 -82.248,30.686c-25.347,20.464 -38.021,50.521 -38.021,90.191c0,39.67 13.086,69.531 39.28,89.583Z" style="fill:#fff;fill-rule:nonzero;"/></g></g></g><g><g><g><path d="M2315.854,563.807c0,34.787 11.437,61.784 34.332,80.99c22.917,19.217 47.244,28.819 73.003,28.819c25.781,0 49.913,-7.563 72.396,-22.7c22.504,-15.126 40.723,-22.7 54.644,-22.7c24.533,0 54.395,21.691 89.583,65.061c18.804,23.73 28.212,44.998 28.212,63.802c0,31.076 -22.504,60.113 -67.491,87.109c-46.615,32.726 -103.885,49.089 -171.788,49.089c-76.074,0 -149.295,-27.398 -219.661,-82.205c-33.539,-26.183 -60.938,-61.155 -82.205,-104.905c-21.267,-43.772 -31.901,-92.036 -31.901,-144.792c0,-52.778 10.634,-100.629 31.901,-143.576c21.267,-42.969 48.665,-77.528 82.205,-103.689c67.904,-54.015 140.321,-81.033 217.231,-81.033c31.076,0 61.339,4.297 90.799,12.891c29.449,8.594 51.128,16.992 65.017,25.174l19.661,12.283c14.692,9.809 26.139,17.578 34.332,23.307c21.267,16.352 31.901,34.961 31.901,55.816c0,20.866 -8.583,44.39 -25.738,70.573c-29.46,44.998 -57.682,67.491 -84.679,67.491c-15.538,0 -37.63,-8.995 -66.276,-26.997c-14.735,-13.911 -35.796,-20.877 -63.194,-20.877c-27.409,0 -52.973,9.831 -76.693,29.47c-23.73,19.618 -35.59,46.821 -35.59,81.597Z" style="fill:#fff;fill-rule:nonzero;"/></g></g></g><g><g><g><path d="M3128.236,563.2l163.194,134.983c20.454,17.188 33.333,30.284 38.628,39.28c5.317,9.006 7.986,17.578 7.986,25.738c0,19.651 -12.674,46.246 -38.021,79.774c-27.843,34.375 -52.387,51.562 -73.655,51.562c-18.001,0 -42.947,-11.86 -74.826,-35.59l-12.283,-8.594c-18.815,-15.538 -47.852,-42.73 -87.109,-81.597c-39.269,-38.856 -69.13,-66.471 -89.583,-82.856l0,94.488c0,18.837 -0.629,32.964 -1.866,42.361c-1.215,9.408 -5.1,20.247 -11.632,32.509c-10.655,21.267 -42.144,31.901 -94.488,31.901c-51.562,0 -83.062,-11.035 -94.488,-33.116c-5.729,-12.261 -9.223,-23.101 -10.46,-32.509c-1.215,-9.429 -1.823,-23.546 -1.823,-42.361l0,-735.069c0,-18.804 0.608,-32.91 1.823,-42.318c1.237,-9.397 4.731,-20.237 10.46,-32.509c11.426,-22.103 43.327,-33.16 95.703,-33.16c39.258,0 67.079,6.966 83.464,20.877c13.889,11.458 21.235,29.46 22.049,53.993c0.836,7.378 1.259,18.837 1.259,34.375l0,388.976c14.724,-12.261 37.023,-33.116 66.884,-62.543c29.861,-29.449 52.138,-50.326 66.84,-62.63l14.757,-9.809c28.613,-22.07 53.147,-33.116 73.611,-33.116c20.454,0 43.978,16.569 70.573,49.696c26.584,33.138 39.887,59.115 39.887,77.951c0,18.815 -15.137,40.885 -45.399,66.233l-121.484,103.082Z" style="fill:#fff;fill-rule:nonzero;"/></g></g></g></g></g><g><g><g><g><g><path d="M332.97,1968.634c0,6.858 -1.411,13.238 -4.21,19.141c-5.122,11.057 -14.138,18.75 -27.04,23.09c-4.514,1.562 -8.409,2.344 -11.675,2.344c-9.635,0 -17.958,-1.79 -24.957,-5.382l0,-2.344c11.372,2.496 21.875,1.248 31.51,-3.733c8.529,-4.34 14.366,-11.48 17.491,-21.441c0.922,-3.092 1.389,-6.044 1.389,-8.854l0,-5.122c-0.326,-10.905 -3.201,-19.586 -8.637,-26.042c-5.447,-6.445 -13.053,-9.679 -22.83,-9.679l-26.823,0l0,139.28c0.141,4.026 1.649,7.487 4.514,10.373c2.886,2.865 6.348,4.297 10.373,4.297l3.038,0l0,2.344l-51.085,0l0,-2.344l3.038,0c4.047,0 7.509,-1.432 10.373,-4.297c2.886,-2.886 4.405,-6.348 4.557,-10.373l0,-130.382c-0.467,-3.906 -2.105,-7.129 -4.905,-9.679c-2.778,-2.572 -6.12,-3.863 -10.026,-3.863l-2.778,0l-0.26,-2.344l60.894,0c14.931,0 26.66,4.015 35.2,12.023c8.561,8.019 12.847,19.01 12.847,32.986Z" style="fill-rule:nonzero;"/></g></g></g><g><g><g><path d="M385.328,1943.807c15.473,-15.625 35.645,-23.438 60.503,-23.438c24.881,0 45.095,7.812 60.634,23.438c15.56,15.625 23.351,36.111 23.351,61.458c0,25.347 -7.791,45.833 -23.351,61.458c-15.538,15.625 -35.753,23.438 -60.634,23.438c-24.859,0 -45.03,-7.812 -60.503,-23.438c-15.484,-15.625 -23.22,-36.111 -23.22,-61.458c0,-25.347 7.737,-45.833 23.22,-61.458Zm12.804,117.925c12.066,14.301 28.006,21.441 47.83,21.441c19.813,0 35.742,-7.14 47.786,-21.441c12.066,-14.323 18.099,-33.138 18.099,-56.467c0,-15.386 -2.724,-28.993 -8.16,-40.799c-5.447,-11.827 -13.184,-20.974 -23.22,-27.431c-10.015,-6.445 -21.56,-9.679 -34.635,-9.679c-19.737,0 -35.634,7.161 -47.7,21.484c-12.044,14.301 -18.056,33.105 -18.056,56.424c0,23.329 6.011,42.144 18.056,56.467Z" style="fill-rule:nonzero;"/></g></g></g><g><g><g><path d="M766.994,1925.969l-1.866,0c-5.762,0 -10.807,2.105 -15.148,6.293c-2.496,2.17 -4.286,4.894 -5.382,8.16l-38.715,123.394c-3.103,9.809 -4.807,18.435 -5.122,25.868l-2.127,0l-47.569,-133.377l-35.46,107.509c-2.951,9.635 -4.59,18.262 -4.905,25.868l-2.083,0l-52.951,-149.479c-1.855,-4.655 -4.731,-8.181 -8.637,-10.59c-3.885,-2.431 -7.845,-3.646 -11.892,-3.646l-1.866,0l0,-2.344l51.78,0l0,2.344l-2.083,0c-3.277,0 -5.729,1.063 -7.378,3.168c-1.628,2.083 -2.431,4.069 -2.431,5.946c0,1.855 0.228,3.559 0.694,5.122l35.46,113.585l43.403,-133.898l2.083,0.26l45.964,128.95l31.25,-109.158c0.456,-1.704 0.694,-3.44 0.694,-5.208c0,-1.79 -0.781,-3.7 -2.344,-5.729c-1.541,-2.018 -3.939,-3.038 -7.205,-3.038l-2.127,0l0,-2.344l45.964,0l0,2.344Z" style="fill-rule:nonzero;"/></g></g></g><g><g><g><path d="M781.434,2084.563c4.047,0 7.509,-1.432 10.373,-4.297c2.886,-2.886 4.405,-6.348 4.557,-10.373l0,-130.642c-0.467,-3.733 -2.105,-6.868 -4.905,-9.418c-2.778,-2.572 -6.12,-3.863 -10.026,-3.863l-2.778,0l-0.26,-2.344l68.359,0c4.829,0 10.08,-0.456 15.755,-1.389c5.664,-0.922 9.679,-1.866 12.023,-2.821l0,29.427l-2.344,0l0,-4.21c0,-3.733 -1.291,-6.912 -3.863,-9.549c-2.582,-2.658 -5.642,-4.058 -9.201,-4.21l-47.569,0l0,72.049l39.41,0c3.092,-0.141 5.729,-1.302 7.899,-3.472c2.192,-2.17 3.299,-4.883 3.299,-8.16l0,-3.299l2.3,0l0,36.892l-2.3,0l0,-3.516c0,-3.125 -1.063,-5.773 -3.168,-7.943c-2.083,-2.17 -4.688,-3.32 -7.812,-3.472l-39.627,0l0,69.705l33.333,0c11.513,0 20.291,-2.561 26.345,-7.682c6.076,-5.122 11.133,-12.739 15.191,-22.873l2.3,0l-13.498,37.804l-96.832,0l0,-2.344l3.038,0Z" style="fill-rule:nonzero;"/></g></g></g><g><g><g><path d="M958.679,1930.873l-14.887,0l0,139.019c0,4.026 1.432,7.487 4.297,10.373c2.865,2.865 6.391,4.297 10.59,4.297l2.821,0l0.217,2.344l-51.085,0l0,-2.344l3.038,0c4.047,0 7.509,-1.389 10.373,-4.167c2.886,-2.799 4.405,-6.228 4.557,-10.286l0,-129.427c-0.152,-4.047 -1.671,-7.509 -4.557,-10.373c-2.865,-2.886 -6.326,-4.34 -10.373,-4.34l-3.038,0l0,-2.344l62.977,0c14.149,0 25.26,3.939 33.333,11.806c8.095,7.845 12.153,18.034 12.153,30.556c0,12.5 -3.852,23.307 -11.545,32.422c-7.704,9.093 -17.057,13.628 -28.082,13.628c2.311,1.107 5.056,3.244 8.247,6.424c3.212,3.19 6.055,6.489 8.55,9.896c13.368,19.13 22.059,30.903 26.085,35.33c4.047,4.427 6.923,7.465 8.637,9.115c1.736,1.628 3.602,3.212 5.599,4.774c2.018,1.562 4.047,2.81 6.076,3.733c4.514,2.17 9.332,3.255 14.453,3.255l0,2.344l-12.804,0c-6.684,0 -12.912,-1.194 -18.663,-3.602c-5.762,-2.431 -10.091,-4.915 -12.977,-7.465c-2.865,-2.572 -5.36,-5.056 -7.465,-7.465c-2.083,-2.431 -7.878,-10.471 -17.361,-24.132c-9.494,-13.683 -15.017,-21.495 -16.58,-23.438c-1.541,-1.964 -3.158,-3.874 -4.861,-5.729c-4.98,-5.295 -9.961,-7.943 -14.931,-7.943l0,-2.344c1.237,0.174 2.875,0.26 4.905,0.26c2.018,0 4.514,-0.087 7.465,-0.26c19.271,-0.456 31.391,-8.55 36.372,-24.262c0.922,-3.092 1.389,-6 1.389,-8.724l0,-5.252c-0.293,-10.417 -3.016,-18.804 -8.16,-25.174c-5.122,-6.391 -12.044,-9.82 -20.747,-10.286c-3.733,-0.141 -8.409,-0.217 -14.019,-0.217Z" style="fill-rule:nonzero;"/></g></g></g><g><g><g><path d="M1140.605,1923.625c24.881,0 45.052,7.509 60.503,22.526c15.473,14.996 23.22,34.701 23.22,59.115c0,24.425 -7.747,44.141 -23.22,59.158c-15.451,14.996 -35.623,22.483 -60.503,22.483l-79.08,0l0,-2.344l3.038,0c4.047,0 7.509,-1.432 10.373,-4.297c2.886,-2.886 4.405,-6.348 4.557,-10.373l0,-130.642c0,-3.733 -1.519,-6.868 -4.557,-9.418c-3.016,-2.572 -6.467,-3.863 -10.373,-3.863l-2.778,0l-0.26,-2.344l79.08,0Zm-45.92,6.988l0,149.306l45.92,0c13.075,0 24.62,-3.103 34.635,-9.332c10.037,-6.217 17.806,-14.952 23.307,-26.215c5.523,-11.285 8.29,-24.316 8.29,-39.106c0,-22.396 -6.109,-40.43 -18.316,-54.123c-12.185,-13.683 -28.158,-20.53 -47.917,-20.53l-45.92,0Z" style="fill-rule:nonzero;"/></g></g></g><g><g><g><path d="M1364.984,2086.906l-56.944,0l0.26,-2.344l2.778,0c4.047,0 7.509,-1.389 10.373,-4.167c2.886,-2.799 4.405,-6.228 4.557,-10.286l0,-129.688c0,-4.047 -1.476,-7.465 -4.427,-10.243c-2.951,-2.799 -6.456,-4.21 -10.503,-4.21l-2.778,0l-0.26,-2.344l46.441,0c15.994,0 28.429,3.548 37.283,10.634c8.876,7.064 13.325,16.515 13.325,28.342c0,9.321 -2.496,17.057 -7.465,23.22c-4.98,6.141 -11.046,10.221 -18.186,12.24c12.261,1.855 21.973,6.901 29.123,15.148c7.172,8.247 10.764,18.641 10.764,31.163c0,12.5 -4.796,22.721 -14.366,30.642c-9.549,7.932 -22.873,11.892 -39.974,11.892Zm-23.785,-8.377l23.307,0c11.806,0 20.974,-3.223 27.517,-9.679c6.532,-6.478 9.809,-15.625 9.809,-27.431c0,-6.684 -1.128,-12.543 -3.385,-17.578c-2.257,-5.056 -5.1,-9.071 -8.507,-12.023c-9.028,-7.465 -22.559,-11.198 -40.582,-11.198l-0.26,0l0,-2.127l2.214,0c1.324,0 3.234,-0.141 5.729,-0.434c2.485,-0.315 5.273,-0.868 8.377,-1.649c3.125,-0.781 5.924,-2.018 8.42,-3.733c2.485,-1.704 4.818,-3.733 6.988,-6.076c4.514,-5.122 6.771,-12.771 6.771,-22.96c0,-10.178 -2.93,-18.153 -8.767,-23.915c-5.816,-5.751 -14.258,-8.637 -25.304,-8.637l-12.326,0l0,147.439Z" style="fill-rule:nonzero;"/></g></g></g><g><g><g><path d="M1581.845,1925.969l-3.255,0c-4.666,0 -9.06,1.291 -13.194,3.863c-4.112,2.55 -7.574,5.773 -10.373,9.679l-45.92,74.609l0,55.773c0,4.026 1.432,7.487 4.297,10.373c2.865,2.865 6.402,4.297 10.634,4.297l2.778,0l0,2.344l-50.825,0l0,-2.344l2.995,0c4.047,0 7.509,-1.389 10.373,-4.167c2.886,-2.799 4.405,-6.228 4.557,-10.286l0,-56.207l-44.531,-74.392c-2.344,-3.733 -5.664,-6.912 -9.939,-9.549c-4.253,-2.658 -8.724,-3.993 -13.411,-3.993l-3.255,0l0,-2.344l57.378,0l0,2.344l-3.038,0c-3.418,0 -6.055,1.552 -7.899,4.644c-0.955,1.736 -1.432,3.418 -1.432,5.035c0,1.628 0.391,3.212 1.172,4.774l34.983,65.321l37.326,-65.538c0.781,-1.562 1.172,-3.103 1.172,-4.644c0,-1.562 -0.543,-3.212 -1.606,-4.948c-1.888,-3.092 -4.536,-4.644 -7.943,-4.644l-2.821,0l0,-2.344l51.78,0l0,2.344Z" style="fill-rule:nonzero;"/></g></g></g><g><g><g><path d="M1802.99,2016.941c0,21.615 -6.727,38.694 -20.182,51.215c-13.455,12.5 -31.706,18.75 -54.731,18.75l-77.865,0l0,-2.344l2.995,0c3.733,0 6.836,-1.237 9.332,-3.733c2.485,-2.485 3.819,-5.436 3.993,-8.854l0,-110.069c-0.174,-3.733 -1.552,-6.771 -4.123,-9.115c-2.55,-2.344 -5.686,-3.516 -9.418,-3.516l-2.778,0l0,-2.3l77.865,0c15.245,0 28.494,2.81 39.757,8.42c11.285,5.588 19.965,13.661 26.042,24.219c6.076,10.569 9.115,23.003 9.115,37.326Zm-121.311,-62.977l0,125.955l46.398,0c17.882,0 32.031,-5.621 42.448,-16.884c10.438,-11.285 15.668,-26.649 15.668,-46.094c0,-19.444 -5.23,-34.787 -15.668,-46.05c-10.417,-11.285 -24.566,-16.927 -42.448,-16.927l-46.398,0Z" style="fill-rule:nonzero;"/></g></g></g><g><g><g><path d="M1827.217,2084.563c4.188,0 7.834,-1.237 10.938,-3.733c3.125,-2.485 4.688,-5.436 4.688,-8.854l0,-110.069c0,-3.44 -1.562,-6.402 -4.688,-8.898c-3.103,-2.485 -6.836,-3.733 -11.198,-3.733l-2.995,0l0,-2.3l52.691,0l0,2.3l-3.038,0c-4.199,0 -7.812,1.172 -10.851,3.516c-3.016,2.344 -4.677,5.23 -4.991,8.637l0,110.764c0.141,3.451 1.758,6.369 4.861,8.767c3.125,2.409 6.782,3.602 10.981,3.602l3.038,0l0.217,2.344l-52.908,0l0,-2.344l3.255,0Z" style="fill-rule:nonzero;"/></g></g></g><g><g><g><path d="M1974.13,2090.162c-23.155,-0.152 -41.688,-6.782 -55.599,-19.922c-13.921,-13.129 -20.877,-30.924 -20.877,-53.385c0,-22.483 6.955,-40.289 20.877,-53.429c13.911,-13.162 31.868,-19.748 53.863,-19.748c21.984,0 40.69,4.677 56.12,14.019l5.122,33.116l-2.127,0c-3.244,-13.683 -9.581,-23.785 -19.01,-30.295c-9.408,-6.532 -22.7,-9.809 -39.887,-9.809c-17.166,0 -31.152,5.946 -41.97,17.839c-10.796,11.892 -16.189,28.027 -16.189,48.394c0,20.378 5.436,36.502 16.319,48.394c10.872,11.892 25.911,17.839 45.095,17.839c19.206,0 35.742,-6.771 49.609,-20.312l0.217,-30.99c0.141,-2.799 -0.76,-5.013 -2.691,-6.641c-1.942,-1.649 -4.622,-2.474 -8.03,-2.474l-3.255,0l0,-2.344l42.665,0l0,2.344l-3.255,0c-7.01,0 -10.503,3.114 -10.503,9.332l0,27.995c-6.543,8.073 -15.527,15.104 -26.953,21.094c-11.437,5.99 -24.609,8.984 -39.54,8.984Z" style="fill-rule:nonzero;"/></g></g></g><g><g><g><path d="M2071.632,2084.563c4.188,0 7.834,-1.237 10.938,-3.733c3.125,-2.485 4.688,-5.436 4.688,-8.854l0,-110.069c0,-3.44 -1.562,-6.402 -4.688,-8.898c-3.103,-2.485 -6.836,-3.733 -11.198,-3.733l-2.995,0l0,-2.3l52.691,0l0,2.3l-3.038,0c-4.199,0 -7.812,1.172 -10.851,3.516c-3.016,2.344 -4.677,5.23 -4.991,8.637l0,110.764c0.141,3.451 1.758,6.369 4.861,8.767c3.125,2.409 6.782,3.602 10.981,3.602l3.038,0l0.217,2.344l-52.908,0l0,-2.344l3.255,0Z" style="fill-rule:nonzero;"/></g></g></g><g><g><g><path d="M2333.545,2084.563l3.516,0l0,2.344l-48.524,0l0,-2.083l3.516,0c2.311,0 4.362,-0.89 6.163,-2.691c1.79,-1.79 2.528,-3.928 2.214,-6.424l-12.109,-96.094l-44.097,86.762c-4.373,9.494 -7.096,17.426 -8.16,23.785l-2.344,0l-56.207,-108.464l-10.503,94.01c-0.326,2.344 0.412,4.46 2.214,6.337c1.79,1.855 3.928,2.778 6.424,2.778l3.255,0l0,2.083l-43.142,0l0,-2.344l3.516,0c5.577,0 9.939,-2.007 13.064,-6.033c1.53,-2.018 2.452,-4.438 2.778,-7.248l18.186,-127.604l2.344,0l61.589,118.49l59.462,-118.49l2.083,0l18.924,128.082c0.608,3.885 2.387,6.988 5.339,9.332c2.951,2.322 6.445,3.472 10.503,3.472Z" style="fill-rule:nonzero;"/></g></g></g><g><g><g><path d="M2492.61,2084.563l1.866,0l0,2.344l-47.83,0l0,-2.344l1.866,0c2.951,0 5.208,-0.998 6.771,-2.995c1.562,-2.018 2.344,-3.928 2.344,-5.729c0,-1.79 -0.326,-3.537 -0.955,-5.252l-12.804,-31.033l-59.028,0l-12.847,30.339c-0.76,2.029 -1.128,3.939 -1.128,5.729c0,1.769 0.76,3.711 2.3,5.816c1.562,2.083 3.906,3.125 7.031,3.125l1.866,0l0,2.344l-44.575,0l0,-2.344l1.866,0c3.266,0 6.565,-1.128 9.896,-3.385c3.353,-2.257 6.12,-5.621 8.29,-10.113c34.049,-72.765 51.79,-110.872 53.212,-114.323c2.626,-6.51 4.015,-10.862 4.167,-13.064l2.127,0l57.595,127.387c4.514,9.006 10.503,13.498 17.969,13.498Zm-104.731,-51.997l53.168,0l-26.128,-63.932l-27.04,63.932Z" style="fill-rule:nonzero;"/></g></g></g><g><g><g><path d="M2549.753,1954.181l-12.37,0l0,117.795c0.141,4.839 2.311,8.496 6.51,10.981c2.018,1.074 4.275,1.606 6.771,1.606l3.038,0l0.217,2.344l-47.786,0l0,-2.344l3.255,0c3.559,0 6.619,-1.194 9.201,-3.602c2.572,-2.398 3.863,-5.317 3.863,-8.767l0,-110.764c0,-3.407 -1.291,-6.293 -3.863,-8.637c-2.582,-2.344 -5.642,-3.516 -9.201,-3.516l-3.255,0l0,-2.3l58.507,0c14.638,0 26.183,3.342 34.635,10.026c8.474,6.684 12.717,15.473 12.717,26.345c0,10.883 -3.429,19.987 -10.286,27.3c-6.836,7.292 -15.527,11.491 -26.085,12.587c4.97,2.17 10.959,8.236 17.969,18.186c-0.174,0 2.496,3.429 8.03,10.286c5.523,6.836 9.95,12.153 13.281,15.972c3.353,3.798 6.12,6.706 8.29,8.724c5.751,5.447 12.37,8.16 19.835,8.16l0,2.344l-7.205,0c-12.305,0 -21.951,-2.409 -28.95,-7.248c-5.295,-3.559 -10.113,-7.986 -14.453,-13.281c-0.933,-1.237 -4.861,-6.727 -11.806,-16.45c-6.923,-9.722 -10.612,-14.887 -11.068,-15.495c-8.398,-10.417 -16.233,-15.625 -23.524,-15.625l0,-2.344c18.164,0 29.123,-0.922 32.856,-2.778c5.143,-2.658 8.648,-5.469 10.503,-8.42c3.874,-6.217 5.816,-13.064 5.816,-20.53c0,-9.484 -2.799,-16.797 -8.377,-21.918c-5.588,-5.122 -13.129,-7.91 -22.613,-8.377c-4.199,-0.174 -9.017,-0.26 -14.453,-0.26Z" style="fill-rule:nonzero;"/></g></g></g><g><g><g><path d="M2708.772,1953.703l0,118.49c0.174,4.839 2.517,8.42 7.031,10.764c2.018,1.074 4.264,1.606 6.727,1.606l2.604,0l0,2.344l-48.047,0l0,-2.344l2.778,0c3.733,0 6.912,-1.237 9.549,-3.733c2.658,-2.485 4.058,-5.436 4.21,-8.854l0,-118.273l-42.231,0c-3.559,0 -6.402,1.172 -8.507,3.516c-2.083,2.344 -3.125,5.154 -3.125,8.42l0,3.733l-2.561,0l0,-26.389c3.092,1.248 7.476,2.192 13.151,2.821c5.664,0.608 9.907,0.911 12.717,0.911l76.042,0c11.198,0 19.9,-1.237 26.128,-3.733l0,26.389l-2.561,0l0,-3.733c0,-3.266 -1.107,-6.076 -3.299,-8.42c-2.17,-2.344 -4.97,-3.516 -8.377,-3.516l-42.231,0Z" style="fill-rule:nonzero;"/></g></g></g></g></g><g><g><g><g><g><path d="M3176.182,1598.313l-97.005,-5.99l0,205.903c0,26.855 4.221,46.257 12.674,58.203c8.474,11.925 24.392,17.882 47.743,17.882c23.372,0 41.287,0.76 53.733,2.257c12.435,1.476 25.618,6.196 39.54,14.149c22.884,12.934 34.332,46.257 34.332,99.957c0,62.674 -13.932,100.977 -41.797,114.887c-14.909,6.977 -28.082,11.22 -39.54,12.717c-11.437,1.476 -28.082,2.214 -49.957,2.214c-103.451,0 -182.031,-23.362 -235.764,-70.095c-53.711,-46.756 -80.556,-125.836 -80.556,-237.24l0,-220.833c-18.902,2.984 -39.28,4.47 -61.155,4.47c-21.875,0 -40.039,-8.442 -54.47,-25.347c-14.41,-16.895 -21.615,-45.725 -21.615,-86.502c0,-40.799 2.474,-70.399 7.422,-88.802c4.97,-18.403 11.947,-31.576 20.92,-39.54c15.907,-12.934 35.807,-19.401 59.679,-19.401l49.219,5.99l0,-153.689c0,-22.884 0.738,-39.8 2.214,-50.738c1.497,-10.938 6.228,-22.873 14.193,-35.807c12.934,-24.848 51.226,-37.283 114.887,-37.283c67.643,0 107.943,18.403 120.877,55.208c4.948,15.918 7.422,41.276 7.422,76.085l0,146.224c43.772,-3.993 76.845,-5.99 99.219,-5.99c22.396,0 39.301,0.76 50.738,2.257c11.426,1.476 24.609,6.196 39.54,14.149c25.868,12.934 38.802,51.237 38.802,114.887c0,62.674 -13.433,100.977 -40.278,114.887c-14.931,6.977 -28.125,11.22 -39.583,12.717c-11.437,1.476 -28.581,2.214 -51.432,2.214Z" style="fill:#6b00f6;fill-rule:nonzero;"/></g></g></g></g></g></svg>
