<svg width="190" height="33" viewBox="0 0 190 33" fill="none" xmlns="http://www.w3.org/2000/svg">
<g clip-path="url(#clip0_144_1030)">
<path d="M34.2811 4.89999C34.2029 4.51365 34.089 4.13537 33.9411 3.76999C33.8083 3.38952 33.6232 3.0294 33.3911 2.69999C33.1682 2.34456 32.9139 2.00988 32.6311 1.69999C32.3335 1.40278 31.9971 1.14714 31.6311 0.939993C31.3029 0.750228 30.9621 0.58317 30.6111 0.439993C30.2441 0.296557 29.8663 0.182857 29.4811 0.099993C29.0922 0.0266254 28.6968 -0.00688137 28.3011 -6.97939e-06H6.08109C5.68558 -0.00146364 5.29071 0.0319996 4.90109 0.099993C4.51771 0.181674 4.14276 0.298846 3.78109 0.449993C3.40189 0.592906 3.03969 0.777363 2.70109 0.999993C2.36581 1.22492 2.05124 1.47926 1.76109 1.75999C1.46759 2.03861 1.21206 2.35466 1.00109 2.69999C0.790823 3.04726 0.603748 3.40804 0.441088 3.77999C0.300829 4.14803 0.187203 4.52567 0.101088 4.90999C0.0273016 5.29885 -0.00620879 5.69427 0.00108756 6.08999V27.09C-0.00698641 27.4862 0.0299162 27.8821 0.111088 28.27C0.186044 28.6572 0.299957 29.0357 0.451088 29.4C0.589473 29.7718 0.774269 30.1245 1.00109 30.45C1.22333 30.7903 1.47784 31.1085 1.76109 31.4C2.04441 31.6883 2.3598 31.9433 2.70109 32.16C3.05071 32.363 3.41125 32.5466 3.78109 32.71C4.14751 32.8549 4.52552 32.9687 4.91109 33.05C5.29994 33.1238 5.69536 33.1573 6.09109 33.15H28.3011C28.6966 33.1519 29.0915 33.1184 29.4811 33.05C29.8674 32.9718 30.2457 32.8579 30.6111 32.71C30.988 32.5691 31.3471 32.3845 31.6811 32.16C32.0365 31.9371 32.3712 31.6828 32.6811 31.4C32.9696 31.1131 33.2246 30.7944 33.4411 30.45C33.6442 30.1038 33.8278 29.7466 33.9911 29.38C34.1332 29.0126 34.2468 28.6348 34.3311 28.25C34.404 27.861 34.4375 27.4657 34.4311 27.07V6.06999C34.4204 5.67595 34.3702 5.28398 34.2811 4.89999Z" fill="#FFD142"/>
<path d="M54.001 7.06V10.48C55.211 10.48 54.911 11.48 54.911 12.12V26.23H58.671V9.23C58.726 8.49177 58.6653 7.74946 58.491 7.03L54.001 7.06ZM68.071 19.3L72.181 17.7C72.8706 17.4167 73.459 16.9323 73.8692 16.3097C74.2795 15.6872 74.4927 14.9555 74.481 14.21C74.8221 12.7434 74.6095 11.2025 73.8843 9.88292C73.159 8.56337 71.972 7.5581 70.551 7.06H62.001V10.6H68.491C69.491 10.6 70.371 10.6 70.721 11.89C70.8074 12.1394 70.8437 12.4035 70.8276 12.6671C70.8115 12.9306 70.7433 13.1883 70.6271 13.4254C70.5109 13.6624 70.3489 13.8741 70.1505 14.0483C69.9521 14.2224 69.7211 14.3556 69.471 14.44C68.352 14.9978 67.1749 15.4304 65.961 15.73C64.5657 15.9756 63.3178 16.7474 62.4749 17.8862C61.632 19.025 61.2584 20.4438 61.431 21.85V26.42H74.511V23H66.001C65.511 20.21 65.691 19.9 68.071 19.3ZM90.071 17.1C89.8774 16.8069 89.649 16.5383 89.391 16.3C90.3755 15.2961 90.927 13.9461 90.927 12.54C90.927 11.1339 90.3755 9.7839 89.391 8.78C88.7072 8.10305 87.8426 7.63778 86.901 7.44L86.061 7.06H76.861V10.55H83.861C85.191 10.55 86.231 10.93 86.391 12.38C86.551 13.83 85.391 14.38 83.861 14.38H78.741C78.8115 14.9077 78.8115 15.4423 78.741 15.97C78.741 17.57 79.161 18.1 80.671 17.97C81.7799 17.9 82.8921 17.9 84.001 17.97C84.6043 17.9107 85.2069 18.09 85.6797 18.4694C86.1525 18.8488 86.4581 19.3982 86.531 20V20.14C86.5653 20.1974 86.5835 20.2631 86.5835 20.33C86.5835 20.3969 86.5653 20.4626 86.531 20.52C86.531 22.04 85.691 22.91 84.001 22.95H76.721V26.26H88.181C89.6237 25.2806 90.6233 23.7731 90.9638 22.0629C91.3043 20.3528 90.9585 18.5773 90.001 17.12L90.071 17.1ZM105.861 8.42C105.362 7.88844 104.789 7.43053 104.161 7.06H93.001V26.3H97.111V20.21C97.1876 20.0046 97.3063 19.8175 97.4596 19.6608C97.6129 19.504 97.7973 19.3811 98.001 19.3C100.721 18.99 101.211 19.3 102.071 21.85C102.551 23.26 102.971 24.74 103.461 26.19H107.881C107.041 23.56 106.111 20.87 105.161 18.19C106.525 16.9697 107.357 15.2638 107.478 13.4376C107.6 11.6114 107.001 9.81021 105.811 8.42H105.861ZM101.921 15.42H97.081V10.9C98.8159 10.79 100.556 10.79 102.291 10.9C102.781 10.9 103.381 12.24 103.451 12.99C103.521 13.74 103.271 15.38 101.871 15.43L101.921 15.42ZM123.431 7.12H112.431C111.494 7.50895 110.714 8.20138 110.217 9.08626C109.72 9.97114 109.535 10.9972 109.691 12V26.33H113.801V18.55H122.401V14.94H115.541C114.261 14.94 113.731 14.94 113.781 13.3C113.831 11.66 113.941 10.86 115.781 10.86H122.191C122.681 10.86 123.401 10.44 123.401 10.13C123.514 9.1328 123.508 8.1256 123.381 7.13L123.431 7.12Z" fill="#121112"/>
<path d="M17.3813 10.33C16.2194 10.3614 15.1162 10.8471 14.3085 11.6828C13.5008 12.5186 13.053 13.6377 13.0613 14.8C13.0587 15.3607 13.1665 15.9165 13.3787 16.4356C13.5908 16.9546 13.9031 17.4268 14.2978 17.8252C14.6924 18.2236 15.1617 18.5403 15.6787 18.7573C16.1958 18.9743 16.7505 19.0874 17.3113 19.09H17.4013C18.5392 19.0742 19.6252 18.6111 20.4243 17.8007C21.2234 16.9904 21.6714 15.898 21.6713 14.76C21.6595 13.6127 21.208 12.5136 20.4098 11.6894C19.6116 10.8652 18.5276 10.3786 17.3813 10.33ZM28.5313 21.8V14.67C28.5611 14.0902 28.422 13.5141 28.1309 13.0118C27.8398 12.5095 27.4092 12.1024 26.8913 11.84C26.1905 11.3593 25.6311 10.6998 25.2713 9.92998C25.1335 9.20824 24.7357 8.56215 24.1532 8.11424C23.5708 7.66634 22.8442 7.44776 22.1113 7.49998H12.4213C11.6578 7.43336 10.8977 7.66147 10.2971 8.13752C9.69646 8.61356 9.30079 9.30144 9.19129 10.06C8.94075 10.6286 8.60339 11.1549 8.19129 11.62L5.82129 13.82V25.7L28.8213 26.07C28.8011 24.6425 28.7043 23.2171 28.5313 21.8ZM27.2513 22.56C27.2513 23.2 26.7413 24.25 26.3213 24.29C25.4124 24.3852 24.4949 24.226 23.6713 23.83C23.1392 23.1619 22.4494 22.6367 21.6638 22.3015C20.8783 21.9663 20.0218 21.8318 19.1713 21.91C17.6566 22.02 16.136 22.02 14.6213 21.91C13.9668 21.832 13.3037 21.9443 12.7114 22.2334C12.1191 22.5225 11.6226 22.9761 11.2813 23.54C10.9607 24.0285 10.4704 24.3807 9.90513 24.5284C9.33987 24.6762 8.73989 24.6091 8.22129 24.34C7.12129 23.94 7.36129 23.07 7.36129 22.25V16.89C7.36129 15.04 7.36129 13.35 9.44129 12.6C9.92133 12.0174 10.2632 11.3336 10.4413 10.6C10.5389 10.0736 10.8302 9.60284 11.2579 9.28072C11.6855 8.9586 12.2184 8.80848 12.7513 8.85998H21.7513C22.3046 8.80468 22.8593 8.94994 23.3145 9.2693C23.7697 9.58866 24.095 10.0609 24.2313 10.6C24.6007 11.4918 25.2142 12.2612 26.0013 12.82C26.4273 13.0294 26.7814 13.3609 27.0182 13.7723C27.2551 14.1838 27.3641 14.6564 27.3313 15.13C27.2513 17.58 27.3613 20.07 27.2513 22.56Z" fill="white"/>
</g>
<defs>
<clipPath id="clip0_144_1030">
<rect width="190" height="33" fill="white"/>
</clipPath>
</defs>
</svg>
