<svg width="173" height="31" viewBox="0 0 173 31" fill="none" xmlns="http://www.w3.org/2000/svg">
<g clip-path="url(#clip0_6583_25615)">
<path d="M53.8124 13.0595H57.5115C57.4297 12.7414 57.3207 12.396 57.1752 12.0052C57.0298 11.6144 56.9298 11.1963 56.7844 10.76C56.639 10.3238 56.5118 9.87844 56.3663 9.41492C56.2209 8.97866 56.0937 8.53332 55.9755 8.1425C55.8301 7.72443 55.7483 7.35179 55.6574 7.01551H55.6302C55.4847 7.55174 55.3121 8.16068 55.1485 8.85142C54.9303 9.57851 54.7395 10.2874 54.485 11.0236C54.2578 11.7416 54.0306 12.4323 53.8124 13.0595ZM58.4113 15.9769H52.9854L51.8402 19.4488C51.8129 19.5942 51.6948 19.6396 51.5675 19.6396H48.8773C48.7046 19.6396 48.6501 19.5578 48.6864 19.4124L53.3853 5.87035C53.4307 5.72493 53.4671 5.59769 53.5307 5.40682C53.5761 5.21596 53.6125 4.92513 53.6125 4.42525C53.6125 4.29801 53.6579 4.25257 53.7579 4.25257H57.5297C57.6569 4.25257 57.7024 4.29801 57.7206 4.39799L63.0556 19.4669C63.101 19.6124 63.0556 19.6942 62.9283 19.6942H59.8655C59.7201 19.6942 59.6383 19.6487 59.6201 19.5215L58.4113 15.9769ZM71.1081 16.9494V10.5873C70.9809 10.5419 70.8627 10.5056 70.7173 10.5056C70.5446 10.4783 70.3992 10.4783 70.2538 10.4783C69.6721 10.4783 69.1086 10.6055 68.5906 10.8509C68.1089 11.0963 67.6544 11.4599 67.3636 11.9325C67.0728 12.4051 66.9001 13.014 66.9001 13.7684C66.9001 14.35 66.9819 14.8499 67.1273 15.2589C67.3 15.677 67.5181 16.0496 67.7908 16.2859C68.0634 16.5586 68.3997 16.7494 68.7723 16.8949C69.1632 17.0403 69.5631 17.0857 70.0175 17.0857C70.2083 17.0857 70.4083 17.0857 70.5992 17.0585C70.7628 17.0766 70.9445 17.0039 71.1081 16.9494ZM69.6358 19.9214C68.4633 19.9214 67.4363 19.6942 66.4729 19.2579C65.5186 18.8217 64.8097 18.1309 64.2735 17.2766C63.7372 16.395 63.4646 15.2771 63.4646 13.9229C63.4646 12.7777 63.7372 11.7416 64.2735 10.8418C64.8097 9.88752 65.5641 9.17861 66.6274 8.58785C67.6544 8.02435 68.8814 7.75169 70.2901 7.75169C70.4174 7.75169 70.5174 7.75169 70.6264 7.75169C70.7537 7.75169 70.8718 7.77896 71.0627 7.77896V3.14375C71.0627 3.01651 71.1081 2.97107 71.2354 2.97107H74.1892C74.271 2.97107 74.3346 3.01651 74.3346 3.11649V17.013C74.3346 17.2857 74.3346 17.5765 74.3619 17.8946C74.3891 18.2309 74.3891 18.5036 74.4437 18.7308C74.4437 18.858 74.3982 18.9035 74.271 18.958C73.4621 19.2943 72.6532 19.5397 71.8716 19.6851C71.1354 19.8214 70.381 19.9214 69.6358 19.9214ZM81.9509 10.4783C81.5146 10.4783 81.0965 10.6237 80.7239 10.8691C80.3513 11.1145 80.0877 11.5053 79.8696 12.0143C79.6424 12.496 79.5515 13.0958 79.5515 13.8229C79.5515 14.5046 79.6787 15.0953 79.8696 15.6134C80.0604 16.0951 80.3513 16.495 80.7512 16.7858C81.142 17.0766 81.5873 17.2039 82.1236 17.2039C82.5598 17.2039 82.9779 17.0585 83.3505 16.8131C83.7232 16.5677 84.014 16.1769 84.2049 15.6679C84.3957 15.1498 84.523 14.5409 84.523 13.832C84.523 13.1958 84.4412 12.6323 84.2776 12.1415C84.1049 11.6598 83.8413 11.2054 83.4687 10.9145C83.0779 10.6237 82.5598 10.4783 81.9509 10.4783ZM82.0963 7.75169C83.0506 7.75169 83.8867 7.92438 84.5957 8.23339C85.2773 8.56967 85.8863 9.0241 86.3861 9.57851C86.8496 10.142 87.2405 10.7782 87.4677 11.5144C87.7131 12.2415 87.8403 12.9867 87.8403 13.7866C87.8403 15.0135 87.5949 16.0587 87.0859 16.9948C86.6043 17.931 85.9135 18.6399 85.0501 19.1398C84.1958 19.676 83.196 19.9305 82.0327 19.9305C81.0329 19.9305 80.1786 19.7578 79.4333 19.3942C78.7062 19.058 78.0882 18.5854 77.6247 18.0037C77.1612 17.422 76.7885 16.7767 76.5704 16.0496C76.3432 15.3225 76.1978 14.6136 76.1978 13.8229C76.1978 12.6959 76.4432 11.7234 76.9249 10.7873C77.3884 9.85117 78.07 9.14226 78.9607 8.58785C79.8696 8.02435 80.8966 7.75169 82.0963 7.75169ZM97.2561 13.6593C97.2561 12.9777 97.1107 12.3869 96.8653 11.8961C96.6199 11.4326 96.2837 11.0872 95.8383 10.8691C95.4021 10.6419 94.884 10.5328 94.366 10.5328C93.9751 10.5328 93.7025 10.5601 93.5116 10.5783C93.3208 10.6055 93.139 10.6601 92.9754 10.7237V17.113C93.1208 17.1403 93.248 17.1584 93.4116 17.1948C93.5571 17.2221 93.7297 17.2221 93.8479 17.2221C94.4568 17.2221 95.0203 17.0766 95.5111 16.8312C95.9928 16.5859 96.4472 16.195 96.7563 15.6861C97.0925 15.1226 97.2561 14.4591 97.2561 13.6593ZM89.8671 2.98925H92.7391C92.9118 2.98925 92.9663 3.03469 92.9663 3.18011V8.00618C93.2844 7.92438 93.6025 7.86076 93.9479 7.81531C94.2842 7.76987 94.6113 7.73352 94.9476 7.73352C96.1201 7.73352 97.1289 7.97891 97.9651 8.48787C98.8012 8.96957 99.4374 9.66031 99.9191 10.4874C100.383 11.3235 100.601 12.2778 100.601 13.323C100.601 14.4046 100.41 15.3771 100.019 16.186C99.6283 17.0221 99.083 17.6765 98.4286 18.2218C97.7651 18.758 97.0107 19.1761 96.1564 19.4488C95.3203 19.7214 94.4659 19.8668 93.5571 19.8668C92.9209 19.8668 92.3119 19.8214 91.703 19.7214C91.094 19.6396 90.476 19.4942 89.8943 19.3034C89.8125 19.2761 89.7489 19.1761 89.7489 19.0761V3.15284C89.7217 3.03469 89.7762 2.98925 89.8671 2.98925ZM105.218 12.4051H108.326C108.717 12.4051 108.99 12.4051 109.162 12.4051C109.335 12.4051 109.48 12.3778 109.499 12.3778C109.499 12.3505 109.499 12.3324 109.499 12.296C109.499 12.2597 109.499 12.2506 109.499 12.2142C109.499 12.0688 109.471 11.8961 109.417 11.678C109.371 11.4871 109.244 11.2599 109.08 11.069C108.908 10.8418 108.708 10.6782 108.472 10.5328C108.226 10.3874 107.89 10.342 107.49 10.342C107.026 10.342 106.636 10.4692 106.29 10.6601C105.954 10.8873 105.727 11.1236 105.563 11.4508C105.39 11.7416 105.29 12.0597 105.218 12.4051ZM109.844 14.6772H105.218C105.263 15.1135 105.409 15.5316 105.654 15.9042C105.899 16.2768 106.263 16.5677 106.736 16.7858C107.199 17.013 107.863 17.1221 108.59 17.1221C109.126 17.1221 109.617 17.0766 110.08 16.9767C110.544 16.8949 111.035 16.7494 111.471 16.5586C111.553 16.5131 111.616 16.5313 111.616 16.6858V18.9125C111.616 18.9943 111.616 19.058 111.589 19.0852C111.562 19.1125 111.543 19.167 111.444 19.2125C111.007 19.4397 110.462 19.6033 109.898 19.6942C109.335 19.8214 108.653 19.8668 107.844 19.8668C106.717 19.8668 105.809 19.6942 105.036 19.3306C104.282 18.9943 103.664 18.5217 103.2 17.9582C102.737 17.3766 102.391 16.7313 102.173 16.0224C101.946 15.3407 101.855 14.6045 101.855 13.8774C101.855 13.0685 102 12.2869 102.246 11.5235C102.491 10.76 102.855 10.1057 103.327 9.54216C103.791 8.96048 104.382 8.51514 105.118 8.16977C105.799 7.83349 106.663 7.68807 107.572 7.68807C108.453 7.68807 109.217 7.83349 109.844 8.12433C110.48 8.44243 110.989 8.80598 111.407 9.35129C111.798 9.83299 112.089 10.4056 112.261 10.9963C112.434 11.578 112.534 12.196 112.534 12.7595C112.534 13.1322 112.534 13.423 112.507 13.7411C112.48 14.0592 112.461 14.2046 112.425 14.35C112.398 14.4773 112.343 14.5227 112.234 14.5409C112.107 14.5682 111.962 14.5682 111.753 14.5864C111.525 14.6136 111.271 14.6136 110.916 14.6136C110.616 14.6772 110.262 14.6772 109.844 14.6772ZM123.295 19.9214C122.441 19.9214 121.65 19.8396 120.923 19.6942C120.196 19.5487 119.632 19.3215 119.114 19.0852C118.987 19.0398 118.942 18.8944 118.942 18.6944V15.886C118.942 15.8406 118.969 15.7588 118.987 15.7406C119.005 15.7224 119.069 15.7133 119.132 15.7406C119.796 16.1587 120.505 16.4677 121.214 16.6767C121.941 16.8676 122.65 16.9948 123.395 16.9948C124.277 16.9948 124.94 16.8494 125.331 16.5768C125.722 16.3041 125.913 15.9678 125.913 15.5497C125.913 15.3044 125.867 15.0862 125.722 14.8681C125.576 14.6409 125.349 14.45 125.058 14.2319C124.74 14.0047 124.331 13.8138 123.786 13.5957L122.613 13.114C121.659 12.6959 120.923 12.2778 120.359 11.8234C119.823 11.3599 119.423 10.8691 119.214 10.3329C118.996 9.76937 118.905 9.17861 118.905 8.56058C118.905 7.72443 119.132 6.94281 119.541 6.25207C119.96 5.57042 120.596 5.0251 121.432 4.60702C122.268 4.18895 123.286 3.99809 124.54 3.99809C125.267 3.99809 125.958 4.04353 126.622 4.1435C127.285 4.2253 127.794 4.3889 128.212 4.60702C128.294 4.65247 128.357 4.77971 128.357 4.92513V7.56992C128.357 7.61536 128.33 7.65172 128.312 7.71534C128.285 7.7426 128.23 7.7426 128.167 7.71534C127.703 7.44268 127.14 7.25182 126.522 7.13367C125.885 6.98825 125.249 6.9428 124.54 6.9428C124.104 6.9428 123.731 6.97007 123.395 7.07005C123.077 7.15184 122.832 7.24273 122.641 7.38815C122.45 7.53357 122.304 7.66081 122.223 7.8244C122.123 8.00618 122.05 8.19704 122.05 8.36972C122.05 8.61511 122.095 8.83324 122.241 9.03319C122.386 9.22405 122.613 9.424 122.922 9.64213C123.259 9.83299 123.713 10.0602 124.295 10.3056L125.149 10.6782C126.203 11.0963 127.003 11.5598 127.567 12.0506C128.148 12.5141 128.548 13.0504 128.794 13.6139C129.021 14.1774 129.166 14.759 129.166 15.3771C129.166 16.3314 128.921 17.1403 128.439 17.831C127.958 18.5126 127.267 19.058 126.403 19.4488C125.576 19.7214 124.522 19.9214 123.295 19.9214ZM136.901 17.322V19.2761C136.901 19.4488 136.855 19.5487 136.728 19.5942C136.392 19.7214 136.065 19.7851 135.747 19.8396C135.41 19.885 135.065 19.9214 134.62 19.9214C133.593 19.9214 132.784 19.6487 132.22 19.1125C131.657 18.5763 131.384 17.7219 131.384 16.5495V10.6964H129.984C129.839 10.6691 129.793 10.6146 129.793 10.4692V8.16977C129.793 8.02435 129.875 7.94256 130.021 7.94256H131.439C131.466 7.6699 131.466 7.36088 131.484 6.98825C131.511 6.61561 131.511 6.26116 131.566 5.93397C131.593 5.59769 131.648 5.29776 131.693 5.09781C131.72 5.05237 131.72 4.97057 131.775 4.95239C131.802 4.92513 131.857 4.90695 131.92 4.8706L134.665 4.50705C134.71 4.47978 134.792 4.47978 134.81 4.50705C134.838 4.53432 134.856 4.55249 134.856 4.65247C134.829 5.0251 134.81 5.5068 134.774 6.12483C134.747 6.73377 134.729 7.35179 134.729 7.93347H136.928C137.073 7.93347 137.119 7.97891 137.119 8.12433V10.4965C137.119 10.5783 137.073 10.6419 136.946 10.6691H134.756V15.7043C134.756 16.2405 134.838 16.5859 135.029 16.8494C135.201 17.0948 135.51 17.2221 136.028 17.2221C136.174 17.2221 136.301 17.2221 136.419 17.1948C136.546 17.1675 136.664 17.1675 136.81 17.113C136.855 17.113 136.892 17.113 136.937 17.1403C136.946 17.1584 136.901 17.2493 136.901 17.322ZM143.581 10.4783C143.145 10.4783 142.727 10.6237 142.354 10.8691C141.981 11.1145 141.718 11.5053 141.5 12.0143C141.272 12.496 141.182 13.0958 141.182 13.8229C141.182 14.5046 141.309 15.0953 141.5 15.6134C141.69 16.1314 141.981 16.495 142.381 16.7858C142.772 17.0766 143.217 17.2039 143.754 17.2039C144.19 17.2039 144.608 17.0585 144.981 16.8131C145.353 16.5677 145.644 16.1769 145.835 15.6679C146.026 15.1862 146.153 14.5409 146.153 13.832C146.153 13.1958 146.071 12.6323 145.908 12.1415C145.735 11.6598 145.471 11.2054 145.099 10.9145C144.708 10.6237 144.19 10.4783 143.581 10.4783ZM143.726 7.75169C144.681 7.75169 145.517 7.92438 146.226 8.23339C146.907 8.56967 147.516 9.0241 148.016 9.57851C148.48 10.142 148.871 10.7782 149.098 11.5144C149.343 12.2415 149.47 12.9867 149.47 13.7866C149.47 15.0135 149.225 16.0587 148.716 16.9948C148.234 17.931 147.544 18.6399 146.68 19.1398C145.826 19.676 144.826 19.9305 143.663 19.9305C142.663 19.9305 141.809 19.7578 141.063 19.3942C140.336 19.058 139.718 18.5854 139.255 18.0037C138.791 17.422 138.419 16.7767 138.2 16.0496C137.973 15.3225 137.828 14.6136 137.828 13.8229C137.828 12.6959 138.073 11.7234 138.555 10.7873C139.037 9.85117 139.7 9.14226 140.591 8.58785C141.5 8.02435 142.527 7.75169 143.726 7.75169ZM159.731 16.8858V19.3397C159.731 19.4215 159.704 19.5124 159.604 19.5306C159.213 19.7033 158.813 19.776 158.359 19.8487C157.923 19.8941 157.423 19.9305 156.968 19.9305C156.014 19.9305 155.16 19.7851 154.406 19.4942C153.651 19.1761 152.988 18.7671 152.451 18.2218C151.915 17.6856 151.497 17.0221 151.206 16.2859C150.934 15.5588 150.77 14.7409 150.77 13.8865C150.77 12.7141 151.043 11.6598 151.606 10.7237C152.17 9.78755 152.897 9.07863 153.915 8.52423C154.914 7.988 156.096 7.71534 157.414 7.71534C157.996 7.71534 158.441 7.74261 158.786 7.79714C159.123 7.84258 159.395 7.92438 159.577 7.988C159.659 8.01526 159.722 8.11524 159.722 8.23339L159.695 10.651C159.695 10.7964 159.65 10.8418 159.504 10.8237C159.277 10.7419 159.023 10.651 158.668 10.5964C158.332 10.551 157.941 10.5146 157.523 10.5146C156.859 10.5146 156.278 10.6419 155.76 10.8873C155.278 11.1145 154.824 11.4689 154.533 11.9416C154.215 12.4051 154.096 12.9958 154.096 13.732C154.096 14.5409 154.269 15.168 154.633 15.6679C154.969 16.1314 155.423 16.4768 155.978 16.6949C156.514 16.8858 157.059 17.013 157.596 17.013C158.014 17.013 158.405 16.9858 158.741 16.9676C159.077 16.9403 159.35 16.8858 159.55 16.8222C159.65 16.7404 159.731 16.7585 159.731 16.8858ZM164.885 3.20737V19.4215C164.885 19.5942 164.803 19.6487 164.657 19.6487H161.822C161.649 19.6487 161.595 19.5669 161.595 19.4215V3.18011C161.595 3.13466 161.622 3.09831 161.64 3.03469C161.667 3.00742 161.722 2.98925 161.831 2.98925H164.639C164.785 2.98925 164.885 3.06196 164.885 3.20737ZM169.12 7.97891H172.156C172.237 7.97891 172.301 8.00618 172.328 8.06071C172.356 8.10615 172.328 8.18795 172.301 8.23339C172.128 8.42425 171.91 8.66965 171.638 8.98775C171.365 9.32403 171.029 9.65122 170.656 10.0693C170.283 10.4601 169.929 10.8782 169.574 11.269C169.202 11.6598 168.893 12.0597 168.575 12.396C168.257 12.7323 168.011 13.0049 167.848 13.2049C167.82 13.2321 167.82 13.2321 167.82 13.2503C167.82 13.2776 167.82 13.2776 167.848 13.2958C168.184 13.7138 168.575 14.1774 168.993 14.7318C169.411 15.268 169.847 15.8133 170.338 16.3768C170.82 16.9403 171.274 17.5038 171.71 18.0219C172.147 18.5581 172.546 19.0489 172.91 19.4579C172.955 19.5033 172.955 19.5397 172.937 19.6033C172.91 19.6487 172.855 19.6851 172.792 19.6851H169.075C168.993 19.6851 168.929 19.6851 168.902 19.6578C168.875 19.6305 168.82 19.6124 168.756 19.5124C168.566 19.2397 168.275 18.8762 167.875 18.3672C167.484 17.8855 167.066 17.3129 166.602 16.7222C166.166 16.1405 165.748 15.577 165.357 15.059C164.966 14.5227 164.676 14.1228 164.421 13.8593C164.376 13.7775 164.294 13.6866 164.294 13.632C164.267 13.5866 164.321 13.4866 164.421 13.4048C164.612 13.1594 164.885 12.8413 165.212 12.4505C165.548 12.0597 165.875 11.6598 166.239 11.2236C166.612 10.7873 166.966 10.3692 167.293 9.95114C167.629 9.53307 167.929 9.16043 168.229 8.82415C168.52 8.48787 168.666 8.26066 168.793 8.1425C168.838 8.06071 168.92 7.99709 168.938 7.99709C168.975 7.99709 169.029 7.97891 169.12 7.97891ZM152.606 23.266H153.751L152.152 28.0284H150.897L149.37 23.266H150.552L151.125 25.2837C151.288 25.8472 151.434 26.3925 151.552 26.9833H151.57C151.688 26.4107 151.843 25.8472 152.006 25.3019L152.606 23.266ZM156.505 23.6114C156.505 23.9113 156.287 24.1476 155.923 24.1476C155.587 24.1476 155.36 23.9113 155.36 23.6114C155.36 23.3024 155.587 23.0751 155.932 23.0751C156.278 23.0751 156.496 23.3024 156.505 23.6114ZM155.396 24.5748H156.478V28.0375H155.396V24.5748ZM162.094 23.0115H161.022V24.8838H161.004C160.849 24.6475 160.522 24.493 160.095 24.493C159.268 24.493 158.541 25.1746 158.55 26.3289C158.55 27.4013 159.213 28.1102 160.031 28.1102C160.477 28.1102 160.895 27.9103 161.113 27.5286H161.131L161.177 28.0375H162.131C162.113 27.8012 162.104 27.3922 162.104 27.0014V23.0115H162.094ZM161.022 26.4925C161.022 26.5743 161.013 26.6652 160.995 26.7379C160.931 27.0378 160.677 27.2559 160.377 27.2559C159.931 27.2559 159.641 26.8833 159.641 26.3016C159.641 25.7563 159.886 25.32 160.386 25.32C160.713 25.32 160.949 25.5563 161.013 25.8472C161.022 25.9108 161.031 25.9835 161.031 26.038V26.4925H161.022ZM165.93 24.493C164.73 24.493 164.185 25.4655 164.185 26.347C164.185 27.4286 164.857 28.1102 166.03 28.1102C166.493 28.1102 166.93 28.0375 167.284 27.8921L167.139 27.165C166.848 27.265 166.548 27.3104 166.184 27.3104C165.685 27.3104 165.239 27.1014 165.212 26.647H167.439C167.457 26.5652 167.475 26.4107 167.475 26.2198C167.475 25.3655 167.048 24.493 165.93 24.493ZM165.203 25.9108C165.23 25.629 165.421 25.211 165.866 25.211C166.357 25.211 166.475 25.6563 166.466 25.9108H165.203ZM171.183 24.493C170.074 24.493 169.338 25.211 169.338 26.3289C169.338 27.4468 170.12 28.1102 171.129 28.1102C172.056 28.1102 172.955 27.5286 172.955 26.2653C172.946 25.2201 172.246 24.493 171.183 24.493ZM171.156 27.3468C170.701 27.3468 170.447 26.9015 170.447 26.3107C170.447 25.8017 170.647 25.2655 171.156 25.2655C171.647 25.2655 171.838 25.7926 171.838 26.3016C171.838 26.9196 171.574 27.3468 171.156 27.3468Z" fill="#0C131F"/>
<path d="M0.262177 25.0291V6.05203C0.262177 5.69757 0.289442 5.32494 0.362152 4.98866C0.434861 4.65238 0.543924 4.28883 0.680254 3.97073C0.816584 3.65263 0.989268 3.31635 1.18922 2.99824C1.38917 2.68014 1.62547 2.41657 1.87087 2.153C2.13444 1.88943 2.41618 1.6713 2.71611 1.47135C3.02512 1.2714 3.34323 1.08963 3.68859 0.971478C4.02487 0.826059 4.37024 0.726084 4.70652 0.644287C5.06098 0.571577 5.40635 0.544312 5.76989 0.544312H25.8831C26.2375 0.544312 26.6101 0.571577 26.9464 0.644287C27.3009 0.726084 27.6462 0.826059 27.9643 0.962389C28.2825 1.09872 28.6096 1.26231 28.9277 1.46226C29.2458 1.66221 29.5094 1.89852 29.773 2.14391C30.0366 2.40748 30.2547 2.68923 30.4546 2.98916C30.6546 3.28908 30.8364 3.60718 30.9545 3.95255C31.0999 4.29792 31.1908 4.6342 31.2726 4.97048C31.3544 5.32494 31.3726 5.6703 31.3726 6.03385V25.02C31.3726 25.3745 31.3453 25.7471 31.2726 26.0834C31.1908 26.4378 31.0908 26.7832 30.9545 27.1013C30.8091 27.4467 30.6546 27.7466 30.4546 28.0647C30.2547 28.3828 30.0184 28.6464 29.773 28.91C29.5094 29.1735 29.2277 29.3917 28.9277 29.5916C28.6278 29.7916 28.3097 29.9733 27.9643 30.0915C27.619 30.2369 27.2827 30.3278 26.9464 30.4096C26.5738 30.5096 26.2375 30.5368 25.874 30.5368H5.77898C5.42452 30.5368 5.05189 30.5096 4.71561 30.4368C4.36115 30.355 4.01578 30.2551 3.69768 30.1187C3.35231 29.9733 3.05239 29.8188 2.73429 29.6189C2.41618 29.4189 2.15261 29.1826 1.88904 28.9372C1.62547 28.6737 1.40735 28.3919 1.2074 28.092C1.00744 27.7921 0.825672 27.474 0.70752 27.1286C0.562102 26.7832 0.471215 26.4469 0.389417 26.1107C0.298531 25.7744 0.262177 25.4199 0.262177 25.0291Z" fill="#0C131F"/>
<path d="M7.0332 21.5482H8.75095L6.18796 28.4374H4.26116L1.82541 21.5482H3.60678L4.552 24.4475C4.83375 25.2927 5.06096 26.0471 5.26091 26.9287H5.27909C5.47904 26.1016 5.74261 25.2836 6.01527 24.4929L7.0332 21.5482ZM9.14176 28.4283H10.7686V23.4295H9.14176V28.4283ZM9.95974 21.2301C9.41442 21.2301 9.08723 21.5845 9.08723 22.0208C9.08723 22.4571 9.41442 22.8115 9.94156 22.8115C10.496 22.8115 10.8232 22.448 10.8232 22.0208C10.8232 21.5755 10.5051 21.2301 9.95974 21.2301ZM17.3579 26.9287C17.3579 27.5285 17.3761 28.1375 17.4033 28.4283H15.9492L15.8855 27.6376H15.8674C15.5129 28.2647 14.8313 28.5464 14.1223 28.5464C12.9045 28.5464 11.7956 27.5921 11.7956 25.9834C11.7866 24.3293 12.9408 23.3023 14.2405 23.3023C14.913 23.3023 15.4584 23.5204 15.7128 23.8931H15.731V21.1119H17.3579V26.9287ZM15.731 25.6199C15.731 25.5381 15.731 25.429 15.7128 25.3382C15.6129 24.8837 15.213 24.5202 14.6677 24.5202C13.8769 24.5202 13.4498 25.1382 13.4498 25.9107C13.4498 26.7196 13.9133 27.2559 14.6586 27.2559C15.1857 27.2559 15.6129 26.8741 15.7038 26.4106C15.731 26.2925 15.731 26.1652 15.731 26.0471V25.6199ZM23.4746 25.8471C23.4746 26.0925 23.4473 26.3288 23.4109 26.4379H19.9118C19.9663 27.0377 20.6662 27.3467 21.4387 27.3467C22.0113 27.3467 22.4748 27.2831 22.9565 27.1195L23.1746 28.2011C22.602 28.4374 21.9386 28.5464 21.2115 28.5464C19.4028 28.5464 18.3576 27.5285 18.3576 25.9744C18.3576 24.8383 19.1211 23.3023 21.0479 23.3023C22.8656 23.3114 23.4746 24.702 23.4746 25.8471ZM21.9567 25.3291C21.9567 25.0473 21.7931 24.3566 20.9843 24.3566C20.2572 24.3566 19.9572 24.9473 19.9027 25.3291H21.9567ZM29.8093 25.8744C29.8093 27.6194 28.4642 28.5555 26.9282 28.5555C25.3832 28.5555 24.1198 27.5831 24.1198 25.9744C24.1198 24.4202 25.2287 23.3114 27.0373 23.3114C28.6914 23.3114 29.8093 24.3839 29.8093 25.8744ZM28.1188 25.9289C28.1188 25.1746 27.7735 24.4566 26.9919 24.4566C26.1648 24.4566 25.8285 25.1837 25.8285 25.938C25.8285 26.7923 26.2648 27.4195 26.9919 27.4195C27.6462 27.4104 28.1188 26.8832 28.1188 25.9289Z" fill="white"/>
<path d="M16.6217 12.3141C16.858 12.9049 16.9762 13.5047 16.9762 14.1955C16.9762 15.1498 16.7126 15.995 16.2127 16.713C15.6947 17.4219 15.0039 17.9945 14.0951 18.3762C13.2044 18.758 12.1138 18.9397 10.8777 18.9397C9.96884 18.9397 9.14178 18.8488 8.4056 18.7034C7.66942 18.558 7.05139 18.349 6.52425 18.1127C6.37883 18.04 6.33339 17.8945 6.33339 17.7037V14.8044C6.33339 14.7317 6.36065 14.7135 6.4061 14.659C6.43336 14.6317 6.49698 14.6317 6.55152 14.6862C7.24225 15.1134 7.95117 15.4224 8.71461 15.6406C9.47806 15.8587 10.2142 15.9496 10.9504 15.9496C11.8775 15.9496 12.55 15.8041 12.9408 15.5224C13.3498 15.2407 13.5316 14.8771 13.5316 14.459C13.5316 14.1773 13.4589 13.941 13.3407 13.7228C13.1953 13.5047 12.9863 13.2957 12.65 13.0776C12.3228 12.8594 11.8865 12.6504 11.3231 12.4323L10.1143 11.9142C9.11451 11.487 8.36015 11.0326 7.77848 10.56C7.21499 10.0874 6.82417 9.56025 6.63331 9.01493C6.41519 8.46962 6.30612 7.86977 6.30612 7.23356C6.30612 6.35196 6.52425 5.54307 6.95142 4.85234C7.40585 4.14342 8.01479 3.57084 8.89638 3.16185C9.7598 2.75286 10.8414 2.54382 12.1229 2.54382C12.8863 2.54382 13.6225 2.58927 14.3132 2.68924C14.9767 2.78013 15.522 2.95281 15.931 3.14367C16.0582 3.21638 16.1037 3.31636 16.1037 3.45269V6.20654C16.1037 6.23381 16.0764 6.27925 16.031 6.29743C16.0037 6.3247 15.9401 6.3247 15.8855 6.27017C15.4129 6.0066 14.8222 5.81573 14.1951 5.65214C13.5498 5.56125 12.8681 5.47945 12.1774 5.47945C11.723 5.47945 11.2958 5.50672 10.9868 5.60669C10.6596 5.69758 10.396 5.79756 10.2051 5.91571C10.0143 6.04295 9.85069 6.19746 9.75072 6.37014C9.65983 6.561 9.6053 6.75186 9.6053 6.93364C9.6053 7.19721 9.67801 7.43351 9.82343 7.62437C9.96884 7.8425 10.2324 8.03336 10.5596 8.2424C10.8868 8.46053 11.3685 8.69683 11.9593 8.95131L12.8681 9.2785C13.9315 9.73294 14.7676 10.1874 15.3584 10.6782C15.9583 11.1871 16.3854 11.7143 16.6217 12.3141ZM25.1741 6.59736H22.9202C22.9383 5.97024 22.9383 5.3613 22.9656 4.71601C22.9929 4.07071 23.011 3.57084 23.0383 3.19821C23.0383 3.13458 23.0201 3.08914 22.9929 3.05279C22.9656 3.02552 22.9202 3.02552 22.8656 3.05279L19.9663 3.40724C19.9209 3.42542 19.8755 3.47086 19.8391 3.49813C19.7937 3.54357 19.7937 3.58902 19.7664 3.64355C19.7482 3.88894 19.7028 4.18887 19.6755 4.55241C19.6301 4.90687 19.6119 5.28859 19.5846 5.65214C19.5392 6.00659 19.5392 6.3247 19.5119 6.60645H18.0668C17.9214 6.60645 17.8487 6.65189 17.8487 6.79731V9.22397C17.8487 9.36939 17.8941 9.4421 18.0396 9.4421H19.4846V15.4497C19.4846 16.6676 19.7937 17.5673 20.3935 18.1127C21.0115 18.658 21.8204 18.9397 22.8838 18.9397C23.311 18.9397 23.7109 18.9216 24.0471 18.8488C24.3743 18.7852 24.7106 18.7034 25.0196 18.6125C25.1287 18.5853 25.2105 18.4671 25.2105 18.3035V16.3131C25.2105 16.2404 25.1923 16.1859 25.156 16.1677C25.1105 16.1132 25.0651 16.1132 25.0105 16.1404C24.8651 16.1404 24.747 16.1677 24.6016 16.1677C24.4743 16.195 24.338 16.195 24.1926 16.195C23.6927 16.195 23.3655 16.0677 23.1746 15.8405C22.9838 15.6042 22.8929 15.1952 22.8929 14.6499V9.43301H25.1923C25.2832 9.40575 25.3196 9.3603 25.3196 9.26033V6.78822C25.3196 6.67007 25.2741 6.59736 25.1741 6.59736Z" fill="white"/>
</g>
<defs>
<clipPath id="clip0_6583_25615">
<rect width="172.684" height="29.9925" fill="white" transform="translate(0.262177 0.544312)"/>
</clipPath>
</defs>
</svg>
