<svg width="190" height="33" viewBox="0 0 190 33" fill="none" xmlns="http://www.w3.org/2000/svg">
<g clip-path="url(#clip0_144_1027)">
<path d="M33.5743 4.90088C33.4976 4.51453 33.3862 4.13625 33.2413 3.77088C33.1112 3.39041 32.9299 3.03028 32.7026 2.70088C32.4844 2.34544 32.2352 2.01076 31.9583 1.70088C31.6668 1.40367 31.3374 1.14803 30.9789 0.940878C30.6575 0.751113 30.3237 0.584055 29.9799 0.440878C29.6206 0.297442 29.2505 0.183742 28.8732 0.100878C28.4923 0.0275104 28.1051 -0.00599636 27.7176 0.00087803H5.9557C5.56835 -0.000578634 5.18163 0.0328846 4.80003 0.100878C4.42456 0.182559 4.05734 0.299731 3.70313 0.450878C3.33175 0.593791 2.97701 0.778248 2.6454 1.00088C2.31703 1.2258 2.00894 1.48014 1.72478 1.76088C1.43733 2.0395 1.18707 2.35555 0.980447 2.70088C0.774517 3.04814 0.5913 3.40893 0.431993 3.78088C0.295962 4.14938 0.184708 4.52692 0.0990033 4.91088C0.0267387 5.29973 -0.00608078 5.69515 0.00106514 6.09088V27.0909C-0.00684236 27.4871 0.0292994 27.883 0.108797 28.2709C0.182208 28.658 0.293772 29.0366 0.441787 29.4009C0.577319 29.7726 0.758305 30.1254 0.980447 30.4509C1.19811 30.7912 1.44737 31.1093 1.72478 31.4009C2.00226 31.6892 2.31114 31.9442 2.6454 32.1609C2.98781 32.3639 3.34092 32.5475 3.70313 32.7109C4.062 32.8558 4.43221 32.9696 4.80983 33.0509C5.19066 33.1247 5.57793 33.1582 5.9655 33.1509H27.7176C28.1049 33.1528 28.4917 33.1193 28.8732 33.0509C29.2516 32.9726 29.6221 32.8588 29.9799 32.7109C30.3491 32.57 30.7008 32.3854 31.0279 32.1609C31.376 31.938 31.7038 31.6837 32.0073 31.4009C32.2898 31.114 32.5395 30.7953 32.7516 30.4509C32.9505 30.1047 33.1303 29.7475 33.2902 29.3809C33.4294 29.0135 33.5407 28.6357 33.6232 28.2509C33.6947 27.8619 33.7275 27.4666 33.7212 27.0709V6.07088C33.7107 5.67684 33.6615 5.28486 33.5743 4.90088Z" fill="black"/>
<path d="M16.0042 16.6009C15.3095 16.0485 14.5368 15.6068 13.7125 15.2909L12.8996 15.0009C12.4558 14.8151 12.0269 14.5945 11.6166 14.3409C11.3564 14.1986 11.1293 14.0008 10.9506 13.7609C10.8163 13.572 10.7442 13.3443 10.745 13.1109C10.7477 12.9267 10.7912 12.7455 10.8723 12.5809C10.9703 12.4059 11.1123 12.2609 11.2836 12.1609C11.5077 12.031 11.7483 11.9334 11.9986 11.8709C12.3523 11.7926 12.7141 11.759 13.0759 11.7709C13.6956 11.784 14.3139 11.8374 14.9269 11.9309C15.4579 12.0688 15.9733 12.2632 16.4645 12.5109C16.5233 12.5109 16.5723 12.5109 16.6017 12.5109C16.6115 12.511 16.6213 12.5089 16.6304 12.5048C16.6394 12.5006 16.6474 12.4946 16.654 12.487C16.6605 12.4794 16.6653 12.4704 16.6681 12.4607C16.6709 12.4511 16.6716 12.4409 16.6702 12.4309V9.86087C16.6725 9.80367 16.6601 9.74686 16.6343 9.69602C16.6086 9.64517 16.5703 9.60204 16.5233 9.57087C16.0585 9.35242 15.5626 9.21066 15.0542 9.15087C14.4039 9.07414 13.7501 9.03075 13.0955 9.02087C12.0873 9.00369 11.0866 9.20122 10.1573 9.60087C9.40354 9.91993 8.76413 10.4681 8.32588 11.1709C7.93406 11.8454 7.73082 12.6167 7.73826 13.4009C7.72997 13.9758 7.83315 14.5468 8.04186 15.0809C8.26546 15.6468 8.6301 16.1432 9.0996 16.5209C9.74211 17.0499 10.4584 17.478 11.2249 17.7909L12.3316 18.2609C12.7522 18.4182 13.1559 18.6192 13.5362 18.8609C13.7911 19.0116 14.0115 19.2161 14.1826 19.4609C14.2987 19.6678 14.3595 19.9023 14.3589 20.1409C14.3611 20.3408 14.3127 20.538 14.2183 20.7132C14.1239 20.8884 13.9868 21.0357 13.8202 21.1409C13.2638 21.4517 12.6309 21.5907 11.9986 21.5409C11.303 21.5448 10.6104 21.4471 9.94186 21.2509C9.25287 21.0405 8.59421 20.7379 7.9831 20.3509C7.93413 20.3009 7.88516 20.3009 7.85578 20.3509C7.8264 20.4009 7.77743 20.4009 7.77743 20.4809V23.2109C7.77297 23.2826 7.78799 23.3541 7.82082 23.4176C7.85366 23.4811 7.90304 23.5342 7.96351 23.5709C8.51308 23.8185 9.08792 24.003 9.67743 24.1209C10.4224 24.2705 11.1806 24.3409 11.9398 24.3309C12.9448 24.3548 13.9442 24.1711 14.8779 23.7909C15.6615 23.4742 16.3408 22.9366 16.8367 22.2409C17.3025 21.5473 17.5424 20.7216 17.5223 19.8809C17.5246 19.2777 17.4115 18.6798 17.1893 18.1209C16.9251 17.5209 16.5176 16.9983 16.0042 16.6009ZM24.9264 12.8009H22.8697C22.8697 12.2209 22.8697 11.6409 22.9285 11.0409C22.9872 10.4409 22.9774 9.97087 23.0068 9.63087C23.0036 9.58162 22.9827 9.53531 22.948 9.50087C22.948 9.50087 22.948 9.50087 22.8501 9.50087L20.2058 9.84087C20.2058 9.84087 20.1372 9.89087 20.1078 9.92087C20.074 9.95881 20.0474 10.0029 20.0295 10.0509C20.0295 10.2609 19.9805 10.5409 19.9609 10.8909L19.8826 11.8909C19.8336 12.2309 19.8336 12.5209 19.8042 12.7809H18.5017C18.3645 12.7809 18.296 12.7809 18.296 12.9609V15.2209C18.296 15.3509 18.345 15.4309 18.4723 15.4309H19.7846V21.0009C19.7354 21.4504 19.7797 21.9055 19.9147 22.3364C20.0497 22.7672 20.2724 23.1641 20.5682 23.5009C21.198 24.0594 22.0175 24.343 22.8501 24.2909C23.2046 24.3091 23.5599 24.2822 23.9078 24.2109C24.2091 24.161 24.5069 24.0909 24.7991 24.0009C24.8585 23.9825 24.9097 23.9434 24.9437 23.8904C24.9778 23.8374 24.9924 23.7738 24.9852 23.7109V21.8509C24.9852 21.8009 24.9852 21.7409 24.848 21.7209C24.7109 21.7009 24.7697 21.6609 24.7109 21.7209C24.6522 21.7809 24.4857 21.7209 24.3584 21.7209C24.238 21.7358 24.1163 21.7358 23.996 21.7209C23.8273 21.7401 23.6565 21.7194 23.4969 21.6605C23.3372 21.6015 23.193 21.5058 23.0754 21.3809C22.8723 21.0534 22.7794 20.6672 22.8109 20.2809V15.4509H24.9264C24.9582 15.4397 24.9853 15.4177 25.0031 15.3886C25.0209 15.3594 25.0284 15.325 25.0243 15.2909V13.0009C25.0368 12.9611 25.0336 12.9179 25.0153 12.8805C24.997 12.8431 24.9651 12.8145 24.9264 12.8009Z" fill="white"/>
<path d="M60.1644 10.3009C60.153 10.2612 60.1278 10.2271 60.0935 10.205C60.0593 10.1829 60.0183 10.1743 59.9783 10.1809H56.5407C56.4623 10.1809 56.4134 10.2309 56.4134 10.3309C56.4229 10.6236 56.3932 10.9163 56.3252 11.2009C56.2917 11.337 56.2492 11.4706 56.1979 11.6009L51.9082 23.5309C51.9082 23.6609 51.9082 23.7409 52.0943 23.7409H54.5525C54.6075 23.745 54.6622 23.7292 54.707 23.6963C54.7517 23.6634 54.7837 23.6154 54.7974 23.5609L55.8257 20.5009H60.7226L61.8489 23.6409C61.8489 23.7409 61.9273 23.7909 62.0546 23.7909H64.8556C64.9634 23.7909 65.0123 23.7109 64.9634 23.5909L60.1644 10.3009ZM56.5896 17.9209C56.8051 17.3609 57.0108 16.7809 57.2262 16.1709C57.4417 15.5609 57.6474 14.8909 57.8335 14.2509C58.0195 13.6109 58.1469 13.0809 58.284 12.6209C58.3623 12.9609 58.4603 13.2909 58.568 13.6209C58.6757 13.9509 58.7835 14.3609 58.9108 14.7409C59.0381 15.1209 59.1556 15.5309 59.2829 15.9109C59.4103 16.2909 59.4984 16.6809 59.6257 17.0109C59.7522 17.3069 59.8602 17.6109 59.9489 17.9209H56.5896ZM75.4134 21.3709V9.13088C75.4232 9.10828 75.4253 9.08295 75.4193 9.05897C75.4134 9.035 75.3996 9.01379 75.3804 8.99876C75.3611 8.98373 75.3375 8.97576 75.3133 8.97615C75.289 8.97653 75.2656 8.98525 75.2469 9.00088H72.4752C72.4575 9.00205 72.4403 9.00697 72.4246 9.01533C72.4089 9.02368 72.3951 9.03528 72.384 9.0494C72.373 9.06352 72.3649 9.07983 72.3604 9.09731C72.3558 9.11478 72.3549 9.13303 72.3577 9.15088V13.2309H71.9561H71.6427C70.4826 13.2042 69.3324 13.4542 68.2835 13.9609C67.4064 14.383 66.6647 15.0507 66.1446 15.8862C65.6245 16.7217 65.3473 17.6909 65.3453 18.6809C65.3098 19.7327 65.568 20.7732 66.0897 21.6809C66.5628 22.4456 67.2433 23.0536 68.0484 23.4309C68.9758 23.838 69.9773 24.0391 70.9866 24.0209C71.6782 24.0196 72.3677 23.9425 73.0433 23.7909C73.7971 23.654 74.5354 23.4396 75.2469 23.1509C75.3448 23.1009 75.4036 23.0409 75.4036 22.9509C75.3533 22.7075 75.327 22.4596 75.3252 22.2109C75.3395 21.9294 75.3689 21.649 75.4134 21.3709ZM72.4752 21.3709C72.337 21.4157 72.1964 21.4524 72.0541 21.4809C71.8748 21.496 71.6947 21.496 71.5154 21.4809C71.1292 21.4913 70.7443 21.4304 70.3793 21.3009C70.0479 21.1861 69.7418 21.0061 69.4783 20.7709C69.2158 20.5124 69.0119 20.1984 68.8809 19.8509C68.7319 19.4346 68.6589 18.994 68.6654 18.5509C68.6464 17.9772 68.7928 17.4104 69.0866 16.9209C69.3473 16.5225 69.7096 16.2044 70.1345 16.0009C70.6045 15.7704 71.1215 15.6573 71.6427 15.6709C71.7827 15.656 71.9239 15.656 72.0639 15.6709C72.1825 15.6714 72.2996 15.6987 72.4067 15.7509L72.4752 21.3709ZM86.451 14.8709C85.9467 14.3354 85.3366 13.9158 84.6611 13.6399C83.9856 13.364 83.2603 13.2382 82.5335 13.2709C81.5308 13.2361 80.5391 13.4927 79.6737 14.0109C78.8949 14.4686 78.2545 15.1363 77.8226 15.9409C77.3766 16.7601 77.1471 17.6837 77.1567 18.6209C77.162 19.3032 77.2812 19.9795 77.5092 20.6209C77.7003 21.283 78.0307 21.8945 78.4772 22.4127C78.9238 22.9309 79.4759 23.3432 80.0948 23.6209C80.8512 23.9427 81.6652 24.0994 82.4845 24.0809C83.4435 24.0702 84.3827 23.8012 85.2072 23.3009C85.9887 22.8614 86.6335 22.2065 87.068 21.4109C87.5446 20.5525 87.7817 19.5772 87.7536 18.5909C87.7458 17.9097 87.63 17.2343 87.4108 16.5909C87.1992 15.9429 86.8478 15.3516 86.3824 14.8609L86.451 14.8709ZM84.4922 20.2309C84.3429 20.6444 84.064 20.9959 83.6989 21.2309C83.3658 21.4406 82.9835 21.5546 82.5922 21.5609C82.1319 21.5968 81.6731 21.4735 81.2896 21.2109C80.9288 20.9632 80.6436 20.6166 80.467 20.2109C80.2726 19.7078 80.1729 19.1717 80.1732 18.6309C80.1528 18.0883 80.2533 17.5481 80.467 17.0509C80.6364 16.6495 80.9109 16.3035 81.2603 16.0509C81.5921 15.8384 81.9753 15.7241 82.367 15.7209C82.837 15.6581 83.3133 15.7714 83.7078 16.0399C84.1022 16.3083 84.3878 16.7137 84.5118 17.1809C84.6559 17.6604 84.7286 18.1593 84.7273 18.6609C84.7157 19.1979 84.6026 19.7276 84.3943 20.2209L84.4922 20.2309ZM96.9598 13.9009C96.1176 13.4302 95.1672 13.1989 94.2077 13.2309C93.8796 13.23 93.5521 13.2568 93.2283 13.3109C92.9247 13.3109 92.6309 13.4109 92.3273 13.4909V9.23088C92.3273 9.10088 92.3273 9.05088 92.1216 9.05088H89.5556C89.4773 9.05088 89.4283 9.05088 89.4773 9.18088V23.1809C89.4735 23.2254 89.4851 23.2698 89.5102 23.3063C89.5353 23.3429 89.5722 23.3693 89.6144 23.3809C90.1504 23.541 90.697 23.6613 91.25 23.7409C91.8116 23.8194 92.3774 23.8628 92.9443 23.8709C93.7507 23.8727 94.5529 23.7513 95.3242 23.5109C96.0799 23.2851 96.7897 22.9227 97.4201 22.4409C98.051 21.9859 98.565 21.3821 98.9185 20.6809C99.282 19.89 99.463 19.0244 99.4474 18.1509C99.461 17.2753 99.2445 16.4121 98.8206 15.6509C98.356 14.9156 97.7156 14.3133 96.9598 13.9009ZM95.8433 20.2409C95.5706 20.6823 95.175 21.0305 94.7072 21.2409C94.234 21.463 93.7197 21.5789 93.1989 21.5809C93.0653 21.5908 92.931 21.5908 92.7974 21.5809L92.4056 21.5009V15.8609C92.5564 15.7977 92.7143 15.7541 92.8757 15.7309C93.1391 15.6993 93.4039 15.6826 93.669 15.6809C94.1311 15.6827 94.5866 15.7921 95.001 16.0009C95.421 16.1789 95.7673 16.5007 95.9804 16.9109C96.2058 17.3987 96.3229 17.9314 96.3232 18.4709C96.3443 19.0957 96.1804 19.7125 95.8531 20.2409H95.8433ZM109.212 14.6709C108.817 14.215 108.329 13.8532 107.782 13.6109C106.379 13.0823 104.834 13.1001 103.443 13.6609C102.826 13.9181 102.281 14.3269 101.857 14.8509C101.428 15.3721 101.097 15.9684 100.877 16.6109C100.662 17.2794 100.546 17.9772 100.534 18.6809C100.524 19.3203 100.624 19.9565 100.828 20.5609C101.046 21.1888 101.379 21.7689 101.808 22.2709C102.287 22.7842 102.863 23.1925 103.502 23.4709C104.318 23.7983 105.191 23.9547 106.068 23.9309C106.698 23.9414 107.328 23.8912 107.948 23.7809C108.432 23.6967 108.903 23.5488 109.349 23.3409C109.404 23.3231 109.452 23.2881 109.486 23.2409C109.486 23.2409 109.486 23.1709 109.486 23.0909V21.0909C109.486 20.9709 109.486 20.9409 109.359 20.9909C108.946 21.1516 108.52 21.2722 108.086 21.3509C107.64 21.4347 107.187 21.4782 106.734 21.4809C106.154 21.4983 105.577 21.3928 105.04 21.1709C104.646 21.0084 104.306 20.7343 104.06 20.3809C103.846 20.0615 103.708 19.6948 103.659 19.3109H108.712C108.967 19.3259 109.222 19.3259 109.476 19.3109L109.927 19.2609C109.972 19.2525 110.013 19.231 110.046 19.1991C110.079 19.1671 110.102 19.1261 110.113 19.0809C110.153 18.9034 110.18 18.7228 110.191 18.5409C110.207 18.2544 110.207 17.9673 110.191 17.6809C110.191 17.1517 110.112 16.6256 109.956 16.1209C109.797 15.5972 109.548 15.1063 109.222 14.6709H109.212ZM107.547 17.3109C107.439 17.3208 107.331 17.3208 107.224 17.3109H103.6C103.659 17.0104 103.775 16.7249 103.943 16.4709C104.102 16.1851 104.331 15.9472 104.609 15.7809C104.936 15.5883 105.309 15.4915 105.686 15.5009C105.962 15.4786 106.239 15.5252 106.493 15.6367C106.747 15.7482 106.971 15.9212 107.145 16.1409C107.291 16.2882 107.399 16.4704 107.459 16.6709C107.508 16.8196 107.537 16.9743 107.547 17.1309V17.3109ZM124.04 16.9409C123.361 16.4303 122.612 16.0259 121.816 15.7409L121.023 15.4109C120.494 15.1809 120.103 15.0009 119.779 14.8309C119.544 14.6818 119.329 14.5001 119.143 14.2909C119.022 14.1231 118.96 13.9189 118.966 13.7109C118.974 13.5497 119.018 13.3923 119.094 13.2509C119.172 13.0851 119.304 12.9513 119.466 12.8709C119.674 12.7327 119.907 12.6375 120.152 12.5909C120.499 12.513 120.854 12.4794 121.209 12.4909C121.824 12.4809 122.439 12.5412 123.041 12.6709C123.567 12.7588 124.076 12.9309 124.549 13.1809C124.57 13.1908 124.594 13.196 124.617 13.196C124.641 13.196 124.664 13.1908 124.686 13.1809C124.686 13.1809 124.735 13.1009 124.735 13.0509V10.7309C124.74 10.6758 124.729 10.6206 124.705 10.5712C124.681 10.5218 124.644 10.4801 124.598 10.4509C124.142 10.2285 123.651 10.0897 123.148 10.0409C122.499 9.95914 121.844 9.91906 121.19 9.92088C120.21 9.88682 119.235 10.0675 118.33 10.4509C117.635 10.7619 117.04 11.2682 116.616 11.9109C116.249 12.5116 116.049 13.203 116.038 13.9109C116.037 14.4421 116.137 14.9685 116.332 15.4609C116.586 15.9687 116.947 16.4127 117.39 16.7609C118.027 17.2735 118.733 17.691 119.486 18.0009L120.573 18.4309C120.978 18.5788 121.368 18.7664 121.738 18.9909C121.967 19.1453 122.172 19.3341 122.345 19.5509C122.464 19.7353 122.528 19.9504 122.531 20.1709C122.529 20.3566 122.479 20.5384 122.386 20.6981C122.293 20.8578 122.161 20.9898 122.003 21.0809C121.453 21.3583 120.841 21.4825 120.23 21.4409C119.568 21.4308 118.91 21.3368 118.271 21.1609C117.605 20.9753 116.966 20.6995 116.371 20.3409C116.35 20.3309 116.326 20.3258 116.303 20.3258C116.279 20.3258 116.256 20.3309 116.234 20.3409C116.221 20.3831 116.221 20.4286 116.234 20.4709V22.9409C116.224 23.0057 116.233 23.0721 116.261 23.1311C116.289 23.1901 116.335 23.2389 116.391 23.2709C116.911 23.5208 117.461 23.7023 118.026 23.8109C118.742 23.9525 119.471 24.0196 120.2 24.0109C121.172 24.0206 122.138 23.8512 123.05 23.5109C123.766 23.1754 124.384 22.6549 124.843 22.0009C125.294 21.377 125.525 20.6158 125.499 19.8409C125.497 19.3016 125.38 18.7692 125.156 18.2809C124.902 17.747 124.522 17.2864 124.049 16.9409H124.04ZM132.59 13.4109H130.631C130.631 12.9009 130.631 12.4109 130.631 11.8309C130.631 11.2509 130.69 10.8309 130.719 10.5309C130.72 10.5075 130.715 10.4842 130.705 10.4632C130.694 10.4423 130.679 10.4243 130.66 10.4109C130.642 10.3971 130.619 10.3896 130.597 10.3896C130.574 10.3896 130.551 10.3971 130.533 10.4109L128.016 10.7109C127.97 10.7316 127.927 10.7585 127.889 10.7909C127.83 10.7909 127.83 10.8609 127.8 10.9209C127.771 10.9809 127.732 11.3509 127.703 11.6509C127.673 11.9509 127.654 12.2409 127.624 12.5709C127.595 12.9009 127.624 13.1809 127.624 13.4109H126.243C126.218 13.4121 126.193 13.4186 126.17 13.43C126.147 13.4413 126.127 13.4574 126.111 13.477C126.094 13.4967 126.082 13.5196 126.074 13.5443C126.067 13.5691 126.064 13.5951 126.067 13.6209V15.6209C126.067 15.7509 126.116 15.8009 126.253 15.8209H127.526V21.0009C127.494 21.4126 127.545 21.8267 127.676 22.2173C127.808 22.6079 128.017 22.9666 128.29 23.2709C128.904 23.7876 129.69 24.042 130.484 23.9809C130.832 23.9845 131.179 23.9577 131.522 23.9009C131.826 23.8699 132.125 23.8028 132.413 23.7009C132.467 23.6793 132.513 23.6402 132.543 23.5896C132.573 23.539 132.586 23.4797 132.58 23.4209V21.7009C132.58 21.6209 132.58 21.5409 132.58 21.5509C132.58 21.5609 132.58 21.5509 132.482 21.5509C132.37 21.588 132.256 21.6148 132.139 21.6309C132.025 21.6458 131.91 21.6458 131.796 21.6309C131.627 21.6514 131.455 21.6324 131.294 21.5752C131.133 21.5181 130.986 21.4243 130.866 21.3009C130.691 20.9993 130.609 20.6508 130.631 20.3009V15.8309H132.668C132.776 15.8309 132.825 15.7609 132.825 15.6809V13.5909C132.786 13.4609 132.737 13.4109 132.599 13.4109H132.59ZM142.726 14.8609C142.222 14.3254 141.612 13.9058 140.936 13.6299C140.261 13.354 139.536 13.2282 138.809 13.2609C137.806 13.2261 136.814 13.4827 135.949 14.0009C135.175 14.4646 134.536 15.1308 134.098 15.9309C133.65 16.7489 133.424 17.6739 133.442 18.6109C133.438 19.2931 133.554 19.9705 133.785 20.6109C133.982 21.2573 134.316 21.8514 134.764 22.3509C135.216 22.8785 135.778 23.2954 136.409 23.5709C137.162 23.8939 137.973 24.0506 138.789 24.0309C139.75 24.051 140.699 23.8131 141.541 23.3409C142.32 22.9008 142.961 22.2458 143.392 21.4509C143.869 20.5925 144.106 19.6172 144.078 18.6309C144.076 17.9492 143.96 17.2728 143.735 16.6309C143.537 15.9713 143.196 15.3662 142.736 14.8609H142.726ZM140.767 20.2209C140.618 20.6344 140.339 20.9859 139.974 21.2209C139.641 21.4306 139.259 21.5446 138.867 21.5509C138.426 21.5691 137.99 21.443 137.624 21.1909C137.258 20.9484 136.972 20.6003 136.801 20.1909C136.605 19.6885 136.509 19.1515 136.517 18.6109C136.489 18.0687 136.586 17.5274 136.801 17.0309C136.97 16.6295 137.245 16.2835 137.594 16.0309C137.929 15.8166 138.316 15.7023 138.711 15.7009C139.179 15.6505 139.65 15.7689 140.041 16.0355C140.433 16.3021 140.721 16.7002 140.856 17.1609C140.996 17.6409 141.066 18.1398 141.061 18.6409C141.058 19.1833 140.952 19.72 140.748 20.2209H140.767ZM153.264 21.2209C153.024 21.2892 152.778 21.3328 152.53 21.3509C152.207 21.3509 151.844 21.4009 151.472 21.4009C150.967 21.394 150.467 21.2993 149.993 21.1209C149.513 20.9292 149.091 20.6119 148.769 20.2009C148.427 19.7017 148.261 19.0988 148.299 18.4909C148.262 17.9351 148.399 17.3816 148.691 16.9109C148.967 16.5061 149.351 16.1904 149.797 16.0009C150.305 15.7673 150.857 15.6545 151.413 15.6709C151.767 15.6643 152.121 15.6877 152.471 15.7409C152.736 15.7814 152.995 15.8518 153.245 15.9509C153.372 15.9509 153.431 15.9509 153.431 15.7909V13.6609C153.434 13.6166 153.424 13.5725 153.401 13.5348C153.378 13.497 153.344 13.4677 153.304 13.4509C153.073 13.3617 152.833 13.3012 152.589 13.2709C152.177 13.2127 151.761 13.1893 151.345 13.2009C150.238 13.1823 149.142 13.4253 148.142 13.9109C147.279 14.3516 146.548 15.0218 146.027 15.8509C145.503 16.6742 145.233 17.6393 145.253 18.6209C145.258 19.3467 145.395 20.0653 145.655 20.7409C145.907 21.3882 146.295 21.9716 146.791 22.4509C147.317 22.9366 147.928 23.3166 148.593 23.5709C149.35 23.8322 150.144 23.9607 150.943 23.9509C151.369 23.9491 151.794 23.9224 152.216 23.8709C152.604 23.8215 152.985 23.7276 153.353 23.5909C153.386 23.576 153.414 23.5503 153.431 23.5177C153.449 23.4852 153.456 23.4477 153.45 23.4109V21.2909C153.45 21.1909 153.372 21.1609 153.245 21.2609L153.264 21.2209ZM165.516 23.6109C165.193 23.2609 164.831 22.8009 164.429 22.3409C164.028 21.8809 163.636 21.3409 163.186 20.8809C162.735 20.4209 162.343 19.8809 161.971 19.4209C161.599 18.9609 161.227 18.5109 160.913 18.1509C160.913 18.1509 160.913 18.1509 160.913 18.1009C161.07 17.9209 161.286 17.6909 161.57 17.3909C161.854 17.0909 162.157 16.7209 162.549 16.3909C162.941 16.0609 163.186 15.6809 163.528 15.3909C163.871 15.1009 164.184 14.7509 164.429 14.4509L165.037 13.7809C165.049 13.7578 165.055 13.732 165.055 13.7059C165.055 13.6797 165.049 13.654 165.037 13.6309C165.02 13.6048 164.996 13.5836 164.969 13.5696C164.941 13.5556 164.911 13.5491 164.88 13.5509H162.108C162.038 13.5303 161.963 13.5303 161.893 13.5509C161.893 13.5509 161.814 13.6009 161.765 13.6809C161.716 13.7609 161.521 13.9909 161.256 14.2909C160.992 14.5909 160.727 14.9309 160.414 15.2909C160.1 15.6509 159.807 16.0309 159.434 16.4109C159.062 16.7909 158.808 17.1509 158.455 17.4809L158.191 17.8009V9.25088C158.189 9.2237 158.183 9.19705 158.171 9.17257C158.16 9.14808 158.143 9.12628 158.123 9.1085C158.103 9.09071 158.079 9.07731 158.054 9.06913C158.029 9.06094 158.002 9.05813 157.975 9.06088H155.409C155.349 9.03786 155.283 9.03786 155.223 9.06088C155.223 9.11088 155.174 9.13088 155.174 9.18088V23.4809C155.174 23.6109 155.233 23.6909 155.39 23.6909H157.975C158.112 23.6909 158.191 23.6309 158.191 23.4809V19.2209C158.318 19.3709 158.445 19.5409 158.592 19.7309L159.728 21.1909C160.149 21.7309 160.551 22.1909 160.894 22.6509C161.237 23.1109 161.53 23.4409 161.707 23.6509C161.748 23.6961 161.794 23.7363 161.844 23.7709C161.844 23.7709 161.922 23.7709 162 23.7709H165.389C165.416 23.773 165.443 23.7663 165.466 23.752C165.488 23.7376 165.506 23.7162 165.516 23.6909C165.516 23.6909 165.516 23.6609 165.516 23.6109Z" fill="black"/>
</g>
<defs>
<clipPath id="clip0_144_1027">
<rect width="190" height="33" fill="white"/>
</clipPath>
</defs>
</svg>
