<svg width="190" height="33" viewBox="0 0 190 33" fill="none" xmlns="http://www.w3.org/2000/svg">
<g clip-path="url(#clip0_144_1026)">
<path fill-rule="evenodd" clip-rule="evenodd" d="M34.1204 4.9C34.0209 4.5 33.9215 4.1 33.822 3.8C33.7225 3.4 33.5236 3.1 33.3246 2.7C33.1257 2.3 32.8272 2 32.5288 1.7C32.2304 1.4 31.9319 1.1 31.534 0.9C31.2356 0.7 30.8377 0.5 30.5393 0.4C30.1414 0.3 29.8429 0.1 29.445 0.1C28.9476 0 28.5497 0 28.1518 0H6.06806C5.67016 0 5.27225 0 4.87435 0.1C4.47644 0.2 4.07853 0.3 3.7801 0.4C3.3822 0.6 2.98429 0.8 2.68586 1C2.28796 1.2 1.98953 1.5 1.6911 1.8C1.39267 2 1.19372 2.4 0.994764 2.7C0.795812 3 0.596859 3.4 0.397906 3.8C0.298429 4.1 0.198953 4.5 0.0994764 4.9C0 5.3 0 5.7 0 6.1V27.1C0 27.5 0 27.9 0.0994764 28.3C0.198953 28.7 0.298429 29.1 0.397906 29.4C0.497382 29.8 0.696335 30.1 0.895288 30.5C1.09424 30.8 1.39267 31.2 1.6911 31.5C1.98953 31.8 2.28796 32 2.58639 32.3C2.88482 32.5 3.28272 32.7 3.68063 32.8C4.07853 32.9 4.47644 33 4.87435 33C5.27225 33.1 5.67016 33.1 6.06806 33.1H28.1518C28.5497 33.1 28.9476 33.1 29.3456 33C29.7435 32.9 30.1414 32.8 30.4398 32.7C30.8377 32.6 31.1361 32.4 31.534 32.2C31.9319 32 32.2304 31.7 32.5288 31.4C32.8272 31.1 33.0262 30.8 33.3246 30.4C33.5236 30.1 33.7225 29.7 33.822 29.3C33.9215 28.9 34.1204 28.6 34.1204 28.2C34.2199 27.8 34.2199 27.4 34.2199 27V6C34.2199 5.7 34.1204 5.3 34.1204 4.9Z" fill="black"/>
<path d="M22.3821 13.7C22.3821 12.7 22.3821 11.8 22.1831 10.8C21.9842 9.69999 21.1884 8.69999 20.0941 8.39999C19.0994 8.09999 18.0051 7.89999 17.0104 7.89999C14.9214 8.09999 13.0313 8.49999 11.2407 9.49999C11.2407 9.49999 11.0418 9.49999 11.0418 9.69999C10.4449 9.99999 10.047 9.89999 9.74859 9.19999C9.45016 8.79999 9.35069 8.49999 9.05226 7.99999C8.8533 7.49999 9.05226 7.19999 9.35068 6.89999C9.84807 6.59999 10.1465 6.29999 10.6439 6.09999C12.2355 5.29999 13.8271 4.99999 15.5182 4.79999C16.8114 4.59999 17.9057 4.59999 19.1989 4.79999C20.2931 4.99999 21.5863 5.29999 22.78 5.79999C24.869 6.89999 25.9632 8.69999 26.1622 11.1C26.1622 11.4 26.1622 11.7 26.1622 11.9C26.1622 15.3 26.1622 18.5 26.1622 21.9C26.1622 23.5 26.3612 25.1 26.6596 26.8C26.8585 27.4 26.6596 27.8 26.0627 27.9C25.4659 28.1 24.9685 28.2 24.2722 28.2C23.9737 28.2 23.7748 28 23.6753 27.9C23.4763 27.6 23.3769 27.4 23.3769 27.1C22.979 26.6 22.8795 26 22.8795 25.5C22.8795 25.5 22.8795 25.3 22.6805 25.2C22.4816 25.5 22.1831 25.7 22.0837 25.8C19.9947 27.9 17.4083 28.7 14.3245 28.4C13.0313 28.2 11.7381 28.1 10.6439 27.4C8.8533 26.6 8.05749 25 7.75906 23C7.56011 21.7 7.56011 20.3 8.05749 19C8.35592 17.9 9.15173 16.9 10.1465 16.3C11.9371 15 13.8271 14.4 15.9161 14.2C18.0051 14 20.0941 13.9 22.1831 13.7C22.1831 13.7 22.1831 13.7 22.3821 13.7ZM22.3821 16.9C22.1831 16.9 22.1831 16.9 22.1831 16.9C20.5915 16.9 19.0994 16.9 17.5078 17.1C16.2146 17.3 14.9214 17.4 13.8271 18.1C12.8324 18.6 12.0365 19.4 11.7381 20.5C11.5392 21.1 11.5392 21.8 11.7381 22.4C11.9371 23.9 12.7329 24.8 14.1256 25C15.6177 25.3 17.0104 25.2 18.5025 24.7C19.7957 24.4 21.0889 23.4 22.1831 22.3C22.1831 22.3 22.3821 22.1 22.3821 22C22.3821 20.4 22.3821 18.9 22.3821 17.3C22.3821 17.2 22.3821 17.1 22.3821 16.9Z" fill="white"/>
<path d="M87.5397 12.3657C87.7386 12.1657 87.8381 12.0657 87.9376 11.9657C88.6339 11.2657 89.5292 10.8657 90.4245 10.6657C91.5187 10.4657 92.414 10.5657 93.4088 11.1657C93.9062 11.5657 94.3041 11.9657 94.503 12.4657C94.503 12.4657 94.503 12.5657 94.6025 12.5657C94.702 12.4657 94.8014 12.3657 94.9009 12.1657C95.5973 11.4657 96.3931 10.8657 97.3878 10.5657C98.5815 10.2657 99.7753 10.4657 100.77 11.1657C101.267 11.5657 101.665 12.0657 101.864 12.6657C102.063 13.1657 102.163 13.7657 102.163 14.2657C102.163 17.0657 102.163 19.9657 102.163 22.7657C102.163 23.0657 102.063 23.1657 101.765 23.2657C101.367 23.3657 100.87 23.3657 100.571 23.2657C100.273 23.1657 100.173 22.9657 100.173 22.7657C100.173 20.0657 100.173 17.3657 100.173 14.6657C100.173 14.2657 100.173 13.9657 99.9742 13.5657C99.6758 12.7657 99.1784 12.3657 98.3826 12.2657C97.4873 12.0657 96.592 12.3657 95.8957 12.8657C95.4978 13.1657 95.1993 13.4657 94.9009 13.7657C94.9009 13.7657 94.8014 13.8657 94.8014 13.9657C94.8014 14.1657 94.8014 14.2657 94.8014 14.3657C94.8014 17.0657 94.8014 19.8657 94.8014 22.6657C94.8014 23.0657 94.702 23.0657 94.4035 23.1657C94.0056 23.2657 93.6077 23.2657 93.2098 23.1657C92.9114 23.0657 92.8119 22.8657 92.8119 22.6657C92.8119 19.9657 92.8119 17.2657 92.8119 14.4657C92.8119 13.8657 92.613 13.2657 92.2151 12.7657C91.8171 12.3657 91.4192 12.1657 90.9219 12.1657C89.7281 12.1657 88.7334 12.5657 87.9376 13.4657C87.6391 13.7657 87.5397 13.9657 87.5397 14.4657C87.5397 17.1657 87.5397 19.9657 87.5397 22.7657C87.5397 23.0657 87.4402 23.1657 87.1418 23.2657C86.7438 23.3657 86.2465 23.3657 85.948 23.2657C85.6496 23.1657 85.5501 22.9657 85.5501 22.7657C85.5501 19.9657 85.5501 17.1657 85.5501 14.3657C85.5501 13.3657 85.4507 12.4657 85.2517 11.5657C85.1522 11.1657 85.2517 11.0657 85.6496 10.9657C86.0475 10.8657 86.2465 10.7657 86.6444 10.7657C86.8433 10.7657 86.9428 10.8657 87.0423 10.9657C87.0423 11.1657 87.0423 11.2657 87.1418 11.3657C87.4402 11.6657 87.4402 12.0657 87.5397 12.3657Z" fill="black"/>
<path d="M62.5709 15.4657C62.5709 14.9657 62.5709 14.3657 62.4714 13.8657C62.372 13.2657 61.9741 12.7657 61.3772 12.5657C60.8798 12.3657 60.1835 12.2657 59.6861 12.2657C58.5919 12.3657 57.4976 12.6657 56.5029 13.1657C56.5029 13.1657 56.4034 13.1657 56.4034 13.2657C56.0055 13.4657 55.906 13.3657 55.707 12.9657C55.5081 12.7657 55.4086 12.5657 55.3091 12.3657C55.2097 12.0657 55.3091 11.9657 55.5081 11.7657C55.8065 11.5657 55.906 11.3657 56.2044 11.3657C57.0997 10.9657 57.995 10.7657 58.7908 10.6657C59.4872 10.5657 60.084 10.5657 60.7803 10.6657C61.3772 10.7657 62.0735 10.9657 62.6704 11.1657C63.7646 11.7657 64.461 12.7657 64.461 14.0657C64.461 14.2657 64.461 14.4657 64.461 14.4657C64.461 16.2657 64.461 18.0657 64.461 19.8657C64.461 20.7657 64.5605 21.6657 64.7594 22.4657C64.8589 22.8657 64.7594 22.9657 64.3615 23.0657C63.9636 23.1657 63.7646 23.2657 63.3667 23.2657C63.1678 23.2657 63.0683 23.1657 62.9688 23.0657C62.8694 22.8657 62.7699 22.7657 62.7699 22.6657C62.6704 22.3657 62.5709 22.0657 62.5709 21.7657C62.5709 21.7657 62.5709 21.6657 62.4714 21.5657C62.372 21.7657 62.173 21.8657 62.0735 21.9657C60.9793 23.0657 59.5866 23.5657 57.8955 23.3657C57.1992 23.2657 56.5029 23.1657 55.906 22.8657C54.9112 22.4657 54.5133 21.5657 54.3144 20.4657C54.2149 19.7657 54.2149 18.9657 54.5133 18.2657C54.7123 17.6657 55.1102 17.1657 55.6076 16.7657C56.6023 16.0657 57.5971 15.6657 58.7908 15.6657C60.1835 15.6657 61.3772 15.5657 62.5709 15.4657C62.4714 15.4657 62.4714 15.4657 62.5709 15.4657ZM62.5709 17.1657C62.4714 17.1657 62.4714 17.1657 62.5709 17.1657C61.5762 17.1657 60.7803 17.1657 59.9845 17.2657C59.2882 17.3657 58.5919 17.4657 57.995 17.7657C57.4976 18.0657 57.0002 18.4657 56.9008 19.0657C56.8013 19.4657 56.8013 19.7657 56.9008 20.1657C57.0002 20.9657 57.3981 21.4657 58.194 21.5657C58.9898 21.7657 59.7856 21.6657 60.5814 21.3657C61.2777 21.1657 61.9741 20.6657 62.5709 20.0657C62.5709 20.0657 62.6704 19.9657 62.6704 19.8657C62.6704 18.9657 62.6704 18.1657 62.6704 17.3657C62.5709 17.3657 62.5709 17.2657 62.5709 17.1657Z" fill="black"/>
<path d="M80.4767 15.4657C80.4767 14.9657 80.4767 14.3657 80.3772 13.8657C80.2778 13.0657 79.7804 12.6657 79.084 12.3657C78.4872 12.1657 77.8903 12.1657 77.2935 12.1657C76.1992 12.2657 75.3039 12.5657 74.4087 13.0657C74.0107 13.2657 74.0107 13.2657 73.7123 12.8657C73.5134 12.6657 73.4139 12.4657 73.3144 12.1657C73.2149 12.0657 73.2149 11.8657 73.5134 11.7657C73.7123 11.5657 73.9113 11.4657 74.2097 11.3657C75.0055 10.9657 75.8013 10.8657 76.5971 10.7657C77.194 10.6657 77.7909 10.6657 78.3877 10.6657C79.482 10.6657 80.6757 11.0657 81.571 11.7657C82.1678 12.3657 82.5657 13.0657 82.6652 13.8657C82.6652 14.0657 82.6652 14.2657 82.6652 14.4657C82.6652 16.2657 82.6652 17.9657 82.6652 19.6657C82.6652 20.2657 82.6652 20.9657 82.7647 21.5657C82.7647 21.9657 82.8642 22.2657 82.9636 22.6657C82.9636 22.8657 82.9636 23.0657 82.7647 23.0657C82.3668 23.2657 81.9689 23.3657 81.571 23.3657C81.4715 23.3657 81.372 23.2657 81.2725 23.1657C81.173 22.9657 81.0736 22.8657 80.9741 22.7657C80.8746 22.4657 80.7751 22.1657 80.7751 21.8657V21.7657C80.5762 21.9657 80.3772 22.1657 80.1783 22.3657C79.084 23.3657 77.6914 23.6657 76.2987 23.5657C75.6024 23.5657 75.0055 23.3657 74.4087 23.1657C73.3144 22.6657 72.817 21.7657 72.6181 20.6657C72.5186 20.0657 72.5186 19.3657 72.7176 18.7657C72.9165 17.9657 73.4139 17.3657 74.0107 16.9657C75.0055 16.3657 75.9008 15.9657 77.0945 15.8657C78.1888 15.6657 79.3825 15.6657 80.4767 15.4657ZM80.4767 17.2657C80.0788 17.2657 79.5814 17.2657 79.283 17.2657C78.5867 17.2657 77.8903 17.2657 77.194 17.4657C76.5971 17.5657 76.0003 17.8657 75.4034 18.1657C75.0055 18.4657 74.8066 18.8657 74.7071 19.2657C74.7071 19.5657 74.7071 19.8657 74.7071 20.1657C74.8066 20.9657 75.2045 21.4657 76.0003 21.6657C76.7961 21.8657 77.5919 21.7657 78.2882 21.4657C79.084 21.1657 79.7804 20.6657 80.3772 20.0657C80.3772 20.0657 80.4767 19.9657 80.4767 19.8657C80.4767 19.0657 80.4767 18.2657 80.4767 17.2657C80.4767 17.3657 80.4767 17.2657 80.4767 17.2657Z" fill="black"/>
<path d="M109.623 19.8657C109.822 19.4657 109.922 19.1657 110.021 18.7657C110.916 16.2657 111.812 13.7657 112.707 11.2657C112.807 10.9657 113.005 10.8657 113.204 10.7657C113.602 10.6657 113.901 10.6657 114.299 10.7657C114.697 10.8657 114.796 11.0657 114.697 11.3657C114.498 11.8657 114.299 12.3657 114.199 12.8657C112.906 16.2657 111.613 19.7657 110.22 23.2657C109.822 24.3657 109.225 25.4657 108.43 26.4657C107.932 27.1657 107.236 27.6657 106.44 28.1657C106.042 28.3657 105.843 28.4657 105.445 28.4657C105.147 28.4657 105.047 28.4657 104.948 28.1657C104.649 27.7657 104.55 27.4657 104.45 27.0657C104.351 26.7657 104.45 26.6657 104.848 26.5657C105.147 26.4657 105.346 26.3657 105.644 26.3657C106.44 26.0657 107.037 25.6657 107.435 24.9657C107.833 24.3657 108.131 23.7657 108.43 23.0657C108.43 22.9657 108.43 22.8657 108.43 22.7657C107.634 20.6657 106.838 18.6657 106.042 16.5657C105.445 14.9657 104.848 13.3657 104.252 11.7657C104.252 11.6657 104.152 11.5657 104.152 11.4657C104.053 11.1657 104.152 11.0657 104.45 11.0657C104.649 11.0657 104.749 10.9657 104.848 10.9657C105.246 10.9657 105.545 10.9657 105.943 10.9657C106.241 10.9657 106.341 11.1657 106.44 11.3657C107.534 14.1657 108.529 16.9657 109.623 19.7657C109.623 19.7657 109.623 19.7657 109.623 19.8657Z" fill="black"/>
<path d="M69.7332 14.2657C69.7332 17.1657 69.7332 20.0657 69.7332 22.9657C69.7332 23.2657 69.6337 23.3657 69.3353 23.4657C68.9374 23.5657 68.5395 23.5657 68.1416 23.4657C67.8431 23.3657 67.7437 23.1657 67.7437 22.9657C67.7437 17.1657 67.7437 11.3657 67.7437 5.66569C67.7437 5.26569 67.8431 5.26569 68.1416 5.16569C68.5395 4.96569 68.9374 4.96569 69.3353 5.06569C69.6337 5.16569 69.7332 5.36569 69.7332 5.56569C69.7332 8.46569 69.7332 11.3657 69.7332 14.2657Z" fill="black"/>
</g>
<defs>
<clipPath id="clip0_144_1026">
<rect width="190" height="33" fill="white"/>
</clipPath>
</defs>
</svg>
