<svg width="190" height="34" viewBox="0 0 190 34" fill="none" xmlns="http://www.w3.org/2000/svg">
<g clip-path="url(#clip0_144_1024)">
<path d="M32.6896 5.46189C32.615 5.07729 32.5065 4.70073 32.3654 4.33701C32.2388 3.95826 32.0623 3.59976 31.8409 3.27185C31.6284 2.91802 31.3859 2.58486 31.1162 2.27637C30.8324 1.98051 30.5117 1.72602 30.1626 1.51981C29.8497 1.33091 29.5247 1.1646 29.19 1.02207C28.8401 0.879287 28.4797 0.766102 28.1125 0.683612C27.7416 0.610577 27.3646 0.577222 26.9872 0.584065H5.79878C5.42163 0.582615 5.0451 0.615927 4.67356 0.683612C4.30798 0.764924 3.95044 0.881566 3.60555 1.03203C3.24396 1.17429 2.89857 1.35792 2.57569 1.57954C2.25598 1.80345 1.95601 2.05664 1.67933 2.3361C1.39946 2.61346 1.1558 2.92808 0.954613 3.27185C0.754109 3.61754 0.57572 3.9767 0.42061 4.34696C0.288164 4.71379 0.179841 5.08963 0.0963947 5.47185C0.0260342 5.85894 -0.00592055 6.25257 0.00103707 6.64651V27.5515C-0.00666207 27.9459 0.0285274 28.34 0.10593 28.7261C0.177407 29.1116 0.286032 29.4884 0.430146 29.851C0.562107 30.2211 0.738324 30.5723 0.954613 30.8963C1.16654 31.2351 1.40923 31.5518 1.67933 31.842C1.9495 32.129 2.25024 32.3829 2.57569 32.5985C2.90908 32.8007 3.25289 32.9834 3.60555 33.1461C3.95497 33.2903 4.31543 33.4036 4.68309 33.4845C5.0539 33.558 5.43096 33.5913 5.80831 33.5841H26.9872C27.3644 33.5859 27.741 33.5526 28.1125 33.4845C28.4809 33.4066 28.8416 33.2933 29.19 33.1461C29.5494 33.0058 29.8919 32.822 30.2103 32.5985C30.5493 32.3767 30.8684 32.1235 31.1639 31.842C31.439 31.5564 31.6821 31.2392 31.8886 30.8963C32.0823 30.5517 32.2574 30.1961 32.4131 29.8311C32.5486 29.4654 32.6569 29.0893 32.7373 28.7062C32.8069 28.319 32.8388 27.9255 32.8327 27.5316V6.6266C32.8225 6.23434 32.7746 5.84414 32.6896 5.46189Z" fill="black"/>
<path d="M23.5257 12.4004C23.4685 10.6284 23.4208 8.89632 23.354 7.14429C21.6662 7.14429 20.0165 7.24383 18.3478 7.31352C18.3955 9.08546 18.4527 10.8275 18.5194 12.5796L23.5257 12.4004ZM16.0115 12.6592C14.648 12.7013 13.3271 13.1647 12.2159 13.9907C11.1048 14.8168 10.2533 15.9684 9.76933 17.2998C9.28534 18.6312 9.19058 20.0826 9.49702 21.4702C9.80347 22.8579 10.4973 24.1194 11.4909 25.0953C12.4844 26.0711 13.7328 26.7173 15.0783 26.9521C16.4237 27.1869 17.8056 26.9998 19.0492 26.4145C20.2927 25.8291 21.342 24.8718 22.0641 23.6636C22.7863 22.4555 23.1489 21.0509 23.1061 19.6275C23.0463 17.7228 22.2663 15.9204 20.9368 14.6145C19.6072 13.3086 17.8363 12.6056 16.0115 12.6592ZM16.269 22.4846C15.9475 22.5033 15.6257 22.4556 15.322 22.344C15.0183 22.2324 14.7388 22.0592 14.4995 21.8343C14.2602 21.6095 14.0658 21.3375 13.9276 21.0339C13.7895 20.7303 13.7102 20.4012 13.6943 20.0656C13.6891 20.0293 13.6891 19.9923 13.6943 19.956C13.6815 19.2633 13.9323 18.5936 14.3916 18.0935C14.851 17.5935 15.4815 17.3039 16.145 17.2882C16.4719 17.2797 16.7971 17.3385 17.1022 17.4612C17.4072 17.5839 17.6862 17.7682 17.923 18.0034C18.1599 18.2387 18.3501 18.5203 18.4827 18.8323C18.6153 19.1443 18.6877 19.4805 18.6958 19.8217C18.704 20.1629 18.6477 20.5024 18.5301 20.8209C18.4125 21.1394 18.236 21.4305 18.0107 21.6778C17.7853 21.9251 17.5155 22.1236 17.2167 22.262C16.9178 22.4004 16.5958 22.4761 16.269 22.4846Z" fill="white"/>
<path d="M86.9194 12.7787C86.0544 11.8968 84.9561 11.3059 83.7662 11.0823C82.5763 10.8587 81.3495 11.0127 80.2443 11.5244C79.1819 11.924 78.2619 12.653 77.6074 13.6138C76.953 14.5745 76.5954 15.7211 76.5826 16.8999C76.4682 18.4529 76.4968 20.0058 76.4968 21.5289C76.4968 23.4103 76.4968 25.2619 76.4968 27.1434C76.4968 27.3524 76.6684 27.7108 76.7829 27.7108C77.7936 27.7705 78.7758 27.7108 79.8438 27.7108V22.7334C79.9898 22.8347 80.1428 22.9245 80.3015 23.0022C81.4414 23.6594 82.7657 23.8788 84.0444 23.6224C85.3232 23.3659 86.4754 22.6498 87.3008 21.5986C88.3401 20.2159 88.8346 18.4712 88.6835 16.7207C88.6134 15.2161 87.9798 13.8003 86.9194 12.7787ZM85.2792 17.5072C85.3076 18.2528 85.0515 18.9798 84.567 19.5285C84.0825 20.0772 83.4092 20.4028 82.695 20.4339H82.5425C81.8182 20.413 81.1315 20.0932 80.6327 19.5446C80.134 18.996 79.864 18.2633 79.882 17.5072C79.8773 17.4575 79.8773 17.4075 79.882 17.3579C79.9228 16.6409 80.2245 15.9674 80.7252 15.4749C81.2259 14.9823 81.8879 14.708 82.5758 14.708C83.2638 14.708 83.9258 14.9823 84.4265 15.4749C84.9272 15.9674 85.2288 16.6409 85.2697 17.3579L85.2792 17.5072ZM70.8135 11.1361C69.3573 10.8196 67.8404 11.082 66.5598 11.8719C65.2793 12.6619 64.3274 13.9224 63.8905 15.4067C63.5417 16.4432 63.4462 17.5541 63.6127 18.6388C63.7792 19.7236 64.2025 20.7477 64.8441 21.6185C66.9515 24.3959 71.2712 24.4556 73.5502 22.614C74.3735 22.0222 74.9498 21.1251 75.1618 20.1054H71.9005C71.7649 20.1144 71.6352 20.1665 71.5287 20.2547C71.1722 20.5026 70.7703 20.6705 70.3484 20.7476C69.9265 20.8247 69.4939 20.8094 69.078 20.7026C68.6019 20.6504 68.156 20.4342 67.8107 20.0881C67.4653 19.7421 67.2402 19.2858 67.1708 18.7913C67.3425 18.7913 67.5141 18.7913 67.6857 18.7913H74.952C75.4669 18.7913 75.6672 18.6121 75.6386 18.1045C75.6384 17.3851 75.5906 16.6667 75.4955 15.9542C75.3449 14.7197 74.8016 13.5737 73.9526 12.7C73.1036 11.8263 71.9981 11.2756 70.8135 11.1361ZM67.0659 16.2429C67.3234 14.7796 68.4486 14.0628 70.0601 14.252C70.557 14.2806 71.0264 14.4995 71.3783 14.8669C71.7302 15.2342 71.9399 15.7242 71.9673 16.2429C70.3558 16.2429 68.7061 16.2429 67.0659 16.2429ZM95.7495 11.0764C94.948 11.0592 94.1511 11.2071 93.4044 11.5115C92.6576 11.8159 91.9757 12.2709 91.3974 12.8505C90.8192 13.4302 90.356 14.123 90.0343 14.8896C89.7126 15.6561 89.5387 16.4813 89.5226 17.318V17.4375C89.5019 18.7191 89.8463 19.9783 90.5121 21.0554C91.1779 22.1324 92.1351 22.9787 93.2624 23.4869C94.3896 23.9952 95.6361 24.1425 96.8436 23.9101C98.0511 23.6777 99.1653 23.0762 100.045 22.1818C100.924 21.2874 101.53 20.1404 101.784 18.8863C102.038 17.6323 101.93 16.3276 101.473 15.1379C101.016 13.9482 100.23 12.9271 99.2165 12.204C98.2027 11.4809 97.0059 11.0884 95.7781 11.0764H95.7495ZM95.6351 20.4239C95.0576 20.4362 94.49 20.2657 94.0071 19.9349C93.5242 19.6041 93.1485 19.1284 92.9295 18.5704C92.7105 18.0124 92.6585 17.3983 92.7802 16.8089C92.9019 16.2194 93.1917 15.6822 93.6114 15.268C94.0311 14.8537 94.5611 14.5818 95.1317 14.488C95.7023 14.3942 96.2867 14.483 96.8081 14.7425C97.3295 15.0021 97.7633 15.4203 98.0527 15.9422C98.342 16.4641 98.4732 17.0652 98.429 17.6664C98.3747 18.4063 98.0585 19.0985 97.542 19.6083C97.0255 20.118 96.3457 20.4088 95.6351 20.4239ZM115.632 6.55695H112.37V9.88183H115.632C115.603 8.74699 115.603 7.67188 115.632 6.55695ZM62.7748 7.55242C62.7748 7.32346 62.6604 7.204 62.3743 7.204H59.9236C59.609 7.204 59.4564 7.32346 59.4564 7.65197V12.1017C59.2574 12.0326 59.0657 11.9426 58.8842 11.833C58.1458 11.3982 57.319 11.1526 56.4719 11.1163C55.6249 11.0799 54.7816 11.2539 54.0115 11.6239C50.6072 13.1271 49.6632 17.7859 51.4749 20.9217C52.1512 22.014 53.132 22.8636 54.2851 23.3561C55.4382 23.8486 56.7082 23.9602 57.9239 23.676C59.1397 23.3918 60.2428 22.7254 61.0845 21.7666C61.9263 20.8077 62.4663 19.6026 62.6318 18.3135C62.8606 14.7198 62.7462 11.0963 62.7748 7.55242ZM59.4659 17.5072C59.5051 18.2392 59.2654 18.9576 58.7992 19.5059C58.3329 20.0541 57.678 20.3877 56.9771 20.4339H56.7196C56.0232 20.4339 55.3553 20.1458 54.862 19.6327C54.3687 19.1196 54.0903 18.4233 54.0877 17.6963C54.0828 17.6035 54.0828 17.5104 54.0877 17.4176C54.1042 16.6987 54.3844 16.0138 54.8703 15.5042C55.3563 14.9946 56.0111 14.6991 56.6997 14.6787C57.3882 14.6582 58.058 14.9144 58.571 15.3944C59.0839 15.8744 59.4008 16.5416 59.4564 17.2583L59.4659 17.5072ZM189.667 18.7814C189.16 17.9003 188.404 17.2048 187.503 16.7904C186.721 16.3723 185.92 16.014 185.195 15.5361C185.074 15.4311 184.977 15.2984 184.912 15.1483C184.848 14.9981 184.817 14.8345 184.823 14.6701C184.823 14.4909 185.309 14.2818 185.605 14.252C185.719 14.2396 185.834 14.251 185.944 14.2854C186.054 14.3198 186.156 14.3766 186.245 14.4525C186.333 14.5284 186.407 14.6219 186.461 14.7276C186.515 14.8333 186.548 14.9491 186.559 15.0683V15.1479C186.559 15.4764 186.73 15.5959 187.054 15.5959H189.438C189.782 15.5959 189.906 15.4764 189.867 15.118C189.847 14.0863 189.471 13.0967 188.809 12.3307C188.005 11.6138 187.002 11.186 185.948 11.1107C184.893 11.0354 183.844 11.3166 182.954 11.9126C182.595 12.1747 182.289 12.5086 182.054 12.8951C181.82 13.2815 181.661 13.7128 181.587 14.1638C181.514 14.6149 181.527 15.0767 181.625 15.5224C181.724 15.9682 181.907 16.3891 182.163 16.7606L182.267 16.8999C182.88 17.5311 183.573 18.0705 184.327 18.5026C184.995 18.9207 185.71 19.2194 186.349 19.6375C186.414 19.6783 186.47 19.7322 186.515 19.796C186.56 19.8597 186.592 19.9322 186.609 20.009C186.627 20.0859 186.63 20.1656 186.618 20.2437C186.606 20.3218 186.579 20.3965 186.539 20.4637C186.506 20.5259 186.46 20.5801 186.406 20.623C186.227 20.8291 185.977 20.9531 185.711 20.968C185.445 20.9829 185.184 20.8876 184.985 20.7026L184.909 20.623C184.662 20.2472 184.451 19.8471 184.279 19.4284H181.6C181.528 19.4463 181.461 19.483 181.406 19.5353C181.351 19.5875 181.309 19.6535 181.285 19.7271C181.276 20.3695 181.409 21.0054 181.674 21.5855C181.938 22.1656 182.328 22.6742 182.811 23.0719C183.687 23.6283 184.694 23.9226 185.719 23.9226C186.745 23.9226 187.751 23.6283 188.628 23.0719C189.279 22.6175 189.745 21.9274 189.937 21.1351C190.129 20.3427 190.033 19.5041 189.667 18.7814ZM165.313 9.43387C165.313 8.95604 165.141 8.80672 164.712 8.80672C163.987 8.80672 163.263 8.80672 162.547 8.80672C162.118 8.80672 161.966 8.95604 161.966 9.404C161.966 10.718 161.966 12.0619 161.966 13.3859C161.966 15.7452 161.966 18.0746 161.966 20.4339C161.947 21.0768 162.121 21.7098 162.463 22.245C162.804 22.7802 163.297 23.191 163.873 23.4203C165.176 23.7283 166.517 23.8289 167.849 23.7189V20.2149H165.999C165.456 20.2149 165.227 20.0058 165.227 19.4384C165.227 18.0646 165.227 16.661 165.227 15.2873C165.237 15.117 165.256 14.9475 165.284 14.7796H167.83V11.3452H165.256C165.313 10.6882 165.284 10.061 165.313 9.43387ZM146.642 13.9732C146.49 13.0717 146.005 12.2683 145.292 11.7359C144.579 11.2035 143.694 10.9846 142.828 11.1262L142.513 11.1959C141.907 11.3659 141.311 11.5754 140.73 11.823V7.84111C140.73 7.42301 140.615 7.27369 140.215 7.27369C139.461 7.27369 138.746 7.27369 137.993 7.27369C137.507 7.27369 137.392 7.45287 137.392 7.9307C137.392 12.9778 137.392 18.0248 137.392 23.0719C137.392 23.2909 137.392 23.4999 137.449 23.7189C138.403 23.7189 139.261 23.7189 140.129 23.7189C140.615 23.7189 140.758 23.5398 140.739 23.0719C140.739 20.8321 140.739 18.5624 140.739 16.3226C140.738 16.0414 140.767 15.761 140.825 15.4864C140.865 15.2006 141.005 14.9406 141.218 14.7566C141.431 14.5727 141.703 14.478 141.979 14.4909C142.27 14.447 142.567 14.5173 142.812 14.6883C143.056 14.8592 143.232 15.1187 143.304 15.4167C143.508 16.1334 143.679 16.8502 143.819 17.5669L145.116 23.3008C145.116 23.48 145.345 23.7488 145.459 23.7488C146.585 23.7488 147.71 23.7488 148.835 23.7488C148.835 23.5995 148.835 23.5099 148.835 23.4502C148.082 20.2447 147.471 17.0791 146.642 13.9732ZM110.406 18.0348C109.644 17.3905 108.827 16.8207 107.965 16.3325C107.44 16.004 106.897 15.795 106.372 15.4664C105.848 15.1379 105.829 14.5407 106.229 14.2719C106.63 14.0031 107.641 14.2719 107.698 14.8393C107.784 15.6158 108.222 15.556 108.709 15.5262H110.616C110.969 15.5262 111.054 15.4067 111.054 15.0782C111.068 14.4424 110.927 13.8133 110.646 13.2494C110.364 12.6855 109.95 12.2051 109.443 11.8529C108.715 11.3411 107.865 11.0529 106.988 11.0212C106.111 10.9896 105.244 11.2156 104.484 11.6737C104.096 11.868 103.749 12.1411 103.462 12.4771C103.176 12.813 102.957 13.2052 102.818 13.6305C102.678 14.0559 102.622 14.506 102.651 14.9545C102.68 15.403 102.794 15.841 102.987 16.2429C103.103 16.4638 103.237 16.6737 103.388 16.8701C104.05 17.5315 104.805 18.0822 105.629 18.5026C106.229 18.8909 106.925 19.1895 107.536 19.6076C107.603 19.6564 107.66 19.7185 107.705 19.7906C107.749 19.8626 107.779 19.9431 107.793 20.0273C107.807 20.1116 107.805 20.1979 107.787 20.2814C107.769 20.3648 107.736 20.4437 107.688 20.5135C107.62 20.613 107.528 20.6919 107.421 20.7425C107.167 20.9112 106.859 20.9682 106.564 20.9011C106.269 20.834 106.012 20.6482 105.848 20.3841C105.774 20.266 105.722 20.1343 105.695 19.9959C105.638 19.7569 105.695 19.3986 105.257 19.4284C104.456 19.4284 103.616 19.4284 102.806 19.4284C102.726 19.4556 102.653 19.5023 102.593 19.5645C102.533 19.6268 102.489 19.703 102.463 19.7868C102.465 20.674 102.728 21.5391 103.216 22.2655C104.599 24.4456 108.69 24.356 110.33 22.5343C110.617 22.2456 110.847 21.9003 111.006 21.5184C111.165 21.1365 111.25 20.7254 111.257 20.309C111.263 19.8926 111.19 19.479 111.042 19.0921C110.895 18.7052 110.675 18.3526 110.396 18.0547L110.406 18.0348ZM174.725 11.0664H174.505C172.897 11.0317 171.342 11.6641 170.18 12.8248C169.018 13.9855 168.345 15.5799 168.307 17.2583C168.302 17.3445 168.302 17.4309 168.307 17.5171C168.307 19.2332 168.96 20.8791 170.122 22.0925C171.285 23.306 172.861 23.9877 174.505 23.9877C176.149 23.9877 177.726 23.306 178.888 22.0925C180.051 20.8791 180.704 19.2332 180.704 17.5171C180.719 15.8361 180.095 14.2173 178.969 13.0156C177.843 11.8139 176.306 11.1273 174.696 11.1063L174.725 11.0664ZM174.791 20.4339H174.477C173.91 20.4592 173.349 20.3082 172.865 19.9998C172.38 19.6915 171.995 19.2398 171.757 18.7021C171.519 18.1645 171.44 17.5652 171.529 16.9804C171.618 16.3956 171.872 15.8517 172.258 15.4178C172.644 14.9839 173.145 14.6796 173.697 14.5436C174.249 14.4076 174.827 14.446 175.359 14.6539C175.89 14.8619 176.35 15.23 176.68 15.7114C177.01 16.1929 177.196 16.766 177.213 17.3579V17.5072C177.242 17.8716 177.201 18.2383 177.093 18.5862C176.985 18.9341 176.812 19.2561 176.585 19.5338C176.357 19.8115 176.078 20.0393 175.766 20.2041C175.453 20.3688 175.112 20.4672 174.763 20.4936L174.791 20.4339ZM155.024 11.0664H154.909C153.702 11.0842 152.527 11.4747 151.532 12.1887C150.537 12.9028 149.768 13.9084 149.319 15.0787C148.871 16.249 148.765 17.5316 149.015 18.7647C149.264 19.9978 149.858 21.1263 150.721 22.0077C151.583 22.8891 152.677 23.484 153.863 23.7174C155.05 23.9508 156.276 23.8122 157.387 23.3191C158.498 22.826 159.444 22.0005 160.106 20.9467C160.768 19.8929 161.117 18.6579 161.108 17.3977C161.092 15.7184 160.441 14.1138 159.295 12.9348C158.15 11.7557 156.604 11.0983 154.995 11.1063L155.024 11.0664ZM154.881 20.4936C154.188 20.5233 153.513 20.2657 153.002 19.7769C152.491 19.2882 152.186 18.6082 152.153 17.8855C152.144 17.7596 152.144 17.6331 152.153 17.5072C152.119 17.1544 152.153 16.7982 152.251 16.459C152.35 16.1198 152.513 15.8044 152.729 15.5313C152.945 15.2581 153.212 15.0325 153.512 14.8676C153.813 14.7026 154.142 14.6017 154.48 14.5705C154.601 14.5606 154.722 14.5606 154.843 14.5705C155.506 14.6918 156.106 15.0532 156.539 15.5912C156.972 16.1293 157.21 16.8095 157.21 17.5121C157.21 18.2148 156.972 18.895 156.539 19.4331C156.106 19.9711 155.506 20.3325 154.843 20.4538L154.881 20.4936ZM126.75 12.2511C125.954 12.8482 125.31 13.639 124.873 14.5549C124.436 15.4708 124.219 16.4842 124.242 17.5072C124.157 20.7624 124.242 24.0176 124.242 27.2728C124.242 27.6909 124.414 27.7805 124.767 27.7805C125.482 27.7805 126.207 27.7805 126.922 27.7805C127.418 27.7805 127.618 27.661 127.589 27.1334C127.589 25.7597 127.589 24.356 127.589 22.833C127.847 22.9823 128.018 23.042 128.19 23.1515C129.183 23.7138 130.32 23.9384 131.442 23.7938C132.563 23.6493 133.613 23.1428 134.446 22.3452C135.34 21.4769 135.971 20.3548 136.263 19.1168C136.554 17.8788 136.493 16.5788 136.086 15.3769C134.817 10.9271 129.744 10.061 126.75 12.2112V12.2511ZM132.92 17.5072C132.942 17.8647 132.896 18.2233 132.785 18.5624C132.675 18.9015 132.501 19.2145 132.274 19.4835C132.047 19.7526 131.772 19.9723 131.464 20.1302C131.156 20.2882 130.821 20.3812 130.479 20.404C130.383 20.404 130.278 20.404 130.183 20.404C129.835 20.4027 129.491 20.3298 129.171 20.1894C128.85 20.0489 128.559 19.8438 128.315 19.5858C128.07 19.3278 127.877 19.0219 127.746 18.6857C127.615 18.3495 127.549 17.9896 127.551 17.6266C127.546 17.5471 127.546 17.4673 127.551 17.3877C127.529 17.0005 127.584 16.6127 127.712 16.2487C127.841 15.8847 128.04 15.5524 128.297 15.2728C128.555 14.9933 128.865 14.7725 129.209 14.6244C129.552 14.4763 129.921 14.4041 130.293 14.4124C130.664 14.4207 131.03 14.5092 131.367 14.6725C131.704 14.8358 132.005 15.0702 132.251 15.361C132.497 15.6517 132.683 15.9926 132.796 16.362C132.91 16.7314 132.948 17.1213 132.91 17.5072H132.92ZM112.313 18.5026C112.313 20.0058 112.313 21.4891 112.313 23.0221C112.313 23.5597 112.456 23.709 112.971 23.6692C113.639 23.6692 114.325 23.6692 115.021 23.6692C115.508 23.6692 115.689 23.5497 115.689 23.0221C115.689 19.3488 115.689 15.6655 115.689 11.9922V11.395H112.342L112.313 18.5026ZM120.523 19.3388V15.4067C120.523 15.1977 120.523 14.9886 120.523 14.7198H123.146V11.3153H120.495C120.495 10.5687 120.495 9.9117 120.495 9.22482C120.495 8.92618 120.409 8.77685 120.094 8.77685H117.644C117.329 8.77685 117.214 8.89631 117.214 9.22482C117.214 12.9579 117.214 16.661 117.214 20.394C117.192 21.0304 117.365 21.6576 117.708 22.1842C118.051 22.7107 118.546 23.1089 119.122 23.3207C120.418 23.8583 121.773 23.5895 123.155 23.6493V20.185H121.343C120.705 20.185 120.523 20.0058 120.523 19.3189V19.3388Z" fill="black"/>
</g>
<defs>
<clipPath id="clip0_144_1024">
<rect width="190" height="33" fill="white" transform="translate(0 0.584045)"/>
</clipPath>
</defs>
</svg>
