<svg width="190" height="33" viewBox="0 0 190 33" fill="none" xmlns="http://www.w3.org/2000/svg">
<g clip-path="url(#clip0_144_1023)">
<path d="M34.2811 4.90088C34.2029 4.51453 34.089 4.13625 33.9411 3.77088C33.8083 3.39041 33.6232 3.03028 33.3911 2.70088C33.1682 2.34544 32.9139 2.01076 32.6311 1.70088C32.3335 1.40367 31.9971 1.14803 31.6311 0.940878C31.3029 0.751113 30.9621 0.584055 30.6111 0.440878C30.2441 0.297442 29.8663 0.183742 29.4811 0.100878C29.0922 0.0275104 28.6968 -0.00599636 28.3011 0.00087803H6.08109C5.68558 -0.000578634 5.29071 0.0328846 4.90109 0.100878C4.51771 0.182559 4.14276 0.299731 3.78109 0.450878C3.40189 0.593791 3.03969 0.778248 2.70109 1.00088C2.36581 1.2258 2.05124 1.48014 1.76109 1.76088C1.46759 2.0395 1.21206 2.35555 1.00109 2.70088C0.790823 3.04814 0.603748 3.40893 0.441088 3.78088C0.302193 4.14938 0.188596 4.52692 0.101088 4.91088C0.0273016 5.29973 -0.00620879 5.69515 0.00108756 6.09088V27.0909C-0.00698641 27.4871 0.0299162 27.883 0.111088 28.2709C0.186044 28.658 0.299957 29.0366 0.451088 29.4009C0.589473 29.7726 0.774269 30.1254 1.00109 30.4509C1.22333 30.7912 1.47784 31.1093 1.76109 31.4009C2.04441 31.6892 2.3598 31.9442 2.70109 32.1609C3.05071 32.3639 3.41125 32.5475 3.78109 32.7109C4.14751 32.8558 4.52552 32.9696 4.91109 33.0509C5.29994 33.1247 5.69536 33.1582 6.09109 33.1509H28.3011C28.6966 33.1528 29.0915 33.1193 29.4811 33.0509C29.8674 32.9726 30.2457 32.8588 30.6111 32.7109C30.988 32.57 31.3471 32.3854 31.6811 32.1609C32.0365 31.938 32.3712 31.6837 32.6811 31.4009C32.9696 31.114 33.2246 30.7953 33.4411 30.4509C33.6442 30.1047 33.8278 29.7475 33.9911 29.3809C34.1332 29.0135 34.2468 28.6357 34.3311 28.2509C34.404 27.8619 34.4375 27.4666 34.4311 27.0709V6.07088C34.4204 5.67684 34.3702 5.28486 34.2811 4.90088Z" fill="#7FB226"/>
<path d="M26.9413 15.7809C26.6798 13.9017 25.9736 12.1122 24.8813 10.5609C24.1577 9.48111 23.1947 8.58282 22.0674 7.93589C20.94 7.28895 19.6786 6.91081 18.3813 6.83089L18.0013 6.72089H17.0013L16.6213 6.84089C15.3436 6.94568 14.0962 7.28466 12.9413 7.84089C10.9298 8.72547 9.31138 10.3154 8.39126 12.3109C7.83845 13.5764 7.51995 14.9317 7.45126 16.3109C7.34901 18.1714 7.69182 20.0294 8.45126 21.7309C9.14553 23.2622 10.3103 24.5321 11.7761 25.3558C13.2418 26.1796 14.9322 26.5141 16.6013 26.3109C17.9561 26.1524 19.2439 25.6345 20.3313 24.8109C21.536 23.9744 22.4645 22.7984 22.9988 21.4325C23.533 20.0667 23.6487 18.5727 23.3313 17.1409C23.0384 15.4387 22.1133 13.91 20.7413 12.8609C20.1815 12.3889 19.52 12.0529 18.8087 11.8794C18.0973 11.7059 17.3555 11.6996 16.6413 11.8609C15.851 12.0333 15.1098 12.3816 14.4728 12.88C13.8358 13.3783 13.3193 14.0139 12.9619 14.7394C12.6044 15.465 12.4151 16.2617 12.4081 17.0705C12.401 17.8793 12.5764 18.6793 12.9213 19.4109C13.1362 19.8896 13.4522 20.3162 13.8474 20.6614C14.2427 21.0066 14.7079 21.2623 15.2113 21.4109C15.7388 21.6027 16.304 21.6678 16.8613 21.6009C17.4941 21.4778 18.0732 21.1618 18.5191 20.6962C18.9649 20.2307 19.2557 19.6384 19.3513 19.0009C19.4005 18.7578 19.3946 18.5067 19.334 18.2662C19.2734 18.0256 19.1597 17.8017 19.0013 17.6109C18.9059 17.4556 18.7626 17.3355 18.5931 17.2688C18.4235 17.2021 18.2369 17.1923 18.0613 17.2409C17.8796 17.2787 17.7136 17.3706 17.5852 17.5044C17.4567 17.6383 17.3716 17.8079 17.3413 17.9909C17.2709 18.2955 17.3135 18.6153 17.4613 18.8909C17.5031 18.9552 17.5335 19.0263 17.5513 19.1009C17.5818 19.2027 17.5917 19.3095 17.5805 19.4151C17.5693 19.5208 17.5371 19.6231 17.4859 19.7162C17.4347 19.8093 17.3655 19.8913 17.2823 19.9573C17.1991 20.0234 17.1035 20.0722 17.0013 20.1009C16.8223 20.1946 16.6233 20.2436 16.4213 20.2436C16.2192 20.2436 16.0202 20.1946 15.8413 20.1009C15.4892 19.9161 15.2003 19.6306 15.0113 19.2809C14.7411 18.8096 14.5874 18.2806 14.5631 17.7379C14.5387 17.1952 14.6444 16.6545 14.8713 16.1609C15.0669 15.6636 15.3949 15.2292 15.8197 14.9049C16.2445 14.5806 16.7499 14.3786 17.2813 14.3209C18.0343 14.236 18.795 14.3903 19.4554 14.7618C20.1159 15.1333 20.6427 15.7033 20.9613 16.3909C21.4156 17.3497 21.559 18.4266 21.3713 19.4709C21.2859 20.1846 21.0446 20.8709 20.6644 21.4809C20.2842 22.091 19.7744 22.6099 19.1713 23.0009C18.0187 23.735 16.6345 24.0146 15.2874 23.7854C13.9402 23.5563 12.7263 22.8347 11.8813 21.7609C11.1638 20.8281 10.6609 19.7484 10.4085 18.599C10.1562 17.4495 10.1605 16.2585 10.4213 15.1109C10.7229 13.5452 11.5567 12.132 12.7813 11.1109C13.4644 10.5229 14.2598 10.0797 15.1192 9.80809C15.9787 9.53651 16.8843 9.4422 17.7813 9.53089C18.9707 9.59473 20.1285 9.93728 21.1613 10.5309C22.8594 11.5651 24.1396 13.1637 24.7776 15.0468C25.4157 16.9299 25.371 18.9775 24.6513 20.8309L23.7413 23.2009C23.6558 23.4696 23.6087 23.749 23.6013 24.0309C23.6013 24.2909 23.7513 24.4009 23.9713 24.2509C24.2691 24.0841 24.5363 23.8676 24.7613 23.6109C25.353 22.9483 25.8235 22.1866 26.1513 21.3609C26.9287 19.6106 27.2023 17.6782 26.9413 15.7809Z" fill="white"/>
<path d="M114.281 17.5009C114.147 17.3593 113.965 17.2735 113.771 17.2609H113.291H113.081L112.341 17.3309C112.258 17.326 112.174 17.326 112.091 17.3309C111.508 17.4444 110.979 17.7509 110.591 18.2009C109.94 18.921 109.583 19.8598 109.591 20.8309C109.591 21.2909 109.591 21.7709 109.591 22.2309C109.591 22.6909 109.591 23.0309 109.591 23.4309C109.581 23.6705 109.513 23.9041 109.391 24.1109C109.317 24.2727 109.201 24.4117 109.055 24.5137C108.909 24.6156 108.738 24.6768 108.561 24.6909L107.421 24.8109C107.222 24.8222 107.032 24.8996 106.881 25.0309C106.69 25.2426 106.575 25.5114 106.554 25.7954C106.532 26.0794 106.605 26.3626 106.761 26.6009C106.836 26.7036 106.934 26.7876 107.046 26.8466C107.159 26.9055 107.284 26.9378 107.411 26.9409C107.875 26.9608 108.34 26.9407 108.801 26.8809C108.961 26.8596 109.118 26.8228 109.271 26.7709C109.721 26.6203 110.122 26.3507 110.431 25.9909C111.096 25.2711 111.455 24.3206 111.431 23.3409V21.8409C111.406 21.468 111.406 21.0938 111.431 20.7209C111.429 20.4568 111.517 20.1999 111.681 19.9926C111.844 19.7853 112.074 19.6401 112.331 19.5809L112.551 19.5309L113.551 19.3709C113.794 19.3517 114.024 19.2574 114.211 19.1009C114.402 18.8821 114.508 18.6014 114.508 18.3109C114.508 18.0203 114.402 17.7396 114.211 17.5209L114.281 17.5009ZM119.001 19.4009H123.381C123.481 19.4108 123.581 19.4108 123.681 19.4009C123.8 19.3878 123.913 19.3427 124.008 19.2705C124.103 19.1983 124.177 19.1017 124.221 18.9909C124.353 18.6741 124.378 18.3229 124.291 17.9909C124.26 17.828 124.182 17.6777 124.066 17.5587C123.951 17.4396 123.803 17.3569 123.641 17.3209H123.591C123.491 17.3109 123.391 17.3109 123.291 17.3209H118.921V17.0009C118.921 16.5509 118.921 16.0909 118.921 15.6509C118.904 15.4935 118.848 15.3429 118.757 15.2134C118.666 15.0839 118.544 14.9798 118.401 14.9109H118.341H118.191C117.983 14.8513 117.761 14.8667 117.564 14.9545C117.366 15.0423 117.206 15.1968 117.111 15.3909C117.043 15.5697 117.009 15.7596 117.011 15.9509V22.7909C117.011 23.0009 117.011 23.2009 117.011 23.4109C117.083 24.3892 117.506 25.3087 118.201 26.0009L118.471 26.2409C118.581 26.3167 118.694 26.3868 118.811 26.4509L118.941 26.5409L119.341 26.7309C119.461 26.7309 119.571 26.8309 119.691 26.8609C120.162 26.9941 120.656 27.0282 121.141 26.9609C121.578 26.9063 121.999 26.765 122.38 26.5452C122.762 26.3253 123.095 26.0315 123.361 25.6809C124.037 24.8334 124.369 23.7623 124.291 22.6809C124.291 22.5518 124.271 22.4235 124.231 22.3009C124.195 22.1789 124.134 22.066 124.051 21.9694C123.968 21.8729 123.866 21.795 123.751 21.7409C123.686 21.715 123.619 21.6949 123.551 21.6809H123.481C123.344 21.6409 123.198 21.6409 123.061 21.6809C122.862 21.7335 122.685 21.85 122.559 22.0126C122.433 22.1752 122.363 22.3749 122.361 22.5809C122.361 22.7309 122.361 22.8809 122.361 23.0409C122.336 23.4795 122.167 23.8977 121.881 24.2309V24.2909C121.671 24.5125 121.403 24.6705 121.108 24.7465C120.813 24.8226 120.502 24.8137 120.211 24.7209C120.04 24.6642 119.88 24.5761 119.741 24.4609C119.741 24.4609 119.691 24.4609 119.681 24.4109C119.476 24.2283 119.313 24.003 119.204 23.7508C119.095 23.4985 119.043 23.2255 119.051 22.9509V19.5909C119.001 19.5409 119.001 19.4709 119.001 19.4009ZM79.741 25.3209C79.6785 25.1834 79.5809 25.0648 79.458 24.9771C79.3352 24.8893 79.1913 24.8354 79.041 24.8209C78.761 24.8209 78.481 24.8209 78.201 24.8209C77.641 24.8209 77.101 24.8209 76.541 24.8209H75.401C75.1449 24.8012 74.8907 24.7611 74.641 24.7009C74.1152 24.5285 73.6683 24.1738 73.381 23.7009C73.2913 23.5597 73.2111 23.4127 73.141 23.2609C72.9295 22.734 72.8807 22.1558 73.001 21.6009C73.1138 20.947 73.4713 20.3605 74.001 19.9609C74.2509 19.7518 74.5425 19.5982 74.8562 19.5103C75.17 19.4224 75.4988 19.4021 75.821 19.4509C76.05 19.4209 76.282 19.4209 76.511 19.4509C76.3771 19.6246 76.2107 19.7707 76.021 19.8809C75.891 20.0509 75.731 20.2009 75.601 20.3609C75.311 20.6809 75.021 20.9709 74.751 21.2909C74.619 21.417 74.5241 21.5769 74.4765 21.7532C74.4289 21.9295 74.4304 22.1154 74.481 22.2909C74.5002 22.3887 74.5339 22.483 74.581 22.5709C74.6823 22.8224 74.8753 23.0262 75.121 23.1409C75.2897 23.2228 75.4816 23.2437 75.664 23.1999C75.8464 23.1562 76.0079 23.0505 76.121 22.9009C76.381 22.6709 76.621 22.3909 76.841 22.1609L78.601 20.2809C78.714 20.1699 78.8085 20.0416 78.881 19.9009C78.9559 19.6701 78.9559 19.4216 78.881 19.1909C78.8653 19.1425 78.8452 19.0956 78.821 19.0509C78.8253 19.021 78.8253 18.9907 78.821 18.9609C78.763 18.839 78.6853 18.7275 78.591 18.6309C78.1521 18.123 77.5953 17.7307 76.9693 17.4883C76.3434 17.246 75.6675 17.161 75.001 17.2409C74.1703 17.2971 73.3789 17.6158 72.741 18.1509C72.0308 18.7267 71.5057 19.4988 71.231 20.3709C70.9302 21.3084 70.8819 22.3087 71.091 23.2709C71.1496 23.537 71.2299 23.7978 71.331 24.0509C71.5966 24.8083 72.0591 25.4814 72.671 26.0009C73.4163 26.6436 74.3669 26.9983 75.351 27.0009H79.001C79.1815 27.0106 79.3602 26.9612 79.51 26.8601C79.6598 26.759 79.7725 26.6118 79.831 26.4409C79.9156 26.1707 79.9156 25.8811 79.831 25.6109C79.8191 25.5095 79.7886 25.4112 79.741 25.3209ZM62.091 15.0009V14.8109V14.7409C62.0804 14.6858 62.0636 14.6322 62.041 14.5809C62.0183 14.5289 61.9916 14.4787 61.961 14.4309L61.861 14.3109L61.731 14.2109L61.591 14.1409C61.5366 14.1149 61.4797 14.0948 61.421 14.0809H61.351H61.171C61.0122 14.0826 60.8575 14.1322 60.7273 14.2232C60.5971 14.3142 60.4973 14.4423 60.441 14.5909C60.3802 14.7779 60.3531 14.9743 60.361 15.1709V22.4309C60.372 22.8058 60.3017 23.1787 60.155 23.5239C60.0083 23.8692 59.7886 24.1786 59.511 24.4309C59.1442 24.7643 58.6667 24.9496 58.171 24.9509C57.8432 24.9571 57.5185 24.8862 57.2232 24.7437C56.9279 24.6013 56.6702 24.3913 56.471 24.1309C56.1294 23.729 55.9171 23.2333 55.8618 22.7088C55.8064 22.1842 55.9107 21.6552 56.161 21.1909C56.3231 20.7945 56.6003 20.4559 56.9568 20.2188C57.3134 19.9817 57.7329 19.857 58.161 19.8609C58.3095 19.8645 58.4562 19.8273 58.5849 19.7532C58.7136 19.6791 58.8196 19.5711 58.891 19.4409C58.9448 19.3525 58.9789 19.2536 58.991 19.1509C59.0309 18.9596 59.0309 18.7621 58.991 18.5709C58.9665 18.3912 58.8838 18.2245 58.7556 18.0963C58.6273 17.9681 58.4607 17.8854 58.281 17.8609C57.5317 17.8104 56.7858 17.9995 56.151 18.4009C55.9604 18.523 55.7798 18.6601 55.611 18.8109C55.1426 19.2271 54.7736 19.7431 54.531 20.3209C54.5277 20.3508 54.5277 20.381 54.531 20.4109C54.1252 21.211 53.9421 22.1056 54.001 23.0009C54.1143 24.1693 54.6817 25.2465 55.581 26.0009C56.0325 26.4108 56.5846 26.6938 57.181 26.8209C57.9345 26.9904 58.7214 26.9312 59.441 26.6509C60.4143 26.2385 61.1963 25.4744 61.631 24.5109C61.8714 23.9938 62.0203 23.4389 62.071 22.8709C62.081 22.681 62.081 22.4907 62.071 22.3009V15.0009H62.091ZM141.831 18.3109C141.538 17.9908 141.185 17.7315 140.793 17.5479C140.4 17.3643 139.974 17.26 139.541 17.2409C138.831 17.2007 138.127 17.3977 137.541 17.8009H137.491L137.201 18.0309L136.871 18.2909L136.771 18.2109C136.375 17.837 135.9 17.5568 135.381 17.3909C134.644 17.1731 133.856 17.2083 133.141 17.4909C132.892 17.6001 132.654 17.7341 132.431 17.8909C131.762 18.3227 131.258 18.9674 131.001 19.7209C130.83 20.2302 130.742 20.7637 130.741 21.3009V25.6209C130.726 25.7638 130.726 25.908 130.741 26.0509C130.762 26.2082 130.827 26.3561 130.93 26.4768C131.033 26.5975 131.169 26.6858 131.321 26.7309C131.48 26.7933 131.652 26.8105 131.82 26.7804C131.988 26.7504 132.144 26.6744 132.271 26.5609C132.374 26.4665 132.455 26.35 132.507 26.2201C132.559 26.0903 132.581 25.9504 132.571 25.8109V21.3709C132.555 21.0668 132.606 20.7628 132.721 20.4809L132.811 20.2709C132.847 20.1988 132.887 20.1287 132.931 20.0609C133.034 19.9097 133.163 19.7777 133.311 19.6709C133.487 19.5498 133.686 19.4649 133.895 19.421C134.105 19.3771 134.321 19.3751 134.531 19.4151C134.741 19.455 134.941 19.5362 135.119 19.6539C135.298 19.7716 135.451 19.9235 135.571 20.1009C135.832 20.4751 135.962 20.9251 135.941 21.3809V25.9309C135.948 26.1365 136.027 26.3331 136.164 26.4865C136.301 26.64 136.488 26.7406 136.691 26.7709C136.893 26.8042 137.101 26.769 137.281 26.6709C137.462 26.5981 137.611 26.4634 137.701 26.2909C137.797 26.102 137.845 25.8926 137.841 25.6809V20.4209C137.833 20.3217 137.846 20.222 137.881 20.1287C137.916 20.0354 137.97 19.9508 138.041 19.8809C138.068 19.8484 138.099 19.8183 138.131 19.7909C138.308 19.6284 138.519 19.5078 138.748 19.4379C138.978 19.368 139.22 19.3507 139.457 19.3872C139.695 19.4237 139.921 19.5131 140.118 19.6487C140.316 19.7844 140.481 19.9628 140.601 20.1709C140.835 20.504 140.973 20.8948 141.001 21.3009V26.0009C140.992 26.1905 141.03 26.3794 141.111 26.5509C141.21 26.7203 141.36 26.8542 141.54 26.9332C141.719 27.0122 141.919 27.0324 142.111 26.9909C142.308 26.9707 142.492 26.8823 142.631 26.7409C142.778 26.6106 142.877 26.4344 142.911 26.2409C142.921 26.1345 142.921 26.0273 142.911 25.9209V21.1909C142.911 20.9609 142.911 20.7409 142.911 20.5109C142.794 19.6755 142.416 18.8985 141.831 18.2909V18.3109ZM159.001 24.4309C158.916 24.0713 158.732 23.7425 158.471 23.4809C158.088 23.1053 157.573 22.8949 157.036 22.8949C156.499 22.8949 155.984 23.1053 155.601 23.4809C155.268 23.7849 155.047 24.1928 154.975 24.6382C154.902 25.0836 154.983 25.5404 155.203 25.9343C155.423 26.3282 155.77 26.6361 156.187 26.8079C156.604 26.9798 157.067 27.0055 157.501 26.8809C157.839 26.8105 158.151 26.6509 158.406 26.4187C158.661 26.1866 158.849 25.8904 158.951 25.5609C158.966 25.4896 158.986 25.4195 159.011 25.3509V24.5009C159.005 24.4779 159.002 24.4545 159.001 24.4309ZM158.711 24.9309C158.71 25.1527 158.664 25.3721 158.577 25.5762C158.49 25.7803 158.363 25.9651 158.204 26.1196C158.045 26.2742 157.857 26.3954 157.65 26.4763C157.443 26.5573 157.223 26.5962 157.001 26.5909C156.577 26.5581 156.18 26.3664 155.891 26.054C155.602 25.7416 155.441 25.3316 155.441 24.9059C155.441 24.4801 155.602 24.0701 155.891 23.7577C156.18 23.4453 156.577 23.2536 157.001 23.2209C157.223 23.2235 157.442 23.2698 157.646 23.3571C157.85 23.4445 158.035 23.5712 158.19 23.73C158.345 23.8888 158.468 24.0765 158.55 24.2826C158.633 24.4886 158.674 24.7089 158.671 24.9309H158.711ZM103.001 18.2809C102.475 17.7201 101.765 17.3655 101.001 17.2809C100.531 17.2219 100.054 17.2627 99.6007 17.4005C99.1476 17.5384 98.7286 17.7702 98.371 18.0809C98.3161 18.1961 98.2293 18.2933 98.121 18.3609C98.0835 18.3399 98.0497 18.3129 98.021 18.2809C97.7592 18.0345 97.4668 17.8228 97.151 17.6509C96.6235 17.3791 96.0337 17.2515 95.441 17.2809C94.9407 17.299 94.4513 17.4325 94.011 17.6709C93.2238 18.116 92.6184 18.8241 92.301 19.6709C92.1186 20.1265 92.0171 20.6104 92.001 21.1009C92.001 22.5909 92.001 24.1009 92.001 25.5909C92.001 25.7209 92.001 25.8509 92.001 25.9809C92.0212 26.1475 92.0909 26.3042 92.201 26.4309C92.306 26.5769 92.4577 26.6827 92.631 26.7309C92.8027 26.795 92.9895 26.8064 93.1677 26.7636C93.3458 26.7209 93.5072 26.6259 93.631 26.4909C93.8031 26.2876 93.8924 26.027 93.881 25.7609V21.3209C93.8613 20.8168 94.0327 20.3239 94.361 19.9409C94.5026 19.7662 94.6807 19.6247 94.8829 19.5262C95.085 19.4277 95.3062 19.3747 95.531 19.3709C95.7995 19.3581 96.0667 19.415 96.3067 19.5359C96.5467 19.6567 96.7514 19.8376 96.901 20.0609C96.9416 20.1288 96.9783 20.1989 97.011 20.2709C97.0484 20.3389 97.0818 20.409 97.111 20.4809C97.2212 20.7572 97.2723 21.0536 97.261 21.3509V25.8509C97.2631 26.0033 97.3048 26.1525 97.3819 26.284C97.459 26.4155 97.569 26.5247 97.701 26.6009C97.7983 26.6645 97.907 26.7086 98.021 26.7309C98.1402 26.7584 98.2638 26.7612 98.384 26.7388C98.5043 26.7165 98.6187 26.6696 98.72 26.6011C98.8214 26.5326 98.9075 26.444 98.9731 26.3407C99.0386 26.2374 99.0822 26.1217 99.101 26.0009C99.101 25.8609 99.101 25.7209 99.101 25.5909C99.101 23.8709 99.101 22.1309 99.101 20.4209C99.0903 20.3051 99.1074 20.1884 99.1509 20.0806C99.1944 19.9727 99.263 19.8768 99.351 19.8009L99.451 19.7009C99.6293 19.5378 99.8437 19.4192 100.077 19.3549C100.309 19.2906 100.554 19.2824 100.791 19.3309C101.087 19.3936 101.36 19.5353 101.581 19.7409C101.655 19.8118 101.719 19.8926 101.771 19.9809C102.043 20.3541 102.177 20.8099 102.151 21.2709V25.9009C102.146 26.0564 102.167 26.2117 102.211 26.3609C102.259 26.4608 102.323 26.552 102.401 26.6309C102.505 26.761 102.644 26.8579 102.803 26.9094C102.961 26.961 103.131 26.965 103.291 26.9209C103.489 26.8973 103.673 26.8038 103.808 26.6572C103.944 26.5105 104.023 26.3204 104.031 26.1209C104.041 26.0378 104.041 25.9539 104.031 25.8709V21.2209C104.039 20.9089 104.012 20.5969 103.951 20.2909C103.844 19.5404 103.513 18.8398 103.001 18.2809ZM152.681 18.2809C152.158 17.8027 151.515 17.4745 150.821 17.3309C150.266 17.211 149.693 17.1907 149.131 17.2709C148.944 17.2988 148.76 17.3423 148.581 17.4009L148.361 17.4509C148.103 17.5375 147.855 17.6515 147.621 17.7909C146.699 18.3469 145.993 19.2004 145.621 20.2109C145.319 21.0494 145.233 21.9504 145.371 22.8309C145.484 24.0585 146.068 25.1945 147.001 26.0009C147.669 26.57 148.505 26.9038 149.381 26.9509C150.071 26.9509 150.791 26.9509 151.481 26.9509C151.682 26.9501 151.876 26.88 152.031 26.7525C152.186 26.6249 152.292 26.4477 152.331 26.2509C152.341 26.0944 152.341 25.9374 152.331 25.7809C152.345 25.5549 152.27 25.3323 152.123 25.1606C151.975 24.9888 151.767 24.8813 151.541 24.8609C151.431 24.851 151.321 24.851 151.211 24.8609H149.621C149.307 24.8334 149.002 24.7432 148.724 24.5954C148.445 24.4477 148.2 24.2455 148.001 24.0009C147.69 23.6686 147.465 23.265 147.347 22.8256C147.228 22.3863 147.219 21.9245 147.321 21.4809C147.394 21.0691 147.565 20.6808 147.819 20.3485C148.073 20.0162 148.403 19.7496 148.781 19.5709C148.991 19.4775 149.213 19.4135 149.441 19.3809C149.666 19.3458 149.896 19.3458 150.121 19.3809C150.35 19.3905 150.577 19.4206 150.801 19.4709V19.5309L149.801 20.6509L149.071 21.4509C148.931 21.6067 148.844 21.8026 148.821 22.0109C148.802 22.1993 148.831 22.3894 148.904 22.564C148.978 22.7386 149.093 22.8922 149.241 23.0109C149.34 23.0969 149.457 23.1582 149.584 23.1895C149.711 23.2208 149.844 23.2213 149.971 23.1909C150.054 23.1698 150.135 23.1396 150.211 23.1009C150.329 23.0323 150.439 22.9519 150.541 22.8609C150.771 22.6209 150.991 22.3709 151.231 22.1309L153.001 20.2509C153.098 20.1576 153.175 20.0458 153.227 19.922C153.28 19.7983 153.307 19.6653 153.307 19.5309C153.307 19.3965 153.28 19.2634 153.227 19.1397C153.175 19.016 153.098 18.9042 153.001 18.8109C153.001 18.6209 152.801 18.4609 152.651 18.3309L152.681 18.2809ZM88.941 19.4609C88.8162 19.2411 88.6758 19.0306 88.521 18.8309V18.7709C88.3675 18.5823 88.2004 18.4051 88.021 18.2409C87.9969 18.2117 87.9701 18.185 87.941 18.1609C87.841 18.0809 87.741 18.0209 87.641 17.9509C87.5158 17.8542 87.3856 17.764 87.251 17.6809C87.0114 17.5593 86.7601 17.4621 86.501 17.3909C85.884 17.2273 85.2351 17.227 84.618 17.3901C84.0008 17.5531 83.4367 17.8739 82.981 18.3209C82.3897 18.8993 81.9619 19.6238 81.741 20.4209C81.56 21.0712 81.4857 21.7467 81.521 22.4209C81.5559 23.1104 81.7151 23.788 81.991 24.4209C82.3596 25.2548 82.9781 25.9537 83.761 26.4209C84.0406 26.5867 84.3442 26.7082 84.661 26.7809C84.9876 26.8638 85.3242 26.9008 85.661 26.8909C85.844 26.8806 86.0174 26.8062 86.151 26.6809C86.3362 26.4684 86.4479 26.2018 86.4695 25.9208C86.4911 25.6397 86.4215 25.3592 86.271 25.1209C86.2111 25.0271 86.1302 24.9485 86.0348 24.8912C85.9394 24.834 85.832 24.7996 85.721 24.7909C85.5566 24.7881 85.3927 24.7714 85.231 24.7409C84.9322 24.6904 84.6482 24.5746 84.3993 24.4017C84.1504 24.2289 83.9427 24.0032 83.791 23.7409C83.3714 23.0933 83.2174 22.309 83.361 21.5509C83.4752 20.8754 83.8305 20.2643 84.361 19.8309C84.5991 19.6355 84.8791 19.4977 85.1792 19.4284C85.4793 19.359 85.7913 19.3598 86.091 19.4309C86.4507 19.5202 86.777 19.7111 87.031 19.9809C87.2971 20.2411 87.5077 20.5524 87.6504 20.8961C87.793 21.2398 87.8646 21.6088 87.861 21.9809C87.861 23.2609 87.861 24.5309 87.861 25.8109C87.8642 26.0082 87.8979 26.2039 87.961 26.3909C88.0349 26.553 88.1573 26.6883 88.3114 26.7778C88.4655 26.8674 88.6435 26.9069 88.821 26.8909C88.9432 26.8911 89.0639 26.8643 89.1746 26.8124C89.2852 26.7605 89.383 26.6849 89.461 26.5909C89.6174 26.3693 89.6949 26.1017 89.681 25.8309V23.7409C89.681 23.2209 89.681 22.7409 89.681 22.1909C89.6811 21.8157 89.651 21.4412 89.591 21.0709C89.4699 20.5004 89.2499 19.9555 88.941 19.4609ZM68.421 17.6609C68.3681 17.5393 68.2817 17.4353 68.1719 17.361C68.0621 17.2866 67.9335 17.245 67.801 17.2409H67.691C67.3069 17.2285 66.9257 17.3109 66.581 17.4809H66.491C65.9241 17.7828 65.4556 18.2409 65.141 18.8009C64.7283 19.5148 64.5142 20.3262 64.521 21.1509V21.2509C64.521 21.9609 64.521 22.6609 64.521 23.3809V25.8009C64.5101 26.009 64.5442 26.2171 64.621 26.4109C64.6564 26.5065 64.7106 26.594 64.7805 26.6682C64.8504 26.7424 64.9345 26.8018 65.0277 26.8429C65.121 26.8839 65.2216 26.9058 65.3236 26.9072C65.4255 26.9085 65.5267 26.8894 65.621 26.8509C65.7449 26.8147 65.8571 26.7467 65.9465 26.6537C66.036 26.5608 66.0996 26.446 66.131 26.3209C66.1991 26.111 66.2329 25.8915 66.231 25.6709V21.2909C66.2323 21.1065 66.2491 20.9225 66.281 20.7409C66.3452 20.3946 66.5153 20.0768 66.7679 19.8314C67.0205 19.586 67.343 19.4251 67.691 19.3709C67.8216 19.3495 67.9492 19.3126 68.071 19.2609C68.1553 19.2377 68.2328 19.1947 68.2971 19.1356C68.3615 19.0765 68.4108 19.0029 68.441 18.9209C68.5322 18.7233 68.58 18.5085 68.581 18.2909C68.5788 18.0734 68.5311 17.8588 68.441 17.6609H68.421ZM127.761 17.2709C127.617 17.2276 127.464 17.2272 127.32 17.2699C127.176 17.3125 127.048 17.3963 126.951 17.5109C126.882 17.589 126.831 17.6811 126.801 17.7809C126.741 17.9408 126.711 18.1102 126.711 18.2809V26.0009C126.708 26.1825 126.742 26.3627 126.811 26.5309C126.869 26.7001 126.991 26.8399 127.151 26.9209C127.258 26.9804 127.379 27.0117 127.501 27.0117C127.624 27.0117 127.744 26.9804 127.851 26.9209L128.011 26.7909C128.05 26.7556 128.083 26.7152 128.111 26.6709V26.6009C128.113 26.5776 128.113 26.5542 128.111 26.5309C128.162 26.3554 128.189 26.1737 128.191 25.9909V22.1909C128.191 20.9409 128.191 19.6809 128.191 18.4009C128.19 18.2429 128.173 18.0855 128.141 17.9309C128.155 17.7949 128.126 17.6579 128.058 17.5394C127.99 17.4209 127.886 17.3269 127.761 17.2709ZM157.381 25.0009C157.512 24.9599 157.624 24.8746 157.699 24.7596C157.774 24.6446 157.807 24.5072 157.791 24.3709C157.78 24.2425 157.726 24.1216 157.637 24.0287C157.547 23.9358 157.429 23.8765 157.301 23.8609C157.221 23.8512 157.141 23.8512 157.061 23.8609H156.261C156.218 23.851 156.174 23.851 156.131 23.8609V26.0009H156.471V25.1209C156.598 25.0858 156.732 25.0954 156.853 25.1483C156.973 25.2011 157.071 25.2939 157.131 25.4109L157.441 25.9209C157.441 25.9209 157.501 26.0309 157.561 26.0309H157.941C157.763 25.6643 157.531 25.3271 157.251 25.0309L157.381 25.0009ZM156.481 24.7809V24.1509C156.713 24.1159 156.949 24.1159 157.181 24.1509C157.235 24.1604 157.286 24.1852 157.327 24.2224C157.367 24.2596 157.397 24.3076 157.411 24.3609C157.429 24.4364 157.418 24.5161 157.379 24.5833C157.34 24.6504 157.276 24.6998 157.201 24.7209C156.967 24.7859 156.724 24.8162 156.481 24.8109V24.7809Z" fill="#3C3831"/>
<path d="M131.891 11.1009C131.783 10.2554 131.478 9.44712 131.001 8.74087C130.668 8.24456 130.223 7.8332 129.702 7.53973C129.181 7.24627 128.598 7.07885 128.001 7.05087H127.811H127.371H127.201C126.622 7.10024 126.057 7.25264 125.531 7.50087C124.643 7.90172 123.932 8.61289 123.531 9.50087C123.279 10.0696 123.133 10.6797 123.101 11.3009C123.054 12.1417 123.208 12.9817 123.551 13.7509C123.863 14.4443 124.388 15.02 125.05 15.3941C125.712 15.7682 126.476 15.9212 127.231 15.8309C127.845 15.7583 128.428 15.5236 128.921 15.1509C129.469 14.7744 129.892 14.2431 130.136 13.625C130.38 13.0068 130.434 12.3299 130.291 11.6809C130.161 10.9094 129.743 10.2161 129.121 9.74087C128.867 9.52991 128.569 9.38042 128.248 9.3041C127.927 9.22777 127.592 9.22667 127.271 9.30087C127.087 9.33573 126.908 9.39633 126.741 9.48087C126.16 9.75603 125.711 10.2506 125.493 10.8561C125.276 11.4616 125.307 12.1286 125.581 12.7109C125.673 12.9261 125.81 13.1193 125.983 13.2779C126.155 13.4364 126.359 13.5567 126.581 13.6309C126.82 13.7203 127.077 13.7512 127.331 13.7209C127.613 13.6626 127.87 13.5207 128.07 13.3138C128.27 13.1068 128.403 12.8444 128.451 12.5609C128.474 12.4467 128.47 12.3289 128.441 12.2164C128.411 12.1038 128.357 11.9993 128.281 11.9109C128.236 11.8415 128.17 11.7879 128.093 11.7574C128.016 11.727 127.932 11.7212 127.851 11.7409C127.771 11.7607 127.698 11.8033 127.641 11.8637C127.584 11.924 127.546 11.9994 127.531 12.0809C127.481 12.213 127.481 12.3588 127.531 12.4909C127.559 12.5383 127.577 12.5915 127.582 12.6465C127.587 12.7015 127.579 12.7569 127.56 12.8087C127.541 12.8605 127.51 12.9073 127.471 12.9457C127.431 12.9842 127.383 13.0133 127.331 13.0309C127.249 13.073 127.158 13.095 127.066 13.095C126.974 13.095 126.883 13.073 126.801 13.0309C126.642 12.9442 126.513 12.8118 126.431 12.6509C126.307 12.4387 126.236 12.1999 126.224 11.9544C126.212 11.709 126.259 11.4642 126.361 11.2409C126.448 11.0154 126.597 10.8185 126.789 10.672C126.981 10.5255 127.21 10.4351 127.451 10.4109C127.79 10.3725 128.133 10.4417 128.431 10.6085C128.729 10.7754 128.967 11.0315 129.111 11.3409C129.322 11.7752 129.389 12.2659 129.301 12.7409C129.263 13.065 129.154 13.3768 128.981 13.6535C128.808 13.9303 128.576 14.165 128.301 14.3409C127.779 14.672 127.153 14.7981 126.544 14.6946C125.934 14.5912 125.385 14.2657 125.001 13.7809C124.677 13.3601 124.45 12.8731 124.336 12.3546C124.222 11.836 124.224 11.2987 124.341 10.7809C124.508 10.0729 124.914 9.44415 125.491 9.00087C125.801 8.73403 126.162 8.5334 126.553 8.4113C126.943 8.28921 127.354 8.24822 127.761 8.29087C128.3 8.32088 128.825 8.47854 129.291 8.75087C130.06 9.21832 130.64 9.9415 130.928 10.7936C131.217 11.6457 131.197 12.5723 130.871 13.4109L130.461 14.4809C130.421 14.6035 130.401 14.7318 130.401 14.8609C130.401 14.9809 130.461 15.0209 130.561 14.9609C130.696 14.8837 130.817 14.7858 130.921 14.6709C131.187 14.3759 131.4 14.0377 131.551 13.6709C131.902 12.8627 132.02 11.9725 131.891 11.1009Z" fill="#69A500"/>
</g>
<defs>
<clipPath id="clip0_144_1023">
<rect width="190" height="33" fill="white"/>
</clipPath>
</defs>
</svg>
