<svg width="190" height="33" viewBox="0 0 190 33" fill="none" xmlns="http://www.w3.org/2000/svg">
<g clip-path="url(#clip0_144_1022)">
<path d="M34.2801 4.90002C34.2019 4.51368 34.0881 4.1354 33.9401 3.77002C33.8073 3.38955 33.6222 3.02943 33.3901 2.70002C33.1673 2.34459 32.9129 2.00991 32.6301 1.70002C32.3325 1.40282 31.9961 1.14717 31.6301 0.940024C31.3019 0.750259 30.9611 0.583201 30.6101 0.440024C30.2432 0.296588 29.8653 0.182888 29.4801 0.100024C29.0912 0.0266559 28.6958 -0.00685085 28.3001 2.35382e-05H6.08011C5.6846 -0.00143313 5.28974 0.0320301 4.90011 0.100024C4.51673 0.181705 4.14178 0.298877 3.78011 0.450024C3.40092 0.592936 3.03871 0.777393 2.70011 1.00002C2.36484 1.22495 2.05026 1.47929 1.76011 1.76002C1.46662 2.03864 1.21109 2.35469 1.00011 2.70002C0.789846 3.04729 0.602771 3.40808 0.440111 3.78002C0.299852 4.14806 0.186226 4.5257 0.100111 4.91002C0.026325 5.29888 -0.00718535 5.6943 0.000110999 6.09002V27.09C-0.00796297 27.4862 0.0289396 27.8821 0.110111 28.27C0.185068 28.6572 0.29898 29.0358 0.450111 29.4C0.588496 29.7718 0.773293 30.1246 1.00011 30.45C1.22236 30.7904 1.47686 31.1085 1.76011 31.4C2.04343 31.6884 2.35882 31.9434 2.70011 32.16C3.04973 32.3631 3.41028 32.5467 3.78011 32.71C4.14654 32.855 4.52455 32.9687 4.91011 33.05C5.29896 33.1238 5.69439 33.1573 6.09011 33.15H28.3001C28.6956 33.1519 29.0905 33.1184 29.4801 33.05C29.8665 32.9718 30.2447 32.858 30.6101 32.71C30.987 32.5691 31.3462 32.3845 31.6801 32.16C32.0355 31.9372 32.3702 31.6828 32.6801 31.4C32.9686 31.1132 33.2236 30.7945 33.4401 30.45C33.6432 30.1039 33.8268 29.7466 33.9901 29.38C34.1322 29.0126 34.2458 28.6348 34.3301 28.25C34.4031 27.8611 34.4366 27.4657 34.4301 27.07V6.07002C34.4195 5.67598 34.3692 5.28401 34.2801 4.90002Z" fill="#81B441"/>
<path d="M22.89 6.57999C22.34 6.26999 20.7 6.46999 18.81 7.07999C16.878 8.33936 15.2832 10.0518 14.1643 12.0683C13.0453 14.0849 12.4362 16.3443 12.39 18.65C12.39 18.8 12.02 18.65 11.98 18.65C11.4555 17.6699 11.1386 16.5922 11.0491 15.4842C10.9597 14.3761 11.0995 13.2616 11.46 12.21C11.61 11.94 11.16 11.67 11.05 11.71C10.5384 12.2455 10.092 12.8397 9.71995 13.48C8.6536 15.4738 8.3995 17.8028 9.01082 19.9797C9.62214 22.1566 11.0515 24.0128 13 25.16C13.9548 25.7056 15.0102 26.052 16.1026 26.1785C17.195 26.3049 18.3017 26.2087 19.3559 25.8956C20.41 25.5825 21.3899 25.0591 22.2362 24.3569C23.0825 23.6547 23.7777 22.7883 24.28 21.81C26.75 17 24.38 7.42999 22.89 6.57999Z" fill="white"/>
<path d="M59.1749 13.144C58.485 13.122 57.7979 13.2425 57.1566 13.498C56.5153 13.7535 55.9337 14.1385 55.4479 14.6289C54.9621 15.1194 54.5826 15.7047 54.3333 16.3484C54.0839 16.9921 53.9699 17.6802 53.9984 18.3699C53.9697 19.0678 54.0873 19.7639 54.3437 20.4136C54.6 21.0632 54.9895 21.6521 55.487 22.1422C55.9845 22.6324 56.5791 23.0131 57.2325 23.2598C57.8859 23.5065 58.5836 23.6137 59.281 23.5747C59.9828 23.6045 60.6833 23.4886 61.3381 23.2342C61.9929 22.9798 62.5879 22.5925 63.0855 22.0967C63.2875 21.901 63.4065 21.6352 63.4179 21.3542C63.4204 21.2384 63.3984 21.1234 63.3533 21.0167C63.3082 20.9101 63.241 20.8142 63.1561 20.7354C63.0713 20.6565 62.9707 20.5966 62.8611 20.5594C62.7514 20.5222 62.6351 20.5087 62.5198 20.5197C62.3859 20.5225 62.254 20.5529 62.1324 20.6088C62.0107 20.6648 61.9019 20.7452 61.8126 20.845C61.4826 21.1761 61.0901 21.4385 60.658 21.6169C60.2259 21.7954 59.7626 21.8863 59.2951 21.8846C58.5051 21.909 57.7359 21.6291 57.1464 21.1027C56.5568 20.5763 56.1919 19.8436 56.127 19.0559H62.9158C63.623 19.0559 63.9907 18.7094 63.9907 18.0093C63.9907 17.8254 63.9907 17.6628 63.9907 17.3658C63.9108 16.1677 63.3588 15.0504 62.456 14.2588C61.5531 13.4673 60.3731 13.0664 59.1749 13.144ZM56.1199 17.486C56.2092 16.7374 56.5734 16.0487 57.1418 15.5534C57.7102 15.0582 58.4423 14.7917 59.1961 14.8058C59.5544 14.7856 59.9129 14.8409 60.2484 14.9681C60.5838 15.0953 60.8888 15.2917 61.1436 15.5444C61.3983 15.7971 61.597 16.1006 61.7269 16.4351C61.8568 16.7695 61.9149 17.1276 61.8975 17.486H56.1199ZM70.4896 13.1652C69.8332 13.151 69.1853 13.3152 68.6149 13.6402C68.0446 13.9653 67.5731 14.439 67.2507 15.0109V14.3462C67.2764 14.2036 67.2688 14.057 67.2285 13.9179C67.1882 13.7788 67.1163 13.6508 67.0184 13.5441C66.9205 13.4373 66.7993 13.3546 66.6642 13.3023C66.5291 13.2501 66.3837 13.2298 66.2395 13.243C66.1017 13.2379 65.9644 13.2628 65.837 13.3158C65.7097 13.3689 65.5954 13.449 65.502 13.5504C65.4086 13.6519 65.3383 13.7724 65.2959 13.9037C65.2535 14.035 65.2401 14.1738 65.2565 14.3108V22.323C65.2385 22.4655 65.2509 22.6102 65.2931 22.7475C65.3354 22.8848 65.4063 23.0115 65.5013 23.1192C65.5963 23.2269 65.7132 23.3132 65.8441 23.3722C65.9751 23.4312 66.1171 23.4617 66.2607 23.4615C66.4077 23.4652 66.5539 23.4376 66.6895 23.3807C66.8251 23.3237 66.947 23.2386 67.0473 23.1309C67.1475 23.0233 67.2238 22.8957 67.2711 22.7564C67.3183 22.6171 67.3355 22.4694 67.3215 22.323V18.0234C67.3215 16.1494 68.4034 14.8553 69.9521 14.8553C71.5008 14.8553 72.1797 15.8241 72.1797 17.7901V22.3018C72.1631 22.4483 72.1786 22.5968 72.2251 22.7367C72.2715 22.8767 72.3478 23.005 72.4487 23.1126C72.5496 23.2202 72.6726 23.3046 72.8093 23.36C72.946 23.4153 73.0931 23.4403 73.2404 23.4333C73.4526 23.4333 74.2517 23.3696 74.2517 22.3018V17.1465C74.2022 15.223 73.2404 13.144 70.4684 13.144L70.4896 13.1652ZM83.5722 13.2783C83.3346 13.2723 83.1027 13.3508 82.9175 13.4997C82.7324 13.6486 82.606 13.8583 82.5609 14.0916L79.7322 21.0996L76.9036 14.0916C76.8479 13.8515 76.713 13.6371 76.5205 13.4831C76.328 13.3292 76.0893 13.2446 75.8428 13.243C75.5775 13.2421 75.3216 13.3414 75.1262 13.521C74.9309 13.7006 74.8105 13.9473 74.7891 14.2118C74.7817 14.4144 74.8307 14.6152 74.9306 14.7917L78.1694 22.3584C78.27 22.6722 78.4677 22.946 78.734 23.1403C79.0002 23.3346 79.3213 23.4392 79.6509 23.4392C79.9805 23.4392 80.3016 23.3346 80.5679 23.1403C80.8341 22.946 81.0318 22.6722 81.1324 22.3584L84.4066 14.7846C84.4831 14.607 84.5308 14.4185 84.548 14.2259C84.5531 14.0943 84.5307 13.963 84.4822 13.8405C84.4338 13.718 84.3602 13.6069 84.2664 13.5144C84.1726 13.4219 84.0605 13.35 83.9373 13.3033C83.8141 13.2565 83.6825 13.236 83.5509 13.243L83.5722 13.2783ZM89.5831 13.1652C88.3419 13.1298 87.1222 13.4942 86.1038 14.2047C85.9663 14.291 85.8519 14.4095 85.7705 14.55C85.6892 14.6904 85.6434 14.8487 85.6371 15.0109C85.6333 15.1152 85.6504 15.2191 85.6872 15.3167C85.7241 15.4143 85.78 15.5036 85.8518 15.5793C85.9236 15.655 86.0097 15.7157 86.1052 15.7577C86.2007 15.7997 86.3036 15.8223 86.4079 15.8241C86.6397 15.817 86.8629 15.7352 87.0443 15.5908C87.7298 15.1237 88.5415 14.8769 89.3709 14.8836C90.9196 14.8836 91.7682 15.6403 91.7682 17.0051V17.2385C88.3102 17.2385 84.8592 17.6557 84.8592 20.5904C84.8592 22.7119 86.6908 23.6666 88.5011 23.6666C89.1498 23.6977 89.7958 23.5635 90.3784 23.2765C90.961 22.9896 91.4612 22.5592 91.8319 22.026V22.4361C91.8185 22.5717 91.8345 22.7086 91.8788 22.8375C91.9231 22.9663 91.9947 23.0841 92.0887 23.1828C92.1827 23.2814 92.2968 23.3587 92.4233 23.4092C92.5499 23.4598 92.6858 23.4824 92.8219 23.4757C92.9514 23.4739 93.0791 23.4446 93.1964 23.3897C93.3137 23.3348 93.418 23.2555 93.5023 23.1572C93.5865 23.0589 93.6489 22.9437 93.6853 22.8194C93.7216 22.695 93.731 22.5644 93.7129 22.4361V17.0758C93.7412 14.5795 92.1855 13.144 89.5619 13.144L89.5831 13.1652ZM91.7894 19.1337C91.8205 19.513 91.7686 19.8945 91.6374 20.2518C91.5062 20.6091 91.2989 20.9335 91.0297 21.2026C90.7606 21.4718 90.4362 21.6791 90.0789 21.8103C89.7216 21.9415 89.3401 21.9934 88.9608 21.9623C88.494 21.9623 86.9666 21.8633 86.9666 20.4773C86.9666 18.8579 89.4558 18.674 91.3581 18.674H91.7824L91.7894 19.1337ZM99.1369 15.1311C100.056 15.1311 100.077 14.4239 100.077 14.2967C100.081 14.1768 100.058 14.0578 100.01 13.9478C99.9627 13.8378 99.8915 13.7395 99.8019 13.66C99.7122 13.5804 99.6062 13.5215 99.4913 13.4873C99.3764 13.4532 99.2555 13.4446 99.1369 13.4622H97.2629V11.5458C97.2798 11.4029 97.2663 11.2581 97.2232 11.1209C97.1801 10.9837 97.1084 10.8571 97.0129 10.7496C96.9174 10.6421 96.8001 10.556 96.6689 10.4971C96.5377 10.4381 96.3955 10.4077 96.2517 10.4077C96.1078 10.4077 95.9656 10.4381 95.8344 10.4971C95.7032 10.556 95.586 10.6421 95.4904 10.7496C95.3949 10.8571 95.3232 10.9837 95.2801 11.1209C95.237 11.2581 95.2235 11.4029 95.2404 11.5458V20.3146C95.2404 22.3513 96.2517 23.412 98.1964 23.412C98.6449 23.4172 99.0906 23.3405 99.5117 23.1857C99.6718 23.1156 99.8095 23.0025 99.9093 22.8589C100.009 22.7154 100.067 22.5471 100.077 22.3725C100.078 22.2664 100.056 22.1613 100.014 22.0637C99.9729 21.9661 99.9118 21.8779 99.8352 21.8046C99.7585 21.7312 99.6677 21.6741 99.5684 21.6368C99.469 21.5995 99.3631 21.5828 99.2571 21.5875C99.136 21.5897 99.0162 21.6137 98.9035 21.6583C98.7633 21.6868 98.6217 21.708 98.4792 21.7219C97.7084 21.7219 97.3336 21.2127 97.3336 20.152V15.1099L99.1369 15.1311ZM105.996 13.1652C105.295 13.1292 104.594 13.2378 103.937 13.4843C103.279 13.7308 102.679 14.1099 102.175 14.5981C101.67 15.0862 101.271 15.673 101.003 16.3219C100.734 16.9707 100.602 17.6679 100.615 18.3699C100.607 19.0674 100.741 19.7592 101.008 20.4034C101.276 21.0477 101.671 21.6309 102.171 22.1179C103.212 23.079 104.58 23.6075 105.996 23.5959C106.698 23.6206 107.397 23.5037 108.052 23.252C108.707 23.0004 109.304 22.6193 109.809 22.1314C110.313 21.6436 110.714 21.059 110.987 20.4127C111.26 19.7664 111.401 19.0716 111.399 18.3699C111.41 17.6638 111.275 16.963 111.004 16.311C110.732 15.659 110.33 15.0697 109.821 14.5797C109.313 14.0897 108.709 13.7094 108.047 13.4625C107.386 13.2155 106.68 13.1071 105.975 13.144L105.996 13.1652ZM105.996 21.8351C105.548 21.8319 105.105 21.7378 104.694 21.5585C104.283 21.3791 103.912 21.1183 103.605 20.7918C103.298 20.4652 103.06 20.0797 102.905 19.6586C102.751 19.2375 102.684 18.7895 102.708 18.3417C102.679 17.8917 102.742 17.4404 102.894 17.0159C103.045 16.5913 103.283 16.2024 103.591 15.8733C103.899 15.5441 104.272 15.2818 104.686 15.1024C105.099 14.923 105.545 14.8305 105.996 14.8305C106.447 14.8305 106.893 14.923 107.307 15.1024C107.721 15.2818 108.093 15.5441 108.402 15.8733C108.71 16.2024 108.947 16.5913 109.099 17.0159C109.251 17.4404 109.314 17.8917 109.285 18.3417C109.214 20.7319 107.545 21.8138 105.975 21.8138L105.996 21.8351Z" fill="#121112"/>
<path d="M118.068 12.9814C117.251 12.966 116.449 13.2004 115.769 13.6532C115.046 14.1142 114.47 14.7716 114.107 15.5484C113.705 16.3687 113.504 17.2728 113.52 18.1861V18.6033C113.518 19.5209 113.736 20.4256 114.157 21.2411C114.543 22.0238 115.141 22.6828 115.882 23.1433C116.828 23.7477 117.963 23.9823 119.071 23.8023C120.178 23.6222 121.181 23.0402 121.886 22.1674C121.909 22.1355 121.926 22.0993 121.935 22.061C121.944 22.0226 121.945 21.9829 121.938 21.944C121.932 21.9052 121.917 21.8681 121.896 21.8348C121.875 21.8015 121.848 21.7728 121.815 21.7502L121.462 21.4956C121.398 21.4502 121.318 21.4314 121.24 21.4433C121.163 21.4552 121.092 21.4967 121.045 21.5593C120.741 21.957 120.346 22.275 119.892 22.4857C119.39 22.7082 118.843 22.8122 118.294 22.7898C117.65 22.7784 117.022 22.5847 116.483 22.2311C115.915 21.8716 115.459 21.3594 115.168 20.7531C114.841 20.0941 114.674 19.3673 114.68 18.6316V18.4053H121.886C121.968 18.4053 122.046 18.3735 122.104 18.3167C122.162 18.2599 122.196 18.1825 122.197 18.1012V17.5921C122.244 16.3766 121.833 15.1878 121.045 14.2613C120.676 13.838 120.218 13.5031 119.702 13.2815C119.187 13.0599 118.628 12.9573 118.068 12.9814ZM114.779 17.2244C114.896 16.3885 115.275 15.6112 115.861 15.0038C116.146 14.6905 116.495 14.4419 116.884 14.2748C117.273 14.1077 117.694 14.0259 118.117 14.035C118.663 14.0133 119.202 14.1562 119.666 14.4452C120.123 14.7586 120.495 15.1816 120.748 15.6757C120.985 16.1589 121.12 16.6863 121.144 17.2244H114.779ZM124.057 9H123.562C123.482 9.0018 123.406 9.03442 123.349 9.09106C123.293 9.1477 123.26 9.224 123.258 9.30408V23.3696C123.26 23.449 123.293 23.5246 123.35 23.5801C123.406 23.6356 123.483 23.6667 123.562 23.6666H124.057C124.13 23.6676 124.201 23.6425 124.256 23.5957C124.312 23.549 124.349 23.4839 124.361 23.4121V9.30408C124.36 9.224 124.327 9.1477 124.27 9.09106C124.214 9.03442 124.137 9.0018 124.057 9ZM129.905 12.9814C129.087 12.9668 128.283 13.201 127.6 13.6532C126.884 14.1164 126.315 14.7737 125.959 15.5484C125.554 16.3673 125.352 17.2724 125.373 18.1861V18.6033C125.37 19.5209 125.588 20.4256 126.009 21.2411C126.391 22.022 126.984 22.6808 127.72 23.1433C128.427 23.6206 129.265 23.8676 130.118 23.8505C130.809 23.8895 131.499 23.7562 132.126 23.4624C132.753 23.1686 133.298 22.7236 133.71 22.1674C133.733 22.1355 133.75 22.0993 133.758 22.061C133.767 22.0226 133.769 21.9829 133.762 21.944C133.755 21.9052 133.741 21.8681 133.72 21.8348C133.699 21.8015 133.672 21.7728 133.639 21.7502L133.286 21.4956C133.22 21.4498 133.14 21.4308 133.061 21.4426C132.982 21.4545 132.91 21.4963 132.861 21.5593C132.56 21.9584 132.164 22.2767 131.709 22.4857C131.208 22.7054 130.664 22.8094 130.118 22.7898C129.474 22.7784 128.846 22.5847 128.307 22.2311C127.735 21.8758 127.278 21.3625 126.992 20.7531C126.659 20.0958 126.49 19.3682 126.497 18.6316V18.4053H133.731C133.811 18.4035 133.888 18.3709 133.944 18.3143C134.001 18.2576 134.034 18.1813 134.035 18.1012V17.5921C134.086 16.3761 133.674 15.186 132.883 14.2613C132.514 13.838 132.056 13.5031 131.54 13.2815C131.025 13.0599 130.466 12.9573 129.905 12.9814ZM126.568 17.2244C126.715 16.3982 127.09 15.6294 127.65 15.0038C127.935 14.6905 128.283 14.4419 128.673 14.2748C129.062 14.1077 129.482 14.0259 129.905 14.035C130.45 14.0196 130.988 14.1621 131.454 14.4452C131.912 14.7586 132.284 15.1816 132.536 15.6757C132.774 16.1589 132.909 16.6863 132.932 17.2244H126.568ZM146.107 12.9814C145.252 12.9656 144.412 13.1991 143.688 13.6532C143.208 13.952 142.792 14.3439 142.465 14.8058C142.292 14.3033 141.965 13.8678 141.531 13.5612C140.87 13.1073 140.076 12.8859 139.275 12.9318C138.451 12.9134 137.642 13.1614 136.97 13.639C136.578 13.8712 136.242 14.1876 135.987 14.5654V13.3703C135.984 13.2915 135.95 13.2169 135.894 13.1618C135.837 13.1066 135.762 13.075 135.683 13.0733H135.167C135.087 13.0732 135.01 13.104 134.952 13.1594C134.894 13.2147 134.859 13.2902 134.856 13.3703V23.3201C134.858 23.4014 134.891 23.4788 134.949 23.5356C135.007 23.5924 135.086 23.6242 135.167 23.6242H135.683C135.763 23.6224 135.839 23.5898 135.896 23.5332C135.953 23.4765 135.985 23.4002 135.987 23.3201V17.0971C136.099 16.4692 136.356 15.876 136.737 15.3645C137.002 14.9527 137.368 14.6152 137.8 14.3839C138.231 14.1525 138.715 14.0349 139.205 14.0421C139.545 14.0076 139.889 14.0459 140.213 14.1544C140.537 14.2629 140.835 14.4392 141.086 14.6715C141.525 15.2558 141.738 15.979 141.687 16.7081V23.3908C141.689 23.4703 141.722 23.5458 141.778 23.6013C141.835 23.6568 141.912 23.6879 141.991 23.6879H142.486C142.565 23.6879 142.642 23.6568 142.699 23.6013C142.755 23.5458 142.788 23.4703 142.79 23.3908V16.7788C142.88 16.2613 143.099 15.7748 143.427 15.3645C143.73 14.9477 144.129 14.6104 144.591 14.3814C145.053 14.1523 145.563 14.0384 146.078 14.0492C146.413 14.0069 146.752 14.0431 147.07 14.1548C147.388 14.2665 147.676 14.4507 147.91 14.6927C148.351 15.3453 148.558 16.128 148.497 16.9132V23.3484C148.499 23.4278 148.532 23.5034 148.588 23.5589C148.645 23.6144 148.722 23.6454 148.801 23.6454H149.296C149.375 23.6363 149.449 23.6057 149.511 23.5571C149.574 23.5084 149.622 23.4436 149.65 23.3696V16.9132C149.736 15.8486 149.418 14.7905 148.759 13.9502C148.411 13.609 147.995 13.346 147.537 13.1789C147.08 13.0118 146.592 12.9445 146.107 12.9814ZM154.911 12.9814C154.094 12.966 153.292 13.2004 152.613 13.6532C151.901 14.1233 151.332 14.7786 150.965 15.5484C150.563 16.3687 150.362 17.2728 150.378 18.1861V18.6033C150.379 19.5205 150.597 20.4243 151.014 21.2411C151.402 22.021 151.996 22.6792 152.733 23.1433C153.437 23.6205 154.272 23.8675 155.123 23.8505C155.815 23.8902 156.505 23.7571 157.132 23.4633C157.759 23.1694 158.303 22.7241 158.715 22.1674C158.744 22.1364 158.765 22.0995 158.778 22.0593C158.79 22.0192 158.794 21.9768 158.789 21.9351C158.783 21.8934 158.769 21.8534 158.746 21.8178C158.724 21.7822 158.694 21.7519 158.659 21.729L158.312 21.4744C158.247 21.4286 158.166 21.4096 158.088 21.4214C158.009 21.4333 157.937 21.475 157.888 21.5381C157.585 21.9358 157.189 22.2537 156.735 22.4645C156.233 22.6869 155.686 22.791 155.137 22.7685C154.495 22.7581 153.869 22.5643 153.334 22.2099C152.762 21.8546 152.305 21.3412 152.019 20.7319C151.686 20.0746 151.516 19.347 151.524 18.6104V18.3841H158.758C158.838 18.3823 158.914 18.3497 158.971 18.293C159.028 18.2364 159.06 18.1601 159.062 18.08V17.5709C159.109 16.3554 158.698 15.1666 157.909 14.2401C157.537 13.8178 157.074 13.4852 156.554 13.2672C156.035 13.0492 155.473 12.9515 154.911 12.9814ZM151.58 17.2244C151.725 16.3972 152.1 15.6277 152.662 15.0038C152.946 14.6907 153.293 14.4421 153.681 14.275C154.069 14.1078 154.489 14.026 154.911 14.035C155.458 14.0183 155.999 14.1608 156.467 14.4452C156.924 14.757 157.294 15.1806 157.542 15.6757C157.782 16.1584 157.919 16.6858 157.945 17.2244H151.58ZM164.352 12.9814C163.531 12.9722 162.727 13.2194 162.053 13.6885C161.693 13.9622 161.376 14.2888 161.113 14.6573V13.4693C161.111 13.3892 161.078 13.3129 161.022 13.2563C160.965 13.1996 160.889 13.167 160.809 13.1652H160.314C160.234 13.167 160.157 13.1996 160.101 13.2563C160.044 13.3129 160.011 13.3892 160.01 13.4693V23.4121C160.011 23.4921 160.044 23.5684 160.101 23.6251C160.157 23.6817 160.234 23.7143 160.314 23.7161H160.809C160.889 23.7143 160.965 23.6817 161.022 23.6251C161.078 23.5684 161.111 23.4921 161.113 23.4121V17.0476C161.284 16.2392 161.693 15.5004 162.287 14.9261C162.55 14.6551 162.865 14.4413 163.215 14.2977C163.564 14.1541 163.939 14.084 164.316 14.0916C164.65 14.0621 164.986 14.1042 165.302 14.2152C165.618 14.3262 165.906 14.5035 166.148 14.7351C166.593 15.3616 166.801 16.1262 166.735 16.892V23.3696C166.737 23.449 166.769 23.5246 166.826 23.5801C166.883 23.6356 166.959 23.6667 167.039 23.6666H167.534C167.612 23.6575 167.687 23.6269 167.749 23.5783C167.812 23.5297 167.859 23.4648 167.887 23.3908V16.9132C167.937 15.8549 167.628 14.8109 167.011 13.9502C166.662 13.6088 166.244 13.3458 165.786 13.1787C165.327 13.0117 164.838 12.9444 164.352 12.9814ZM173.417 22.719C172.385 22.8322 171.798 22.811 171.536 22.422C171.296 21.9915 171.19 21.4989 171.232 21.0077V14.2755H173.205C173.247 14.2756 173.288 14.2671 173.327 14.2505C173.365 14.2339 173.4 14.2096 173.428 14.179C173.457 14.1485 173.479 14.1124 173.493 14.0731C173.507 14.0337 173.512 13.9918 173.509 13.9502V13.4622C173.509 13.3816 173.477 13.3042 173.42 13.2472C173.363 13.1902 173.286 13.1581 173.205 13.1581H171.232V10.8033C171.23 10.7239 171.198 10.6483 171.141 10.5928C171.084 10.5373 171.008 10.5062 170.928 10.5063H170.412C170.333 10.5062 170.256 10.5373 170.199 10.5928C170.143 10.6483 170.11 10.7239 170.108 10.8033V13.1864H168.559C168.479 13.1864 168.401 13.2185 168.344 13.2755C168.287 13.3325 168.255 13.4099 168.255 13.4905V13.9502C168.257 14.0296 168.29 14.1051 168.347 14.1606C168.404 14.2161 168.48 14.2472 168.559 14.2472H170.108V21.0501C170.059 21.7923 170.261 22.5293 170.681 23.1433C170.904 23.3959 171.183 23.5918 171.497 23.7147C171.811 23.8377 172.149 23.8842 172.484 23.8505C172.886 23.8596 173.288 23.8383 173.686 23.7869C173.751 23.7557 173.804 23.7044 173.837 23.6407C173.87 23.5769 173.882 23.5042 173.87 23.4333L173.778 22.9736C173.763 22.8928 173.716 22.8211 173.649 22.7736C173.582 22.7262 173.499 22.7066 173.417 22.719ZM180.489 18.5326C179.841 18.1924 179.145 17.9539 178.424 17.8254C177.798 17.6875 177.185 17.4934 176.593 17.2456C176.269 17.136 175.984 16.9345 175.772 16.6657C175.597 16.4086 175.514 16.0992 175.539 15.7888C175.542 15.55 175.604 15.3156 175.718 15.106C175.833 14.8965 175.997 14.7181 176.197 14.5866C176.758 14.213 177.426 14.0342 178.099 14.0775C178.83 14.0549 179.548 14.2736 180.143 14.6998C180.378 14.8519 180.57 15.0617 180.702 15.3093C180.833 15.5569 180.898 15.834 180.892 16.1141C180.894 16.1942 180.927 16.2705 180.983 16.3271C181.04 16.3838 181.116 16.4164 181.196 16.4182H181.713C181.754 16.4147 181.795 16.4028 181.832 16.3834C181.868 16.3639 181.901 16.3372 181.927 16.3049C181.954 16.2726 181.973 16.2353 181.985 16.1952C181.997 16.1551 182 16.1131 181.995 16.0717C182.002 15.6313 181.906 15.1956 181.714 14.799C181.523 14.4025 181.241 14.0561 180.892 13.7875C180.065 13.2086 179.072 12.9156 178.064 12.9531C177.127 12.914 176.203 13.1822 175.433 13.7168C175.1 13.9409 174.829 14.2446 174.644 14.6003C174.458 14.956 174.365 15.3524 174.372 15.7534C174.358 16.1196 174.426 16.4843 174.573 16.82C174.72 17.1556 174.942 17.4535 175.221 17.6911C176.045 18.2453 176.982 18.61 177.965 18.7589C179.916 19.1761 180.857 19.8479 180.857 20.8804C180.854 21.1317 180.788 21.3782 180.664 21.597C180.54 21.8158 180.363 21.9999 180.15 22.1321C179.561 22.5253 178.862 22.7187 178.156 22.6837C177.4 22.7289 176.648 22.5519 175.992 22.1745C175.754 22.0235 175.558 21.8144 175.423 21.567C175.289 21.3196 175.219 21.0419 175.221 20.7602C175.22 20.7203 175.211 20.6809 175.195 20.6443C175.179 20.6078 175.156 20.5748 175.127 20.5472C175.098 20.5196 175.064 20.498 175.027 20.4836C174.989 20.4692 174.95 20.4622 174.91 20.4632H174.422C174.382 20.4622 174.342 20.4692 174.305 20.4836C174.267 20.498 174.233 20.5196 174.205 20.5472C174.176 20.5748 174.152 20.6078 174.136 20.6443C174.12 20.6809 174.111 20.7203 174.111 20.7602C174.108 21.1955 174.214 21.6246 174.419 22.0086C174.624 22.3927 174.921 22.7195 175.284 22.9595C176.14 23.5405 177.15 23.851 178.184 23.8505C179.134 23.8851 180.074 23.6391 180.885 23.1433C181.236 22.9145 181.523 22.5992 181.718 22.2277C181.912 21.8562 182.008 21.441 181.995 21.0218C182.025 20.5119 181.902 20.0047 181.642 19.5651C181.341 19.127 180.935 18.7718 180.461 18.5326H180.489Z" fill="#84B840"/>
</g>
<defs>
<clipPath id="clip0_144_1022">
<rect width="190" height="33" fill="white"/>
</clipPath>
</defs>
</svg>
