<svg width="145" height="25" viewBox="0 0 145 25" fill="none" xmlns="http://www.w3.org/2000/svg">
<g clip-path="url(#clip0_6580_25207)">
<path d="M57.8464 22.3453H54.2489V2.81053H57.8464V22.3453ZM73.6576 22.3453H70.1507V20.9027C69.1757 22.0851 67.6868 22.7543 66.1375 22.6874C62.4416 22.6874 59.6679 19.7055 59.6679 15.7569C59.6679 11.8083 62.4719 8.82638 66.1375 8.82638C67.6944 8.77433 69.1833 9.44358 70.1507 10.6408V9.19819H73.6576V22.3453ZM63.3335 15.7569C63.3335 17.7646 64.6712 19.3932 66.7723 19.3932C68.8734 19.3932 70.2112 17.8539 70.2112 15.7569C70.2112 13.6524 68.8054 12.1206 66.7723 12.1206C64.7317 12.1206 63.3637 13.7491 63.3637 15.7569H63.3335ZM91.6001 4.87778C91.6001 7.88942 87.0124 7.88942 87.0124 4.87778C87.0124 4.28289 87.2543 3.70287 87.6851 3.27901C88.1159 2.85514 88.6979 2.61719 89.31 2.61719C89.9147 2.61719 90.5042 2.85514 90.935 3.27901C91.3582 3.70287 91.6001 4.28289 91.6001 4.87778ZM91.1164 22.3453H87.481V9.17588H91.1164V22.3453Z" fill="black"/>
<path d="M52.4274 6.1643C51.6263 5.8148 50.7495 5.65864 49.8804 5.72557C48.8601 5.85198 48.3234 6.35021 48.3234 7.57717V9.17595H52.4652V12.3438H48.3234V22.3751H44.7183V12.3438H42.2318V9.20569H44.7183V7.54743C44.7183 4.44655 46.3735 2.43879 49.4949 2.43879C50.5152 2.42391 51.5204 2.61725 52.4576 3.00393L52.4274 6.1643Z" fill="black"/>
<path d="M82.8631 19.4007C81.7446 19.4007 80.8527 18.8058 80.8527 17.1773V12.3438H85.6974V9.20572H80.8527V5.28687H77.2476V9.20572H75.4337V12.3438H77.2476V17.4227C77.2476 20.8433 78.9406 22.6949 82.2509 22.6949C83.4451 22.7172 84.6317 22.4421 85.6898 21.9141L84.3218 19.0586C83.8683 19.2594 83.3695 19.3784 82.8631 19.4007ZM119.134 15.757C119.134 19.7056 116.042 22.6875 111.901 22.6875C107.759 22.6875 104.668 19.7428 104.668 15.757C104.668 11.7712 107.729 8.82648 111.901 8.82648C116.073 8.83391 119.134 11.8084 119.134 15.757ZM108.326 15.757C108.326 17.8912 109.86 19.3933 111.863 19.3933C113.873 19.3933 115.43 17.8837 115.43 15.757C115.43 13.6228 113.896 12.1207 111.863 12.1207C109.822 12.1207 108.356 13.6228 108.356 15.757H108.326ZM133.599 13.9723V22.3454H129.964V15.1026C129.964 13.1915 129.012 12.1579 127.349 12.1579C125.694 12.1579 124.515 13.1618 124.515 15.1398V22.3529H120.948V9.17598H124.454V10.7153C125.407 9.30239 126.88 8.80417 128.377 8.80417C131.43 8.83391 133.599 10.9309 133.599 13.9723Z" fill="black"/>
<path d="M102.914 18.0473C102.249 18.7983 101.312 19.2742 100.299 19.3635H100.012L99.4377 19.2965C98.4098 19.1255 97.5255 18.4711 97.0796 17.5416C96.8151 16.969 96.679 16.3518 96.6941 15.7272C96.679 15.0877 96.8226 14.4556 97.1098 13.8756C97.5784 12.9535 98.4627 12.3065 99.4981 12.1504H100.261C101.289 12.2099 102.249 12.6858 102.907 13.4666L104.66 10.4549C103.92 9.81543 103.035 9.35439 102.083 9.10899C101.448 8.9454 100.798 8.85616 100.141 8.85616C99.3319 8.84873 98.5232 8.96771 97.7522 9.19823C96.7999 9.48824 95.9308 9.97902 95.2052 10.6408C93.7768 11.9794 92.9908 13.8458 93.0361 15.7867C92.9908 17.7126 93.7617 19.5642 95.175 20.8953C95.9006 21.5571 96.7773 22.0479 97.722 22.3379C98.5156 22.5908 99.3394 22.7172 100.178 22.7097C100.843 22.7097 101.509 22.6279 102.151 22.4569C103.111 22.1966 103.995 21.7282 104.736 21.0738L102.914 18.0473Z" fill="black"/>
<path d="M15.3785 8.89334H9.19608L7.2537 5.59912H17.3208L20.2533 0.579712H3.61834C2.55267 0.579712 1.56258 1.13742 1.04109 2.05207C0.496915 2.96672 0.496915 4.08958 1.04109 4.99679L11.6524 23.089C12.189 23.9887 13.1715 24.539 14.2372 24.539C15.2953 24.539 16.2779 23.9887 16.8145 23.089L17.1621 22.4941L12.2873 14.1507L15.3785 8.89334Z" fill="#61BA8F"/>
<path d="M27.456 2.05952C26.927 1.14487 25.9369 0.587158 24.8712 0.587158H24.1381L16.1796 14.1581L19.1121 19.1776L27.4636 4.97449C27.9926 4.07472 27.9926 2.95929 27.456 2.05952Z" fill="#61BA8F"/>
</g>
<defs>
<clipPath id="clip0_6580_25207">
<rect width="143.6" height="24.5393" fill="white" transform="translate(0.632957 0.297119)"/>
</clipPath>
</defs>
</svg>
