<svg width="190" height="33" viewBox="0 0 190 33" fill="none" xmlns="http://www.w3.org/2000/svg">
<g clip-path="url(#clip0_144_1021)">
<path d="M34.2811 4.90088C34.2028 4.51453 34.089 4.13625 33.9411 3.77088C33.8083 3.39041 33.6232 3.03028 33.3911 2.70088C33.1682 2.34544 32.9139 2.01076 32.6311 1.70088C32.3335 1.40367 31.9971 1.14803 31.6311 0.940878C31.3029 0.751113 30.9621 0.584055 30.6111 0.440878C30.2441 0.297442 29.8663 0.183742 29.4811 0.100878C29.0922 0.0275104 28.6968 -0.00599636 28.3011 0.00087803H6.08109C5.68558 -0.000578634 5.29071 0.0328846 4.90109 0.100878C4.51771 0.182559 4.14276 0.299731 3.78109 0.450878C3.40189 0.593791 3.03969 0.778248 2.70109 1.00088C2.36581 1.2258 2.05124 1.48014 1.76109 1.76088C1.46759 2.0395 1.21206 2.35555 1.00109 2.70088C0.790823 3.04814 0.603748 3.40893 0.441088 3.78088C0.300829 4.14891 0.187203 4.52655 0.101088 4.91088C0.0273016 5.29973 -0.00620879 5.69515 0.00108756 6.09088V27.0909C-0.00698641 27.4871 0.0299162 27.883 0.111088 28.2709C0.186044 28.658 0.299957 29.0366 0.451088 29.4009C0.589473 29.7726 0.774269 30.1254 1.00109 30.4509C1.22587 30.7894 1.4802 31.1073 1.76109 31.4009C2.04441 31.6892 2.3598 31.9442 2.70109 32.1609C3.05071 32.3639 3.41125 32.5475 3.78109 32.7109C4.14751 32.8558 4.52552 32.9696 4.91109 33.0509C5.29994 33.1247 5.69536 33.1582 6.09109 33.1509H28.3011C28.6966 33.1528 29.0915 33.1193 29.4811 33.0509C29.8674 32.9726 30.2457 32.8588 30.6111 32.7109C30.988 32.57 31.3471 32.3854 31.6811 32.1609C32.0365 31.938 32.3712 31.6837 32.6811 31.4009C32.9696 31.114 33.2246 30.7953 33.4411 30.4509C33.6442 30.1047 33.8278 29.7475 33.9911 29.3809C34.1332 29.0135 34.2468 28.6357 34.3311 28.2509C34.404 27.8619 34.4375 27.4666 34.4311 27.0709V6.07088C34.4204 5.67684 34.3702 5.28486 34.2811 4.90088V4.90088Z" fill="#1273EB"/>
<path d="M13.6813 10.5709C15.6511 9.64042 17.8741 9.39068 20.0013 9.86086L20.2213 8.86086C19.4625 8.69601 18.6878 8.61552 17.9113 8.62086H17.1813L17.0813 7.73086C17.2659 7.59941 17.4003 7.40917 17.4626 7.1913C17.5249 6.97344 17.5114 6.74087 17.4243 6.53171C17.3371 6.32254 17.1815 6.14917 16.9829 6.04001C16.7843 5.93085 16.5546 5.89236 16.3313 5.93086C16.1167 5.9553 15.9159 6.04854 15.7587 6.19663C15.6015 6.34472 15.4965 6.53971 15.4594 6.75243C15.4222 6.96516 15.455 7.18419 15.5526 7.37677C15.6503 7.56936 15.8077 7.72516 16.0013 7.82086L16.0913 8.70086C15.0833 8.87082 14.1038 9.18046 13.1813 9.62086L13.6813 10.5709ZM10.1413 11.8109C9.52911 12.4337 9.00432 13.1368 8.58129 13.9009L7.92129 13.5609C7.86777 13.3637 7.7458 13.192 7.57722 13.0766C7.40865 12.9611 7.20448 12.9095 7.00129 12.9309C6.89161 12.9433 6.78546 12.9772 6.68891 13.0307C6.59235 13.0842 6.50728 13.1561 6.43855 13.2425C6.36983 13.3289 6.3188 13.4279 6.28838 13.534C6.25797 13.6401 6.24876 13.7512 6.26129 13.8609C6.27457 13.9771 6.31143 14.0894 6.36963 14.191C6.42782 14.2925 6.50612 14.3811 6.59973 14.4513C6.69334 14.5215 6.8003 14.5718 6.91405 14.5993C7.0278 14.6267 7.14596 14.6307 7.26129 14.6109C7.35022 14.597 7.43739 14.5735 7.52129 14.5409L8.16129 14.8809C7.79741 15.6687 7.54498 16.5034 7.41129 17.3609L8.48129 17.5509C8.80502 15.694 9.68359 13.9787 11.0013 12.6309L10.1413 11.8109ZM17.1413 23.1009C16.5913 23.1009 16.0513 23.1509 15.5013 23.1509C14.3301 23.1779 13.1589 23.1009 12.0013 22.9209C11.3919 22.8293 10.7902 22.6923 10.2013 22.5109C11.0523 24.0218 12.3336 25.2454 13.8821 26.026C15.4306 26.8067 17.1763 27.109 18.8972 26.8946C20.618 26.6801 22.2361 25.9586 23.5457 24.8219C24.8553 23.6851 25.7971 22.1845 26.2513 20.5109C25.1672 21.2008 23.9972 21.7455 22.7713 22.1309C20.9416 22.689 19.0513 23.0247 17.1413 23.1309V23.1009ZM27.2613 12.1809C27.371 12.1684 27.4771 12.1345 27.5737 12.081C27.6702 12.0276 27.7553 11.9556 27.824 11.8692C27.8927 11.7828 27.9438 11.6838 27.9742 11.5777C28.0046 11.4716 28.0138 11.3605 28.0013 11.2509V11.2509C27.9689 11.0381 27.858 10.8452 27.6904 10.7103C27.5227 10.5754 27.3106 10.5082 27.0959 10.522C26.8811 10.5358 26.6794 10.6296 26.5304 10.7849C26.3814 10.9402 26.2961 11.1457 26.2913 11.3609L25.6913 11.8909C25.0903 11.2745 24.4191 10.7307 23.6913 10.2709L23.1213 11.1709C24.7171 12.1757 25.98 13.63 26.7513 15.3509L27.7513 14.9209C27.3961 14.1377 26.9497 13.3993 26.4213 12.7209L26.9813 12.2109C27.0757 12.2184 27.1706 12.2082 27.2613 12.1809V12.1809ZM17.9113 10.7309C15.6452 10.7175 13.4662 11.6022 11.8507 13.1914C10.2353 14.7806 9.31505 16.9449 9.29129 19.2109C9.29055 19.8126 9.35425 20.4127 9.48129 21.0009C10.4813 21.6809 13.3213 22.2609 17.0613 22.0009C21.1513 21.7509 24.5513 20.6209 26.5113 18.9109C26.5113 18.6309 26.5113 18.3609 26.4513 18.0809C26.1545 16.0314 25.1264 14.1585 23.5568 12.8076C21.9873 11.4567 19.9821 10.7191 17.9113 10.7309V10.7309ZM17.4613 17.3909C17.4633 17.913 17.3104 18.424 17.0219 18.8592C16.7335 19.2945 16.3224 19.6344 15.8408 19.836C15.3592 20.0377 14.8286 20.092 14.3161 19.992C13.8036 19.8921 13.3322 19.6425 12.9616 19.2747C12.591 18.9069 12.3378 18.4374 12.234 17.9257C12.1302 17.414 12.1805 16.883 12.3785 16.3998C12.5764 15.9167 12.9132 15.5031 13.3463 15.2113C13.7793 14.9196 14.2892 14.7628 14.8113 14.7609C15.1587 14.7569 15.5035 14.822 15.8255 14.9525C16.1475 15.0831 16.4403 15.2763 16.6869 15.5211C16.9335 15.7658 17.129 16.0572 17.2619 16.3782C17.3949 16.6992 17.4626 17.0434 17.4613 17.3909V17.3909ZM21.5813 18.7309C21.1994 18.7346 20.8248 18.6255 20.5046 18.4173C20.1844 18.2091 19.9328 17.911 19.7813 17.5604C19.6298 17.2097 19.5852 16.8222 19.6531 16.4463C19.7209 16.0705 19.8982 15.723 20.1627 15.4474C20.4272 15.1719 20.7672 14.9806 21.14 14.8975C21.5128 14.8143 21.9018 14.8431 22.2583 14.9801C22.6148 15.1172 22.923 15.3564 23.1441 15.6679C23.3652 15.9793 23.4895 16.3491 23.5013 16.7309C23.5135 16.99 23.4728 17.2489 23.3817 17.4918C23.2906 17.7347 23.1509 17.9565 22.9713 18.1436C22.7916 18.3308 22.5757 18.4794 22.3367 18.5803C22.0977 18.6813 21.8407 18.7325 21.5813 18.7309V18.7309Z" fill="white"/>
<path d="M62.681 6.70088C63.6804 6.63033 64.682 6.80185 65.601 7.20088V3.62088C64.5401 3.19368 63.4045 2.98288 62.261 3.00088C58.731 3.00088 56.831 5.27088 56.831 8.76088V10.5909H54.001V14.1409H56.831V25.4409H60.921V14.1309H65.621V10.5809H60.921V8.78088C60.879 8.52524 60.893 8.26353 60.9621 8.01383C61.0311 7.76413 61.1535 7.5324 61.3209 7.33463C61.4882 7.13686 61.6965 6.97778 61.9313 6.86836C62.1661 6.75894 62.4219 6.7018 62.681 6.70088V6.70088ZM75.371 10.2309C74.5491 10.1714 73.7256 10.3241 72.9797 10.6743C72.2337 11.0245 71.5903 11.5605 71.111 12.2309V10.6109H67.111V25.4609H71.211V17.3809C71.211 15.1409 72.491 14.0209 74.401 14.0209C74.766 14.0127 75.131 14.0395 75.491 14.1009L77.621 10.9409C76.971 10.4603 76.1791 10.2104 75.371 10.2309V10.2309ZM84.301 10.2309C79.771 10.2309 76.661 13.4209 76.661 18.0909C76.661 22.7609 79.881 25.8709 84.501 25.8709C86.8572 25.966 89.1609 25.1576 90.941 23.6109L88.561 21.0009C87.4916 21.8974 86.1463 22.3988 84.751 22.4209C83.8323 22.4995 82.9182 22.2245 82.1953 21.6521C81.4724 21.0798 80.9952 20.2531 80.861 19.3409H91.591C91.6476 18.8965 91.6744 18.4488 91.671 18.0009V18.0009C91.641 13.3709 88.671 10.2009 84.301 10.2009V10.2309ZM80.921 16.6509C80.9801 15.8027 81.3713 15.012 82.0097 14.4503C82.648 13.8887 83.4821 13.6014 84.331 13.6509C86.071 13.6509 87.221 14.7109 87.611 16.6509H80.921ZM100.441 10.2309C95.901 10.2309 92.791 13.4209 92.791 18.0909C92.791 22.7609 96.011 25.8709 100.631 25.8709C102.987 25.966 105.291 25.1576 107.071 23.6109L104.691 21.0009C103.628 21.901 102.284 22.4031 100.891 22.4209C99.9738 22.4997 99.061 22.2261 98.3383 21.6558C97.6157 21.0855 97.1375 20.2613 97.001 19.3509H107.731C107.79 18.9034 107.813 18.452 107.801 18.0009V18.0009C107.781 13.3709 104.811 10.2009 100.441 10.2009V10.2309ZM97.001 16.6209C97.0749 15.7766 97.4718 14.9934 98.1089 14.4345C98.746 13.8756 99.5743 13.5842 100.421 13.6209C102.151 13.6209 103.301 14.6809 103.691 16.6209H97.001ZM118.061 10.2309C117.206 10.1916 116.353 10.3519 115.57 10.699C114.787 11.0461 114.096 11.5706 113.551 12.2309V10.6109H109.551V31.6109H113.611V23.9109C114.157 24.5496 114.842 25.0554 115.613 25.3898C116.384 25.7242 117.221 25.8785 118.061 25.8409C122.241 25.8409 125.371 22.4609 125.371 18.0109C125.391 13.5609 122.261 10.2009 118.081 10.2309H118.061ZM121.231 18.5609C121.145 19.588 120.658 20.5399 119.876 21.2107C119.093 21.8814 118.078 22.2169 117.05 22.1446C116.021 22.0723 115.063 21.598 114.382 20.8243C113.701 20.0506 113.352 19.0399 113.411 18.0109C113.411 17.9109 113.411 17.8109 113.411 17.7009C113.415 17.1758 113.525 16.6568 113.734 16.175C113.942 15.6931 114.246 15.258 114.626 14.8957C115.006 14.5333 115.455 14.251 115.946 14.0655C116.438 13.8801 116.961 13.7952 117.486 13.816C118.011 13.8367 118.526 13.9627 119.001 14.1865C119.476 14.4102 119.901 14.7271 120.252 15.1184C120.602 15.5097 120.87 15.9673 121.04 16.4642C121.21 16.9611 121.278 17.4871 121.241 18.0109C121.254 18.1939 121.258 18.3775 121.251 18.5609H121.231ZM127.311 25.4309H131.401V10.5809H127.311V25.4309ZM129.311 3.15088C128.971 3.14824 128.634 3.21263 128.318 3.34036C128.003 3.46809 127.716 3.65666 127.474 3.89531C127.231 4.13396 127.038 4.41801 126.906 4.73124C126.773 5.04447 126.704 5.38075 126.701 5.72088C126.714 6.40607 126.998 7.05812 127.491 7.5342C127.984 8.01028 128.646 8.27159 129.331 8.26088H129.451C129.786 8.26488 130.119 8.20199 130.429 8.07588C130.74 7.94978 131.022 7.76299 131.259 7.52647C131.497 7.28994 131.685 7.00842 131.812 6.69838C131.939 6.38835 132.004 6.05603 132.001 5.72088V5.72088C131.997 5.37514 131.924 5.03363 131.787 4.71635C131.65 4.39906 131.45 4.11237 131.201 3.87306C130.951 3.63374 130.656 3.44661 130.334 3.3226C130.011 3.1986 129.667 3.14022 129.321 3.15088H129.311ZM141.521 17.5709L148.861 10.5709H143.861L138.171 15.8409H138.121V3.35088H134.031V25.4309H138.121V19.4309L143.861 25.4309H148.861L141.521 17.5709Z" fill="#1273EB"/>
</g>
<defs>
<clipPath id="clip0_144_1021">
<rect width="190" height="33" fill="white"/>
</clipPath>
</defs>
</svg>
