<svg width="174" height="31" viewBox="0 0 174 31" fill="none" xmlns="http://www.w3.org/2000/svg">
<g clip-path="url(#clip0_6583_25623)">
<path d="M0.435707 24.6482V5.67117C0.435707 5.31671 0.462973 4.94408 0.535682 4.6078C0.608391 4.27152 0.717455 3.90797 0.853785 3.58987C0.990114 3.27177 1.1628 2.93549 1.36275 2.61738C1.5627 2.29928 1.799 2.03571 2.0444 1.77214C2.30797 1.50857 2.58971 1.29044 2.88964 1.09049C3.19865 0.890543 3.51676 0.708771 3.86212 0.590618C4.1984 0.4452 4.54377 0.345225 4.88005 0.263427C5.23451 0.190718 5.57988 0.163452 5.94342 0.163452H26.0566C26.411 0.163452 26.7837 0.190718 27.12 0.263427C27.4744 0.345225 27.8198 0.4452 28.1379 0.58153C28.456 0.717859 28.7832 0.881455 29.1013 1.0814C29.4194 1.28135 29.683 1.51766 29.9465 1.76305C30.2101 2.02662 30.4282 2.30837 30.6282 2.6083C30.8281 2.90822 31.0099 3.22632 31.128 3.57169C31.2735 3.91706 31.3643 4.25334 31.4461 4.58962C31.5279 4.94408 31.5461 5.28944 31.5461 5.65299V24.6392C31.5461 24.9936 31.5189 25.3663 31.4461 25.7025C31.3643 26.057 31.2644 26.4024 31.128 26.7205C30.9826 27.0658 30.8281 27.3658 30.6282 27.6839C30.4282 28.002 30.1919 28.2655 29.9465 28.5291C29.683 28.7927 29.4012 29.0108 29.1013 29.2107C28.8014 29.4107 28.4832 29.5925 28.1379 29.7106C27.7925 29.856 27.4562 29.9469 27.12 30.0287C26.7473 30.1287 26.411 30.156 26.0475 30.156H5.95251C5.59805 30.156 5.22542 30.1287 4.88914 30.056C4.53468 29.9742 4.18932 29.8742 3.87121 29.7379C3.52584 29.5925 3.22592 29.438 2.90782 29.238C2.58971 29.0381 2.32614 28.8018 2.06257 28.5564C1.799 28.2928 1.58088 28.011 1.38093 27.7111C1.18098 27.4112 0.999203 27.0931 0.88105 26.7477C0.735632 26.4024 0.644746 26.0661 0.562948 25.7298C0.472062 25.3935 0.435707 25.0391 0.435707 24.6482Z" fill="#0C131F"/>
<path d="M7.20674 21.1673H8.9245L6.3615 28.0565H4.43471L1.99895 21.1673H3.78033L4.72555 24.0666C5.00729 24.9119 5.23451 25.6662 5.43446 26.5478H5.45264C5.65259 25.7207 5.91616 24.9028 6.18882 24.1121L7.20674 21.1673ZM9.31531 28.0474H10.9422V23.0487H9.31531V28.0474ZM10.1333 20.8492C9.58797 20.8492 9.26078 21.2037 9.26078 21.6399C9.26078 22.0762 9.58797 22.4307 10.1151 22.4307C10.6695 22.4307 10.9967 22.0671 10.9967 21.6399C10.9967 21.1946 10.6786 20.8492 10.1333 20.8492ZM17.5314 26.5478C17.5314 27.1477 17.5496 27.7566 17.5769 28.0474H16.1227L16.0591 27.2567H16.0409C15.6864 27.8838 15.0048 28.1656 14.2959 28.1656C13.078 28.1656 11.9692 27.2113 11.9692 25.6026C11.9601 23.9485 13.1144 22.9214 14.414 22.9214C15.0866 22.9214 15.6319 23.1396 15.8864 23.5122H15.9046V20.7311H17.5314V26.5478ZM15.9046 25.239C15.9046 25.1572 15.9046 25.0482 15.8864 24.9573C15.7864 24.5029 15.3865 24.1393 14.8412 24.1393C14.0505 24.1393 13.6233 24.7573 13.6233 25.5299C13.6233 26.3388 14.0868 26.875 14.8321 26.875C15.3593 26.875 15.7864 26.4933 15.8773 26.0298C15.9046 25.9116 15.9046 25.7844 15.9046 25.6662V25.239ZM23.6481 25.4663C23.6481 25.7117 23.6208 25.948 23.5845 26.057H20.0853C20.1399 26.6569 20.8397 26.9659 21.6122 26.9659C22.1848 26.9659 22.6483 26.9023 23.13 26.7387L23.3482 27.8202C22.7756 28.0565 22.1121 28.1656 21.385 28.1656C19.5764 28.1656 18.5312 27.1477 18.5312 25.5935C18.5312 24.4574 19.2946 22.9214 21.2214 22.9214C23.0392 22.9305 23.6481 24.3211 23.6481 25.4663ZM22.1303 24.9482C22.1303 24.6665 21.9667 23.9757 21.1578 23.9757C20.4307 23.9757 20.1308 24.5665 20.0763 24.9482H22.1303ZM29.9829 25.4935C29.9829 27.2385 28.6378 28.1747 27.1018 28.1747C25.5567 28.1747 24.2934 27.2022 24.2934 25.5935C24.2934 24.0393 25.4022 22.9305 27.2108 22.9305C28.865 22.9305 29.9829 24.003 29.9829 25.4935ZM28.2924 25.5481C28.2924 24.7937 27.947 24.0757 27.1654 24.0757C26.3383 24.0757 26.0021 24.8028 26.0021 25.5571C26.0021 26.4115 26.4383 27.0386 27.1654 27.0386C27.8198 27.0295 28.2924 26.5024 28.2924 25.5481Z" fill="white"/>
<path fill-rule="evenodd" clip-rule="evenodd" d="M11.7783 18.0589H8.86996V7.20709H11.7783V18.0589ZM14.5685 13.8691C15.4683 14.8506 16.8316 15.5868 18.2585 15.5868C19.6036 15.5868 20.5398 14.7598 20.5398 13.6146C20.5398 11.606 17.6314 11.3606 15.5319 10.1245C14.305 9.40654 13.3143 8.33408 13.3143 6.5618C13.3143 3.7625 15.8864 2.15381 18.4857 2.15381C20.0763 2.15381 21.5486 2.53553 23.0301 3.62617L21.4577 5.88924C20.8306 5.30757 19.7763 4.86222 18.7493 4.86222C17.6132 4.86222 16.3317 5.35301 16.3317 6.5618C16.3317 9.08844 23.5572 8.30682 23.5572 13.5873C23.5572 16.3594 21.076 18.2861 18.2585 18.2861C16.1591 18.2861 14.2141 17.4136 12.5963 15.9322L14.5685 13.8691ZM8.42462 4.07151C8.42462 3.01723 9.27895 2.17199 10.3241 2.17199C11.3784 2.17199 12.2237 3.02632 12.2237 4.07151C12.2237 5.11671 11.3693 5.97104 10.3241 5.97104C9.27895 5.98013 8.42462 5.12579 8.42462 4.07151Z" fill="white"/>
<path d="M93.0308 22.9942H94.1759L92.5763 27.7566H91.3221L89.7952 22.9942H90.9767L91.5493 25.0119C91.7129 25.5754 91.8583 26.1207 91.9765 26.7114H91.9947C92.1128 26.1389 92.2673 25.5754 92.4309 25.03L93.0308 22.9942ZM96.9298 23.3396C96.9298 23.6395 96.7117 23.8758 96.3481 23.8758C96.0118 23.8758 95.7846 23.6395 95.7846 23.3396C95.7846 23.0305 96.0118 22.8033 96.3572 22.8033C96.7026 22.8033 96.9207 23.0305 96.9298 23.3396ZM95.821 24.303H96.9025V27.7657H95.821V24.303ZM102.528 22.7397H101.456V24.612H101.438C101.283 24.3757 100.956 24.2212 100.529 24.2212C99.7018 24.2212 98.9747 24.9028 98.9838 26.0571C98.9838 27.1295 99.6473 27.8384 100.465 27.8384C100.911 27.8384 101.329 27.6385 101.547 27.2568H101.565L101.61 27.7657H102.565C102.547 27.5294 102.537 27.1204 102.537 26.7296V22.7397H102.528ZM101.447 26.2207C101.447 26.3025 101.438 26.3933 101.42 26.4661C101.356 26.766 101.101 26.9841 100.802 26.9841C100.356 26.9841 100.065 26.6115 100.065 26.0298C100.065 25.4845 100.311 25.0482 100.811 25.0482C101.138 25.0482 101.374 25.2845 101.438 25.5754C101.447 25.639 101.456 25.7117 101.456 25.7662V26.2207H101.447ZM106.355 24.2212C105.155 24.2212 104.61 25.1936 104.61 26.0752C104.61 27.1568 105.282 27.8384 106.455 27.8384C106.918 27.8384 107.354 27.7657 107.709 27.6203L107.564 26.8932C107.273 26.9932 106.973 27.0386 106.609 27.0386C106.109 27.0386 105.664 26.8296 105.637 26.3752H107.863C107.882 26.2934 107.9 26.1389 107.9 25.948C107.9 25.0937 107.473 24.2212 106.355 24.2212ZM105.628 25.639C105.655 25.3572 105.846 24.9392 106.291 24.9392C106.782 24.9392 106.9 25.3845 106.891 25.639H105.628ZM111.608 24.2212C110.499 24.2212 109.763 24.9392 109.763 26.0571C109.763 27.175 110.545 27.8384 111.553 27.8384C112.48 27.8384 113.38 27.2568 113.38 25.9934C113.371 24.9573 112.671 24.2212 111.608 24.2212ZM111.581 27.075C111.126 27.075 110.872 26.6296 110.872 26.0389C110.872 25.5299 111.072 24.9937 111.581 24.9937C112.071 24.9937 112.262 25.5208 112.262 26.0298C112.262 26.6478 111.999 27.075 111.581 27.075ZM52.4227 19.4496H49.3144V7.85252H52.4227V19.4496ZM55.4038 14.978C56.3581 16.0323 57.8214 16.8139 59.3483 16.8139C60.7843 16.8139 61.784 15.9323 61.784 14.7144C61.784 12.5604 58.6757 12.306 56.4308 10.9881C55.113 10.2247 54.0678 9.07949 54.0678 7.18905C54.0678 4.19889 56.8216 2.48113 59.5937 2.48113C61.2932 2.48113 62.8656 2.89012 64.447 4.06256L62.7747 6.45287C62.1021 5.83484 60.9842 5.35314 59.8845 5.35314C58.6666 5.35314 57.3033 5.88029 57.3033 7.17087C57.3033 9.8702 65.0287 9.03404 65.0287 14.6781C65.0287 17.641 62.3748 19.695 59.3664 19.695C57.1216 19.695 55.0403 18.768 53.3225 17.1866L55.4038 14.978ZM74.6717 19.4496C74.2627 19.595 73.3357 19.6859 72.7358 19.6859C70.8727 19.6859 69.5094 19.0679 68.7187 18.0136C68.1188 17.2229 67.8552 16.1959 67.8552 14.5508V10.4882H64.6288V7.85252H67.8552V4.62605H70.9636V7.85252H74.7899V10.4791H70.9636V14.8962C70.9636 15.6142 71.0817 16.0414 71.3453 16.3595C71.6543 16.7139 72.1542 16.9321 72.9176 16.9321C73.372 16.9321 73.9719 16.8594 74.19 16.8139L74.6717 19.4496ZM81.5609 7.61622C85.0691 7.61622 87.723 10.3155 87.723 13.6602C87.723 17.0048 85.0691 19.6859 81.5609 19.6859C78.0436 19.6859 75.3897 17.0048 75.3897 13.6602C75.3897 10.3246 78.0527 7.61622 81.5609 7.61622ZM81.5609 16.823C83.3786 16.823 84.6147 15.4143 84.6147 13.6692C84.6147 11.9242 83.3786 10.4882 81.5609 10.4882C79.7432 10.4882 78.498 11.9242 78.498 13.6692C78.5071 15.4143 79.7432 16.823 81.5609 16.823ZM100.002 17.0866C98.6385 18.9043 96.9116 19.695 94.7394 19.695C91.1585 19.695 88.5228 17.0139 88.5228 13.6692C88.5228 10.2974 91.2221 7.6253 94.7667 7.6253C96.7753 7.6253 98.5658 8.56143 99.6382 9.94291L97.4388 11.8788C96.8207 11.0699 95.8846 10.4882 94.7576 10.4882C92.9671 10.4882 91.622 11.897 91.622 13.6692C91.622 15.487 92.9399 16.823 94.8303 16.823C96.0936 16.823 97.1025 16.0596 97.6024 15.2961L100.002 17.0866ZM106.991 13.0694L113.371 19.4496H109.19L104.292 14.4327V19.4496H101.183V2.71744H104.292V11.6152L108.282 7.86161H112.662L106.991 13.0694ZM48.8418 4.5079C48.8418 3.39 49.7507 2.47205 50.8777 2.47205C51.9956 2.47205 52.9135 3.38091 52.9135 4.5079C52.9135 5.6258 52.0047 6.54376 50.8777 6.54376C49.7507 6.54376 48.8418 5.63489 48.8418 4.5079Z" fill="#0C131F"/>
</g>
<defs>
<clipPath id="clip0_6583_25623">
<rect width="172.684" height="29.9925" fill="white" transform="translate(0.435707 0.163452)"/>
</clipPath>
</defs>
</svg>
