<svg width="190" height="33" viewBox="0 0 190 33" fill="none" xmlns="http://www.w3.org/2000/svg">
<g clip-path="url(#clip0_144_1029)">
<path d="M34.6458 4.90088C34.5667 4.51453 34.4517 4.13625 34.3022 3.77088C34.168 3.39041 33.9809 3.03028 33.7463 2.70088C33.5211 2.34544 33.264 2.01076 32.9782 1.70088C32.6775 1.40367 32.3375 1.14803 31.9676 0.940878C31.6359 0.751113 31.2915 0.584055 30.9367 0.440878C30.5659 0.297442 30.184 0.183742 29.7947 0.100878C29.4017 0.0275104 29.0021 -0.00599636 28.6022 0.00087803H6.14578C5.74606 -0.000578634 5.347 0.0328846 4.95323 0.100878C4.56577 0.182559 4.18683 0.299731 3.82131 0.450878C3.43808 0.593791 3.07202 0.778248 2.72982 1.00088C2.39098 1.2258 2.07306 1.48014 1.77982 1.76088C1.48321 2.0395 1.22496 2.35555 1.01174 2.70088C0.799236 3.04814 0.610171 3.40893 0.44578 3.78088C0.305408 4.14938 0.190603 4.52692 0.102163 4.91088C0.027592 5.29973 -0.00627484 5.69515 0.00109913 6.09088V27.0909C-0.00706073 27.4871 0.0302345 27.883 0.112269 28.2709C0.188023 28.658 0.303148 29.0366 0.455886 29.4009C0.595744 29.7726 0.782506 30.1254 1.01174 30.4509C1.23635 30.7912 1.49356 31.1093 1.77982 31.4009C2.06616 31.6892 2.3849 31.9442 2.72982 32.1609C3.08316 32.3639 3.44754 32.5475 3.82131 32.7109C4.19164 32.8558 4.57367 32.9696 4.96333 33.0509C5.35632 33.1247 5.75595 33.1582 6.15589 33.1509H28.6022C29.0019 33.1528 29.401 33.1193 29.7947 33.0509C30.1852 32.9726 30.5675 32.8588 30.9367 32.7109C31.3177 32.57 31.6806 32.3854 32.0181 32.1609C32.3773 31.938 32.7156 31.6837 33.0288 31.4009C33.3203 31.114 33.578 30.7953 33.7968 30.4509C34.0021 30.1047 34.1876 29.7475 34.3527 29.3809C34.4963 29.0135 34.6112 28.6357 34.6963 28.2509C34.77 27.8619 34.8039 27.4666 34.7974 27.0709V6.07088C34.7866 5.67684 34.7358 5.28486 34.6458 4.90088Z" fill="black"/>
<path d="M9.49082 25.1209H12.7754V13.2709H9.49082V25.1209ZM11.4211 7.76086H10.8754C10.6139 7.82255 10.3572 7.90275 10.1073 8.00086C9.82294 8.1354 9.57431 8.33387 9.38129 8.58043C9.18826 8.82699 9.05618 9.1148 8.99561 9.42086V10.2009C9.09674 10.7249 9.39754 11.1905 9.83582 11.5013C10.2741 11.8122 10.8163 11.9445 11.3504 11.8709C11.763 11.831 12.154 11.6697 12.4729 11.4076C12.7918 11.1455 13.0239 10.7948 13.1392 10.4009C13.2531 10.0084 13.2476 9.59146 13.1236 9.20203C12.9996 8.81259 12.7625 8.46788 12.4419 8.21086C12.1309 8.00285 11.7854 7.85054 11.4211 7.76086ZM25.6307 19.5509C25.5245 18.5083 25.0355 17.5405 24.2562 16.8309C23.6654 16.2853 22.9809 15.8484 22.235 15.5409L19.5669 14.4009C19.0622 14.2169 18.5962 13.9423 18.1924 13.5909L18.1015 13.5009C17.9746 13.3633 17.8766 13.2023 17.813 13.0271C17.7494 12.8519 17.7215 12.666 17.7309 12.48C17.7402 12.2941 17.7868 12.1118 17.8677 11.9438C17.9487 11.7757 18.0625 11.6252 18.2025 11.5009C18.4621 11.2282 18.7898 11.0282 19.1525 10.9209C20.2389 10.5809 21.4161 10.6705 22.4371 11.1709L23.4477 11.8209L25.1456 9.39086C24.2378 8.72117 23.198 8.24761 22.0935 8.00086C21.6759 7.83886 21.2272 7.77055 20.7796 7.80086H19.5366C18.835 7.86339 18.1505 8.04966 17.5153 8.35086C16.6673 8.63712 15.9226 9.16275 15.3731 9.8629C14.8235 10.5631 14.4931 11.4071 14.4227 12.2909C14.3429 13.2215 14.5737 14.1524 15.0796 14.9409C15.587 15.6792 16.2849 16.2697 17.1009 16.6509C17.9577 17.1026 18.8584 17.4678 19.7892 17.7409C20.4421 17.9713 21.0608 18.2875 21.6286 18.6809L21.7195 18.7509C21.9333 18.9085 22.1135 19.1065 22.2496 19.3333C22.3857 19.5602 22.4752 19.8114 22.5128 20.0726C22.5503 20.3338 22.5353 20.5998 22.4685 20.8552C22.4018 21.1106 22.2846 21.3504 22.1238 21.5609C21.8961 21.8793 21.5924 22.1371 21.2398 22.3116C20.8872 22.486 20.4966 22.5716 20.1025 22.5609C18.9226 22.598 17.7637 22.2463 16.8078 21.5609L15.7972 20.7109L13.6041 22.9009C14.4273 23.6485 15.3743 24.2506 16.4036 24.6809C18.0126 25.4296 19.8342 25.6027 21.5578 25.1709C22.8842 24.8885 24.0497 24.1113 24.8121 23.0009C25.1718 22.5077 25.4293 21.9489 25.5698 21.3568C25.7103 20.7647 25.731 20.1509 25.6307 19.5509Z" fill="white"/>
<path d="M68.8055 17.6609C68.2162 17.1159 67.5312 16.6821 66.7843 16.3809L64.2172 15.2509C63.7219 15.0711 63.2657 14.7996 62.8731 14.4509L62.7922 14.3609C62.6648 14.224 62.566 14.0635 62.5015 13.8887C62.4371 13.7138 62.4083 13.5281 62.4167 13.3421C62.4252 13.1562 62.4707 12.9738 62.5508 12.8054C62.6309 12.637 62.7438 12.4859 62.8832 12.3609C63.1432 12.0958 63.4664 11.8998 63.8231 11.7909C64.8992 11.4505 66.0672 11.5402 67.0773 12.0409L68.088 12.6809L69.7353 10.2909C68.838 9.61217 67.8042 9.1314 66.7034 8.88089C66.2913 8.72519 65.8498 8.66035 65.4098 8.69089H64.1667C63.4668 8.76191 62.7837 8.94779 62.1454 9.24089C61.3113 9.52842 60.5801 10.0506 60.0415 10.7434C59.5029 11.4361 59.1804 12.2694 59.1135 13.1409C59.0328 14.059 59.264 14.9775 59.7704 15.7509C60.2717 16.4898 60.9718 17.0751 61.7917 17.4409C62.6401 17.8883 63.5302 18.2533 64.4497 18.5309C65.0954 18.7545 65.7074 19.064 66.2688 19.4509C66.294 19.4801 66.3249 19.504 66.3598 19.5209C66.7828 19.8388 67.0624 20.3086 67.1381 20.8289C67.2137 21.3491 67.0794 21.8779 66.764 22.3009C66.5345 22.6174 66.2305 22.8738 65.8783 23.048C65.5261 23.2223 65.1364 23.309 64.7428 23.3009C63.5765 23.3299 62.433 22.9785 61.4885 22.3009L60.4779 21.4609L58.305 23.6309C59.1206 24.3685 60.057 24.9637 61.0742 25.3909C62.6525 26.1216 64.4373 26.2912 66.1273 25.8709C67.4473 25.6049 68.6108 24.8409 69.3715 23.7409C69.7308 23.2533 69.9883 22.6997 70.1288 22.1124C70.2694 21.5252 70.2902 20.9162 70.1901 20.3209C70.077 19.2953 69.5837 18.3476 68.8055 17.6609ZM56.1422 8.66089H55.5864C55.3389 8.74867 55.1017 8.86266 54.8789 9.00089C54.5946 9.12866 54.3457 9.32279 54.1539 9.56664C53.962 9.81049 53.8328 10.0968 53.7773 10.4009V11.1709C53.8784 11.6897 54.177 12.1502 54.6115 12.4573C55.046 12.7644 55.5832 12.8946 56.1119 12.8209C56.5209 12.7794 56.9073 12.6155 57.2197 12.3511C57.5321 12.0866 57.7556 11.7342 57.8603 11.3409C57.9723 10.9523 57.967 10.5398 57.8448 10.1541C57.7227 9.76854 57.4892 9.42674 57.1731 9.17089C56.8645 8.94571 56.5143 8.78263 56.1422 8.69089V8.66089ZM113.395 19.5609L119.105 14.3509H114.86C114.783 14.3402 114.705 14.3493 114.632 14.3773C114.559 14.4054 114.495 14.4513 114.446 14.5109L110.646 18.0009V9.00089H107.402V26.0009H110.646V20.9309C110.686 20.9783 110.717 21.0326 110.737 21.0909C112.293 22.7409 113.92 24.3509 115.548 25.9509C115.629 25.9808 115.719 25.9808 115.8 25.9509H119.843L113.395 19.5609ZM76.5066 10.9309H73.2523V14.1509H70.0082V16.8409H73.2523V22.2109C73.3244 22.9267 73.5744 23.6138 73.98 24.2109C74.2818 24.6742 74.6758 25.0718 75.138 25.3796C75.6002 25.6873 76.1209 25.8987 76.6683 26.0009C77.6004 26.1708 78.5559 26.1708 79.488 26.0009H80.2662L79.7406 23.3109H79.6093C78.991 23.4208 78.3579 23.4208 77.7396 23.3109C77.4527 23.2747 77.1829 23.1559 76.9636 22.9692C76.7444 22.7825 76.5855 22.5362 76.5066 22.2609C76.4663 22.0192 76.4663 21.7726 76.5066 21.5309V16.8309H80.4077V14.1309H76.5066V10.9309ZM102.783 22.4809C102.459 22.7777 102.076 23.0033 101.657 23.1427C101.239 23.2822 100.796 23.3323 100.357 23.2897C99.9172 23.2472 99.492 23.113 99.109 22.8961C98.7259 22.6791 98.3937 22.3842 98.1343 22.0309C97.6317 21.3387 97.4276 20.4773 97.5669 19.6362C97.7062 18.7951 98.1775 18.0432 98.8771 17.5459C99.5767 17.0486 100.447 16.8467 101.297 16.9845C102.147 17.1224 102.907 17.5887 103.41 18.2809H103.612L105.886 16.3309C105.562 15.9223 105.181 15.562 104.754 15.2609C104.04 14.7286 103.223 14.3466 102.354 14.1385C101.485 13.9304 100.582 13.9006 99.7008 14.0509C98.2215 14.2373 96.8607 14.9478 95.8704 16.0509C95.5365 16.4299 95.2482 16.846 95.0114 17.2909C94.2875 18.7065 94.1597 20.3481 94.6559 21.8567C95.1521 23.3653 96.232 24.6181 97.6593 25.3409C98.6838 25.8425 99.8231 26.07 100.964 26.0009C101.971 26.0059 102.964 25.7725 103.86 25.3202C104.757 24.8679 105.531 24.2098 106.118 23.4009L103.713 21.6109C103.43 21.9239 103.122 22.2148 102.793 22.4809H102.783ZM54.2726 25.8609H57.5268V14.1309H54.2321L54.2726 25.8609ZM91.8582 15.7509C91.2604 15.1797 90.5545 14.7311 89.781 14.4308C89.0074 14.1305 88.1815 13.9844 87.3507 14.0009H87.5125H86.9869C85.488 14.0783 84.0689 14.6933 82.9949 15.7309C82.2392 16.4224 81.6737 17.2929 81.352 18.2604C81.0302 19.2278 80.9626 20.2604 81.1555 21.2609C81.317 22.1731 81.6954 23.0342 82.2595 23.7731C82.8235 24.5121 83.5571 25.1077 84.3997 25.5109C85.6823 26.1506 87.1432 26.3511 88.5534 26.0809C90.1051 25.8338 91.4991 25.0002 92.4418 23.756C93.3845 22.5117 93.8021 20.9539 93.6066 19.4109C93.487 18.0227 92.8663 16.7235 91.8582 15.7509ZM89.7662 22.1009C89.441 22.5101 89.0137 22.8286 88.5264 23.025C88.0391 23.2214 87.5086 23.2889 86.9869 23.2209C86.3429 23.132 85.7407 22.8536 85.2586 22.4219C84.7764 21.9903 84.4364 21.4252 84.2828 20.8C84.1292 20.1748 84.169 19.5183 84.3971 18.9158C84.6252 18.3132 85.031 17.7924 85.5619 17.4209C86.0823 17.0509 86.71 16.8579 87.3507 16.8709C87.9495 16.9008 88.5284 17.0929 89.0244 17.426C89.5204 17.7591 89.9144 18.2206 90.1636 18.7601C90.4128 19.2996 90.5075 19.8964 90.4374 20.4855C90.3673 21.0746 90.1351 21.6334 89.7662 22.1009Z" fill="black"/>
</g>
<defs>
<clipPath id="clip0_144_1029">
<rect width="190" height="33" fill="white"/>
</clipPath>
</defs>
</svg>
