<svg width="173" height="31" viewBox="0 0 173 31" fill="none" xmlns="http://www.w3.org/2000/svg">
<g clip-path="url(#clip0_6583_25631)">
<path d="M30.7118 4.2005C30.5937 3.85514 30.421 3.52795 30.212 3.22802C30.012 2.90992 29.7757 2.6009 29.5212 2.31916C29.2486 2.0465 28.9486 1.81928 28.6124 1.62842C28.3124 1.45574 28.0034 1.30123 27.6853 1.17399C27.349 1.04675 27.0128 0.937683 26.6674 0.864974C26.3129 0.801353 25.9585 0.764998 25.604 0.774087H5.49995C5.14549 0.792264 4.79104 0.81953 4.43658 0.883151C4.09121 0.95586 3.74584 1.06492 3.41865 1.20125C3.08237 1.32849 2.75518 1.49209 2.44617 1.70113C2.13716 1.90108 1.85541 2.12829 1.59184 2.38278C1.32827 2.63726 1.10105 2.91901 0.910189 3.23711C0.719327 3.55521 0.546643 3.87331 0.401225 4.21868C0.273984 4.54587 0.174009 4.89124 0.0922112 5.23661C0.0285907 5.59107 -0.00776382 5.94552 0.00132482 6.29998V25.2952C-0.00776382 25.6497 0.0285907 26.0132 0.1013 26.3586C0.16492 26.7131 0.273984 27.0493 0.410314 27.3765C0.537555 27.7128 0.70115 28.0309 0.910189 28.3308C1.11014 28.6399 1.34644 28.9216 1.60093 29.1943C1.85541 29.4578 2.14624 29.685 2.45526 29.885C2.77336 30.0668 3.10055 30.2304 3.43683 30.3849C3.76402 30.5121 4.10939 30.6212 4.45476 30.6939C4.80922 30.7575 5.16367 30.7939 5.51813 30.7848H25.6131C25.9676 30.7848 26.3311 30.7575 26.6765 30.6939C27.0219 30.6212 27.3672 30.5212 27.6944 30.3849C28.0398 30.2576 28.3579 30.094 28.6669 29.885C28.985 29.685 29.294 29.4487 29.5758 29.1943C29.8393 28.9307 30.0665 28.6489 30.2665 28.3308C30.4483 28.0218 30.6119 27.6946 30.7664 27.3584C30.8936 27.0221 30.9936 26.6858 31.0754 26.3404C31.139 25.986 31.1754 25.6315 31.1663 25.2771V6.2818C31.1572 5.92735 31.1117 5.57289 31.0299 5.22752C30.9481 4.87306 30.8391 4.53678 30.7118 4.2005Z" fill="#D31618"/>
<path d="M7.10865 22.1233H8.76278L6.29067 28.7581H4.43659L2.09172 22.1233H3.80947L4.71833 24.9136C4.99099 25.7315 5.20912 26.4586 5.39998 27.3039H5.41816C5.60902 26.5041 5.8635 25.7134 6.12707 24.959L7.10865 22.1233ZM9.1445 28.7581H10.7168V23.9411H9.1445V28.7581ZM9.92612 21.8143C9.40807 21.8143 9.08997 22.1506 9.08997 22.5778C9.08997 22.9959 9.39898 23.3412 9.91704 23.3412C10.4533 23.3412 10.7623 22.9959 10.7623 22.5778C10.7623 22.1506 10.4533 21.8143 9.92612 21.8143ZM17.0607 27.313C17.0607 27.8946 17.0789 28.4763 17.0971 28.7581H15.6883L15.6247 27.9946H15.6065C15.2612 28.6035 14.6068 28.8762 13.9251 28.8762C12.7527 28.8762 11.6802 27.9492 11.6802 26.4041C11.6711 24.8045 12.78 23.8229 14.0433 23.8229C14.6977 23.8229 15.2157 24.032 15.4611 24.3864H15.4793V21.7144H17.0516V27.313H17.0607ZM15.4884 26.0496C15.4884 25.9678 15.4884 25.8679 15.4702 25.777C15.3702 25.3407 14.9885 24.9863 14.4704 24.9863C13.707 24.9863 13.298 25.577 13.298 26.3314C13.298 27.1039 13.7434 27.6311 14.4614 27.6311C14.9703 27.6311 15.3793 27.2675 15.4702 26.8131C15.4975 26.704 15.4975 26.5768 15.4975 26.4586V26.0496H15.4884ZM22.9501 26.2678C22.9501 26.5041 22.9229 26.7313 22.8956 26.8313H19.5237C19.5783 27.4129 20.2508 27.7129 20.9961 27.7129C21.5505 27.7129 21.9958 27.6492 22.4594 27.4947L22.6775 28.5399C22.1231 28.7671 21.4869 28.8762 20.7871 28.8762C19.0511 28.8762 18.0423 27.8946 18.0423 26.395C18.0423 25.3044 18.7785 23.8229 20.6416 23.8229C22.3685 23.8229 22.9501 25.168 22.9501 26.2678ZM21.4869 25.7679C21.4869 25.4952 21.3324 24.8318 20.5507 24.8318C19.8418 24.8318 19.5601 25.3953 19.5056 25.7679H21.4869ZM29.0577 26.2859C29.0577 27.9673 27.7671 28.8762 26.2857 28.8762C24.7951 28.8762 23.5864 27.9401 23.5864 26.395C23.5864 24.8954 24.6497 23.8229 26.3947 23.8229C27.9762 23.8229 29.0577 24.8499 29.0577 26.2859ZM27.4308 26.3405C27.4308 25.6134 27.1037 24.9226 26.3402 24.9226C25.5404 24.9226 25.2132 25.6225 25.2132 26.3496C25.2132 27.1766 25.6313 27.7765 26.3311 27.7765C26.9673 27.7765 27.4308 27.2675 27.4308 26.3405Z" fill="white"/>
<path d="M17.0971 2.70081H13.3707C10.7441 2.70081 8.60827 4.81846 8.60827 7.44508V7.45416V11.5168H12.3346V7.45416C12.3255 6.8634 12.8072 6.3817 13.398 6.37262H13.4071H17.1334L17.0971 2.70081Z" fill="white"/>
<path d="M18.8603 10.7625V14.8069C18.8603 15.3977 18.3786 15.8794 17.7878 15.8794H14.0615V19.6057H17.7878C20.4144 19.6057 22.5412 17.479 22.5412 14.8523V10.7715H18.8603V10.7625Z" fill="white"/>
<path d="M165.122 8.15917L165.062 8.13342H164.586V9.36058H164.828V8.97441H164.958L165.148 9.38633H165.433L165.2 8.96583C165.355 8.89718 165.451 8.74271 165.442 8.57108V8.50243C165.433 8.3308 165.295 8.18491 165.122 8.15917ZM165.243 8.55392C165.243 8.66548 165.2 8.74271 165.027 8.74271H164.871V8.34796H165.027C165.183 8.34796 165.243 8.43378 165.243 8.52817V8.55392Z" fill="#111110"/>
<path d="M157.913 13.1964L162.728 7.84153H159.573L155.458 12.5099V3.49927H152.9V19.787H155.458V15.994L156.34 15.0586L160.005 19.787H163.073L157.974 13.2222L157.913 13.1964Z" fill="#262629"/>
<path d="M118.696 12.7245L117.745 12.5615C116.794 12.3984 115.99 12.1753 115.99 11.2314C115.99 10.4247 116.863 10.0471 117.918 10.0471C119.015 10.0728 120.087 10.3475 121.064 10.8366L121.937 8.5625C120.701 7.93604 119.335 7.61853 117.952 7.64427C115.904 7.64427 113.405 8.71696 113.405 11.3429C113.405 13.7028 115.108 14.4752 116.759 14.7584L117.909 14.9472C119.015 15.136 119.664 15.5393 119.664 16.2601C119.664 17.1269 118.791 17.5903 117.485 17.5903C116.215 17.616 114.961 17.3586 113.812 16.8351L112.852 19.0577C114.235 19.7357 115.774 20.0618 117.312 20.0017C120.018 20.0017 122.188 18.6716 122.188 16.2087C122.17 13.926 120.614 13.0592 118.696 12.7245Z" fill="#262629"/>
<path d="M165.087 7.56688L165.061 7.54114C164.37 7.54114 163.808 8.09036 163.799 8.77688C163.817 9.44624 164.37 9.96972 165.044 9.96113H165.053C165.727 9.98688 166.289 9.47199 166.323 8.81121C166.315 8.12468 165.77 7.57546 165.087 7.56688ZM165.208 9.72943C165.165 9.72943 165.131 9.72943 165.087 9.72943L165.061 9.70369C164.577 9.70369 164.188 9.31752 164.18 8.83695C164.18 8.81979 164.18 8.79404 164.18 8.77688C164.18 8.27915 164.577 7.86724 165.079 7.85007C165.597 7.86724 166.012 8.28773 166.004 8.80262C166.055 9.27461 165.692 9.69511 165.208 9.72943Z" fill="#111110"/>
<path d="M146.987 17.5473L146.961 17.5387C145.206 17.5387 144.757 16.5948 144.757 15.5221V12.1152C144.757 11.0425 145.215 10.1071 146.952 10.1071C147.998 10.0213 148.958 10.6477 149.286 11.6346L151.603 10.7679C150.955 8.49377 148.811 7.63562 146.927 7.63562C143.547 7.63562 142.19 9.71235 142.19 11.729V15.9082C142.19 17.9249 143.547 20.0016 146.927 20.0016C148.82 20.0016 150.955 19.1349 151.612 16.8694L149.286 16.0026C148.966 16.9895 148.016 17.616 146.987 17.5473Z" fill="#262629"/>
<path d="M126.933 3.49927L124.375 4.89806V7.84153H123.026V10.2701H124.375V15.4877C124.375 17.7275 125.299 19.7355 128.584 19.7355H129.604V17.41H129.215C128.109 17.5644 127.089 16.8007 126.933 15.7022C126.916 15.5478 126.907 15.3933 126.925 15.2388V10.313H129.863V7.84153H126.925V3.49927H126.933Z" fill="#262629"/>
<path d="M91.4758 3.49927L88.9172 4.89806V7.84153H87.5688V10.2701H88.9172V15.4877C88.9172 17.7275 89.8421 19.7355 93.1268 19.7355H94.1468V17.41H93.7578C92.6514 17.5644 91.6314 16.8007 91.4758 15.7022C91.4585 15.5478 91.4499 15.3933 91.4672 15.2388V10.313H94.4061V7.84153H91.4672V3.49927H91.4758Z" fill="#D31618"/>
<path d="M84.6299 3.49927L82.0713 4.89806V7.84153H80.7229V10.2701H82.0713V15.4877C82.0713 17.7275 82.9962 19.7355 86.2809 19.7355H87.3009V17.41H86.9119C85.8055 17.5644 84.7855 16.8007 84.6299 15.7022C84.6126 15.5478 84.604 15.3933 84.6213 15.2388V10.313H94.4062V7.84153H84.6299V3.49927Z" fill="#D31618"/>
<path d="M76.781 17.4014C76.2364 17.676 75.64 17.8133 75.0262 17.8133C73.1073 17.8133 72.3985 16.8522 72.3985 15.522V7.84155H69.8572V15.5735C69.8572 18.5599 71.6119 20.0016 74.741 20.0016C76.3228 19.9759 77.8874 19.6326 79.3396 19.0147V7.84155H76.7723V17.4014H76.781Z" fill="#D31618"/>
<path d="M54.0562 12.7246L54.0217 12.716L53.0708 12.553C52.1286 12.3899 51.3161 12.1668 51.3161 11.2228C51.3161 10.4161 52.1892 10.0386 53.2524 10.0386C54.3415 10.0643 55.4133 10.3389 56.3901 10.8281L57.2631 8.55395C56.0271 7.9275 54.6613 7.60998 53.2696 7.63573C51.2297 7.63573 48.7229 8.70842 48.7229 11.3344C48.7229 13.6943 50.4777 14.4666 52.0854 14.7498L53.2351 14.9386C54.3415 15.1274 54.9898 15.5307 54.9898 16.2516C54.9898 17.1183 54.1167 17.5817 52.8202 17.5817C51.5495 17.6075 50.2875 17.35 49.1379 16.8266L48.1697 19.0578C49.5701 19.7443 51.126 20.0704 52.6905 20.0017C55.4047 20.0017 57.5743 18.6716 57.5743 16.2087C57.5397 13.926 55.9752 13.0593 54.0562 12.7246Z" fill="#D31618"/>
<path d="M63.7892 7.64415V7.63557C62.9766 7.63557 62.1641 7.79004 61.4207 8.10756V3.49927H58.8535V19.7785H61.4207V10.4503C62.0258 10.1071 62.7087 9.93543 63.4002 9.94401C64.5326 9.78096 65.5871 10.5619 65.7513 11.6861C65.7773 11.8491 65.7773 12.0207 65.76 12.1838V19.7956H68.2927V11.8062C68.2927 9.41195 66.5379 7.64415 63.7892 7.64415Z" fill="#D31618"/>
<path d="M106.62 11.7374V19.7698H109.187V11.952C109.187 11.274 109.585 10.0984 111.452 10.0984C111.85 10.1155 112.239 10.1584 112.636 10.2185V7.77277C112.204 7.68695 111.772 7.64404 111.331 7.64404C108.072 7.64404 106.62 9.66071 106.62 11.7374Z" fill="#D31618"/>
<path d="M137.072 7.84147H134.445C132.577 7.83289 131.056 9.33466 131.048 11.1969V14.0545H133.675V11.2312C133.684 10.8107 134.021 10.476 134.445 10.476H137.072V7.84147Z" fill="#D31618"/>
<path d="M100.284 7.6442L100.249 7.63562C96.8261 7.63562 95.5036 9.75526 95.5036 11.729V15.6679C95.5036 18.4055 97.2583 20.0102 100.249 20.0102C102.056 20.1218 103.759 19.1864 104.623 17.6074L102.462 16.3201C102.03 17.1268 101.165 17.6245 100.249 17.5902C98.6673 17.5902 98.0622 16.7235 98.0622 15.6165V14.9728H104.951V11.7376C104.986 9.58363 103.3 7.6442 100.284 7.6442ZM102.419 12.9304H98.1054V12.0551C98.166 10.8709 99.1859 9.96122 100.379 10.0213C101.468 10.0814 102.341 10.9309 102.419 12.0122V12.9304Z" fill="#D31618"/>
<path d="M138.309 16.423C138.309 16.8435 137.963 17.1868 137.539 17.1868H134.912V19.7956H137.539C139.415 19.7956 140.936 18.2852 140.936 16.423V13.574H138.309V16.423Z" fill="#D31618"/>
<path d="M141.637 27.5705L140.15 22.9708H141.3L141.861 24.9188C142.026 25.4681 142.164 25.9915 142.276 26.5579H142.294C142.415 26.0087 142.562 25.4595 142.717 24.936L143.305 22.9708H144.42L142.864 27.5705H141.637Z" fill="#262629"/>
<path d="M147.091 23.3055C147.091 23.5972 146.875 23.8204 146.529 23.8204C146.201 23.8204 145.985 23.5886 145.985 23.3055C145.985 23.0051 146.201 22.782 146.538 22.782C146.875 22.782 147.082 23.0051 147.091 23.3055ZM146.011 27.5705V24.2323H147.056V27.5705H146.011Z" fill="#262629"/>
<path d="M152.537 22.722V26.5752C152.537 26.9527 152.554 27.3475 152.563 27.5706H151.629L151.586 27.0815H151.569C151.353 27.4591 150.946 27.6479 150.514 27.6479C149.719 27.6479 149.079 26.9699 149.079 25.9315C149.071 24.8074 149.788 24.1552 150.583 24.1552C150.998 24.1552 151.318 24.3011 151.465 24.5328H151.482V22.722H152.537ZM151.491 25.6484C151.491 25.5883 151.491 25.5196 151.474 25.4596C151.413 25.1764 151.188 24.9532 150.869 24.9532C150.393 24.9532 150.142 25.3737 150.142 25.9058C150.142 26.4722 150.419 26.824 150.86 26.824C151.154 26.824 151.404 26.6181 151.465 26.3263C151.482 26.2576 151.491 26.1718 151.491 26.0946V25.6484Z" fill="#262629"/>
<path d="M155.562 26.2319C155.597 26.661 156.02 26.8669 156.513 26.8669C156.867 26.8669 157.152 26.8154 157.438 26.721L157.576 27.4247C157.23 27.562 156.807 27.6393 156.357 27.6393C155.216 27.6393 154.559 26.9785 154.559 25.9401C154.559 25.0905 155.095 24.1552 156.254 24.1552C157.343 24.1552 157.758 24.9961 157.758 25.8286C157.758 26.0088 157.74 26.1632 157.723 26.2405H155.562V26.2319ZM156.789 25.5282C156.789 25.2793 156.677 24.8503 156.202 24.8503C155.761 24.8503 155.579 25.2536 155.553 25.5282H156.789Z" fill="#262629"/>
<path d="M163.082 25.8715C163.082 27.09 162.209 27.6478 161.31 27.6478C160.334 27.6478 159.573 27.0042 159.573 25.9229C159.573 24.8417 160.29 24.1552 161.371 24.1552C162.4 24.1552 163.082 24.8588 163.082 25.8715ZM160.654 25.9058C160.654 26.4722 160.896 26.9098 161.345 26.9098C161.751 26.9098 162.011 26.5065 162.011 25.8972C162.011 25.4081 161.82 24.8932 161.345 24.8932C160.844 24.9017 160.654 25.4081 160.654 25.9058Z" fill="#262629"/>
</g>
<defs>
<clipPath id="clip0_6583_25631">
<rect width="172.684" height="29.9925" fill="white" transform="translate(0 0.772705)"/>
</clipPath>
</defs>
</svg>
