<svg width="190" height="33" viewBox="0 0 190 33" fill="none" xmlns="http://www.w3.org/2000/svg">
<g clip-path="url(#clip0_144_1020)">
<path d="M34.4597 4.87785C34.381 4.49325 34.2666 4.11668 34.1179 3.75296C33.9844 3.37421 33.7983 3.01572 33.565 2.6878C33.341 2.33398 33.0853 2.00081 32.801 1.69233C32.5019 1.39646 32.1637 1.14198 31.7958 0.935766C31.4659 0.74686 31.1233 0.580558 30.7704 0.438029C30.4016 0.295242 30.0217 0.182057 29.6345 0.0995671C29.2436 0.0265314 28.8461 -0.00682372 28.4483 1.95652e-05H6.11196C5.71438 -0.00143051 5.31745 0.0318813 4.92578 0.0995671C4.54039 0.180879 4.16348 0.29752 3.79992 0.447983C3.41873 0.590249 3.05463 0.773872 2.71426 0.995495C2.37723 1.2194 2.06101 1.47259 1.76934 1.75206C1.4743 2.02941 1.21744 2.34403 1.00535 2.6878C0.793988 3.0335 0.605934 3.39265 0.442421 3.76292C0.301428 4.12928 0.187207 4.50522 0.10064 4.8878C0.026468 5.2749 -0.00721787 5.66853 0.000116696 6.06246V26.9674C-0.00799957 27.3619 0.0290963 27.7559 0.110693 28.1421C0.186042 28.5275 0.300551 28.9044 0.452474 29.267C0.591584 29.6371 0.777348 29.9883 1.00535 30.3122C1.23132 30.6492 1.48697 30.9657 1.76934 31.2579C2.05414 31.545 2.37118 31.7988 2.71426 32.0145C3.06571 32.2166 3.42814 32.3994 3.79992 32.562C4.16826 32.7063 4.54825 32.8195 4.93583 32.9005C5.32672 32.9739 5.72422 33.0073 6.12202 33H28.4483C28.8459 33.0019 29.2429 32.9686 29.6345 32.9005C30.0229 32.8226 30.4032 32.7093 30.7704 32.562C31.1494 32.4217 31.5103 32.238 31.8461 32.0145C32.2033 31.7927 32.5398 31.5394 32.8513 31.2579C33.1413 30.9724 33.3976 30.6551 33.6153 30.3122C33.8194 29.9676 34.004 29.612 34.1682 29.2471C34.311 28.8813 34.4252 28.5053 34.5099 28.1222C34.5833 27.735 34.617 27.3414 34.6105 26.9475V6.04255C34.5997 5.65029 34.5492 5.2601 34.4597 4.87785Z" fill="#D31114"/>
<path d="M18.9187 7.48597H14.8978C14.2224 7.48466 13.5533 7.61527 12.929 7.87033C12.3046 8.12538 11.7371 8.49987 11.2591 8.97236C10.781 9.44485 10.4017 10.0061 10.1429 10.6239C9.88417 11.2417 9.75098 11.904 9.75098 12.5728V16.9231H13.7719V12.5728C13.7706 12.4217 13.7995 12.2717 13.857 12.1317C13.9145 11.9917 13.9995 11.8643 14.1069 11.7569C14.2144 11.6496 14.3423 11.5643 14.4832 11.5062C14.6241 11.448 14.7753 11.4181 14.928 11.4181H18.9489L18.9187 7.48597ZM20.8287 16.1068V20.4371C20.8287 20.7407 20.7069 21.0319 20.4901 21.2466C20.2733 21.4613 19.9793 21.5819 19.6727 21.5819H15.6517V25.5638H19.6727C21.035 25.5638 22.3416 25.0279 23.3049 24.0739C24.2682 23.1199 24.8094 21.826 24.8094 20.4769V16.1068H20.8287Z" fill="white"/>
<path d="M135.295 17.5403L134.199 17.3511C133.103 17.162 132.189 16.9131 132.189 15.8281C132.189 14.9023 133.194 14.4742 134.4 14.4742C135.656 14.5045 136.89 14.8141 138.009 15.3801L139.014 12.7719C137.599 12.0572 136.029 11.695 134.44 11.7167C132.088 11.7167 129.223 12.9412 129.223 15.9575C129.223 18.6652 131.183 19.5412 133.073 19.8697L134.39 20.0887C135.657 20.3077 136.401 20.7656 136.401 21.5919C136.401 22.5873 135.395 23.1149 133.898 23.1149C132.443 23.1425 131 22.8466 129.676 22.2489L128.57 24.7973C130.161 25.5753 131.923 25.9483 133.697 25.8823C136.803 25.8823 139.296 24.3593 139.296 21.5421C139.286 18.914 137.496 17.9185 135.295 17.5403ZM144.754 6.96832L141.819 8.57104V11.9457H140.271V14.7231H141.819V20.6959C141.819 23.2642 142.884 25.5638 146.654 25.5638H147.83V22.8959H147.388C147.041 22.9439 146.688 22.9136 146.355 22.8074C146.021 22.7011 145.717 22.5216 145.463 22.2822C145.21 22.0428 145.015 21.7499 144.892 21.4252C144.769 21.1005 144.722 20.7525 144.754 20.4072V14.7629H148.132V11.9457H144.754V6.96832ZM167.754 23.0552C165.744 23.0552 165.221 21.9701 165.221 20.7457V16.8434C165.221 15.619 165.744 14.5439 167.744 14.5439C168.325 14.4945 168.906 14.6405 169.393 14.9584C169.88 15.2763 170.245 15.7475 170.428 16.2959L173.092 15.3004C172.348 12.6923 169.885 11.7167 167.724 11.7167C163.844 11.7167 162.286 14.0959 162.286 16.4054V21.1937C162.286 23.5032 163.844 25.8823 167.724 25.8823C169.895 25.8823 172.348 24.8869 173.102 22.2986L170.428 21.3032C170.247 21.8454 169.889 22.3126 169.41 22.6315C168.932 22.9504 168.36 23.1029 167.784 23.0652L167.754 23.0552ZM180.33 18.0778L185.858 11.9457H182.239L177.515 17.2914V6.96832H174.57V25.6235H177.515V21.2833L178.52 20.2081L182.732 25.6235H186.26L180.4 18.1077L180.33 18.0778ZM188.542 11.5973C188.162 11.5972 187.797 11.7455 187.526 12.0101C187.255 12.2746 187.1 12.6341 187.095 13.0109C187.099 13.1934 187.139 13.3735 187.214 13.5405C187.288 13.7076 187.395 13.8584 187.529 13.9842C187.662 14.1101 187.82 14.2085 187.992 14.2738C188.164 14.3391 188.348 14.37 188.532 14.3647C188.716 14.3727 188.899 14.3448 189.072 14.2826C189.244 14.2204 189.403 14.125 189.538 14.0021C189.674 13.8791 189.783 13.7309 189.861 13.5659C189.938 13.401 189.982 13.2225 189.99 13.0407C189.987 12.6683 189.837 12.3118 189.572 12.0475C189.307 11.7833 188.948 11.6323 188.572 11.6271L188.542 11.5973ZM188.542 14.076C188.404 14.0764 188.267 14.0485 188.141 13.9942C188.014 13.9398 187.9 13.8602 187.805 13.7603C187.711 13.6603 187.639 13.5422 187.592 13.4132C187.546 13.2843 187.527 13.1473 187.537 13.0109C187.539 12.7359 187.648 12.4722 187.841 12.2741C188.033 12.0759 188.295 11.9584 188.572 11.9457C188.86 11.9535 189.132 12.0726 189.331 12.2774C189.531 12.4822 189.641 12.7563 189.638 13.0407C189.648 13.1824 189.628 13.3246 189.578 13.4578C189.528 13.591 189.45 13.7121 189.35 13.813C189.249 13.9138 189.127 13.9922 188.993 14.0427C188.859 14.0932 188.716 14.1148 188.572 14.1059L188.542 14.076ZM188.542 12.2742H187.999V13.6778H188.281V13.2398H188.432L188.653 13.7077H188.985L188.713 13.2299C188.8 13.1919 188.874 13.1288 188.924 13.0489C188.974 12.969 188.999 12.8759 188.995 12.7819V12.7023C188.982 12.6045 188.937 12.5133 188.869 12.4418C188.8 12.3703 188.711 12.3221 188.613 12.3041L188.542 12.2742ZM188.753 12.762C188.753 12.8914 188.703 12.981 188.502 12.981H188.321V12.5231H188.502C188.683 12.5231 188.753 12.6226 188.753 12.7321V12.762Z" fill="#262629"/>
<path d="M156.395 11.9457H153.379C152.868 11.9444 152.362 12.0427 151.89 12.2351C151.417 12.4275 150.987 12.7102 150.625 13.067C150.263 13.4238 149.975 13.8478 149.779 14.3147C149.582 14.7816 149.48 15.2823 149.479 15.7882V19.0633H152.494V15.8281C152.497 15.5974 152.591 15.3772 152.757 15.215C152.923 15.0529 153.146 14.962 153.379 14.962H156.395V11.9457ZM157.822 18.5059V21.771C157.822 22.0034 157.729 22.2262 157.563 22.3905C157.397 22.5548 157.172 22.6471 156.938 22.6471H153.922V25.6335H156.938C157.972 25.6335 158.964 25.2265 159.696 24.5022C160.427 23.7778 160.838 22.7954 160.838 21.771V18.5059H157.822ZM104.002 6.96832L101.066 8.58099V11.9457H96.1107V6.96832L93.1653 8.59095V11.9457H91.6776V14.7131H93.1653V20.686C93.1653 23.2543 94.2309 25.5538 98.0005 25.5538H99.1766V22.8362H98.7444C98.3989 22.882 98.0474 22.8505 97.7159 22.7441C97.3843 22.6377 97.081 22.459 96.8283 22.2212C96.5757 21.9834 96.38 21.6925 96.2558 21.37C96.1316 21.0475 96.082 20.7015 96.1107 20.3575V14.7529H101.066V20.7258C101.066 23.2842 102.132 25.5837 105.902 25.5837H107.078V22.8362H106.636C106.29 22.8839 105.937 22.8538 105.605 22.7481C105.272 22.6423 104.968 22.4637 104.715 22.2255C104.462 21.9873 104.267 21.6956 104.143 21.3722C104.02 21.0488 103.971 20.7019 104.002 20.3575V14.7629H107.379V11.9457H104.002V6.96832ZM72.2363 11.7068C71.3011 11.7049 70.375 11.8877 69.5121 12.2443V6.96832H66.5667V25.6136H69.5121V14.9321C70.204 14.543 70.9883 14.3437 71.7839 14.3547C72.142 14.3031 72.5072 14.3329 72.8519 14.4418C73.1966 14.5508 73.5117 14.7361 73.7733 14.9836C74.0349 15.2312 74.2361 15.5345 74.3617 15.8705C74.4872 16.2066 74.5339 16.5665 74.498 16.9231V25.6434H77.4032V16.495C77.4032 13.7376 75.3927 11.7167 72.2363 11.7167V11.7068ZM87.154 22.8959C86.5316 23.2097 85.8419 23.3702 85.1435 23.3638C82.942 23.3638 82.1278 22.2588 82.1278 20.7357V11.9457H79.2126V20.8054C79.2126 24.2299 81.2231 25.8823 84.8218 25.8823C86.6391 25.8501 88.4322 25.4645 90.0993 24.7475V11.9457H87.154V22.8959ZM61.0178 17.5303L59.9221 17.3412C58.8364 17.152 57.9116 16.9032 57.9116 15.8181C57.9116 14.8923 58.9169 14.4643 60.1332 14.4643C61.3863 14.4943 62.6164 14.804 63.732 15.3701L64.7372 12.762C63.3186 12.0464 61.7452 11.6842 60.1533 11.7068C57.8111 11.7068 54.9361 12.9312 54.9361 15.9475C54.9361 18.6552 56.9466 19.5312 58.7962 19.8597L60.1131 20.0787C61.3797 20.2977 62.1236 20.7557 62.1236 21.5819C62.1236 22.5774 61.1183 23.105 59.6306 23.105C58.1722 23.1334 56.726 22.8374 55.3985 22.2389L54.2827 24.7973C55.8918 25.5859 57.676 25.9592 59.4697 25.8823C62.586 25.8823 65.079 24.3593 65.079 21.5421C65.0589 18.914 63.2595 17.9185 61.058 17.5403L61.0178 17.5303ZM114.114 11.7068C110.184 11.7068 108.666 14.1357 108.666 16.3955V20.905C108.666 24.0407 110.677 25.8823 114.114 25.8823C115.129 25.945 116.141 25.7198 117.031 25.2331C117.922 24.7465 118.653 24.0186 119.141 23.1348L116.658 21.6615C116.414 22.1159 116.047 22.4932 115.597 22.7503C115.147 23.0073 114.633 23.1337 114.114 23.1149C112.295 23.1149 111.601 22.1195 111.601 20.8552V20.1086H119.513V16.4054C119.553 13.9366 117.613 11.7167 114.155 11.7167L114.114 11.7068ZM116.607 17.7692H111.652V16.7738C111.685 16.1492 111.957 15.5607 112.413 15.128C112.869 14.6953 113.474 14.4509 114.106 14.4445C114.737 14.4382 115.348 14.6704 115.812 15.0939C116.277 15.5173 116.561 16.1002 116.607 16.724V17.7692ZM121.433 16.4054V25.6036H124.378V16.6443C124.378 15.8679 124.83 14.524 126.982 14.524C127.436 14.5458 127.889 14.5923 128.339 14.6633V11.8661C127.846 11.7667 127.344 11.7166 126.841 11.7167C123.101 11.7167 121.433 14.0262 121.433 16.4054Z" fill="#D31114"/>
</g>
<defs>
<clipPath id="clip0_144_1020">
<rect width="190" height="33" fill="white"/>
</clipPath>
</defs>
</svg>
