<svg width="190" height="33" viewBox="0 0 190 33" fill="none" xmlns="http://www.w3.org/2000/svg">
<g clip-path="url(#clip0_144_1028)">
<path d="M31.6175 4.87785C31.5453 4.49325 31.4404 4.11668 31.3039 3.75296C31.1814 3.37421 31.0107 3.01572 30.7966 2.6878C30.5911 2.33398 30.3565 2.00081 30.0957 1.69233C29.8212 1.39646 29.5109 1.14198 29.1733 0.935766C28.8706 0.74686 28.5563 0.580558 28.2325 0.438029C27.8941 0.295242 27.5456 0.182057 27.1903 0.0995671C26.8316 0.0265314 26.4669 -0.00682372 26.102 1.95652e-05H5.60779C5.243 -0.00143051 4.87881 0.0318813 4.51944 0.0995671C4.16584 0.180879 3.82001 0.29752 3.48643 0.447983C3.13669 0.590249 2.80262 0.773872 2.49032 0.995495C2.18109 1.2194 1.89094 1.47259 1.62333 1.75206C1.35263 2.02941 1.11695 2.34403 0.922357 2.6878C0.728423 3.0335 0.555878 3.39265 0.405852 3.76292C0.276487 4.12928 0.171686 4.50522 0.0922595 4.8878C0.0242045 5.2749 -0.00670312 5.66853 2.65285e-05 6.06246V26.9674C-0.00742034 27.3619 0.0266161 27.7559 0.101483 28.1421C0.170618 28.5275 0.275683 28.9044 0.415075 29.267C0.542712 29.6371 0.713155 29.9883 0.922357 30.3122C1.12968 30.6492 1.36425 30.9657 1.62333 31.2579C1.88465 31.545 2.17553 31.7988 2.49032 32.0145C2.81278 32.2166 3.14533 32.3994 3.48643 32.562C3.8244 32.7063 4.17305 32.8195 4.52867 32.9005C4.88732 32.9739 5.25203 33.0073 5.61702 33H26.102C26.4668 33.0019 26.831 32.9686 27.1903 32.9005C27.5467 32.8226 27.8956 32.7093 28.2325 32.562C28.5802 32.4217 28.9114 32.238 29.2194 32.0145C29.5473 31.7927 29.856 31.5394 30.1418 31.2579C30.4079 30.9724 30.643 30.6551 30.8427 30.3122C31.03 29.9676 31.1994 29.612 31.35 29.2471C31.4811 28.8813 31.5859 28.5053 31.6636 28.1222C31.7309 27.735 31.7618 27.3414 31.7559 26.9475V6.04255C31.746 5.65029 31.6997 5.2601 31.6175 4.87785Z" fill="#FFD142"/>
<path d="M18.8433 15.5195C17.3491 18.7448 15.2001 21.4923 13.8719 21.4326C13.4661 21.4326 12.5807 20.4371 12.5622 18.924C12.8389 15.9973 15.8734 11.4579 16.2516 9.49684C14.7666 10.2136 10.9666 14.1656 10.1918 18.1774C10.1457 18.4263 10.5516 18.7647 10.7545 18.8543C10.5516 19.1729 10.0166 18.9937 9.66612 18.7946C9.31178 18.5282 9.0277 18.1671 8.84175 17.7465C8.65579 17.3259 8.57436 16.8603 8.60544 16.3955C9.52777 12.7819 13.1249 8.43168 15.7627 8.31223C16.2073 8.42213 16.6128 8.66863 16.9303 9.02195C17.2479 9.37526 17.4638 9.82026 17.552 10.3032C17.552 11.9656 13.8627 18.7448 14.0749 19.6208C15.4491 19.0335 17.9948 15.7186 19.4336 12.4136C19.6859 11.383 19.9939 10.3692 20.3559 9.37738C20.4731 9.05043 20.6647 8.76055 20.9129 8.53441C21.1611 8.30826 21.458 8.15313 21.7763 8.08327C20.0701 6.6101 17.9477 5.81255 15.7627 5.82354C13.6362 5.84658 11.5731 6.60905 9.87988 7.99778C8.18661 9.38651 6.95333 11.3275 6.36307 13.5326C5.77282 15.7378 5.85704 18.0896 6.60326 20.2389C7.34947 22.3883 8.7179 24.2208 10.5054 25.4643C12.3962 23.5969 14.6131 22.1552 17.0263 21.2235C17.7918 19.3122 18.3637 17.3014 18.8433 15.5195ZM14.5268 27.0769C15.1793 25.9554 15.7557 24.7843 16.2516 23.5729C14.7398 24.3386 13.2924 25.2446 11.9258 26.2806C12.7563 26.6692 13.631 26.937 14.5268 27.0769ZM24.4142 11.3385C23.8795 10.305 23.1873 9.3761 22.3666 8.59096C21.7486 10.2335 20.6511 15.0018 19.9501 17.7593C19.6826 18.7548 19.369 19.8498 19.0278 20.8851C19.1778 20.8651 19.3296 20.8651 19.4797 20.8851C20.8632 21.0543 21.7948 22.6968 20.7986 25.4742L20.6787 25.7928C22.9425 24.4029 24.6054 22.1037 25.3051 19.3961C26.0048 16.6886 25.6846 13.7923 24.4142 11.3385ZM18.4467 22.657C17.9161 24.2133 17.2587 25.7157 16.4821 27.1466C17.1066 27.1069 17.7252 26.9934 18.3268 26.8082C19.0555 25.4279 19.6727 23.9824 20.1715 22.4878C19.5928 22.3771 18.9973 22.4355 18.4467 22.657Z" fill="white"/>
<path d="M166.942 18.9545V17.449C166.694 16.9052 166.325 16.4365 165.868 16.0851C165.41 15.7337 164.879 15.5107 164.322 15.4362C163.397 15.2469 162.489 14.9685 161.609 14.6044C161.444 14.5657 161.295 14.4692 161.185 14.33C161.056 14.158 160.99 13.9398 161.001 13.7182C161.013 13.4966 161.1 13.2877 161.247 13.1323C161.817 12.1258 163.628 12.3005 163.96 13.1323C164.031 13.3932 164.195 13.6134 164.415 13.7456C164.636 13.8778 164.896 13.9114 165.139 13.8392H166.588C166.647 13.1836 166.485 12.5268 166.131 11.9901C165.777 11.4535 165.255 11.0733 164.661 10.9198C163.35 10.7202 162.019 10.7202 160.708 10.9198C160.039 11.0184 159.427 11.3821 158.993 11.9401C158.558 12.4982 158.332 13.2107 158.357 13.939C158.357 15.3031 159.128 16.1515 160.708 16.6173C161.672 16.8115 162.621 17.0896 163.544 17.449C163.723 17.5412 163.883 17.6711 164.016 17.8311C164.148 17.991 164.25 18.1778 164.314 18.3806C164.264 18.6172 164.17 18.8403 164.038 19.0362C163.905 19.2322 163.737 19.3968 163.544 19.5201L163.305 19.6282C163.026 19.724 162.733 19.7588 162.442 19.7305C162.152 19.7022 161.869 19.6113 161.611 19.4633C161.353 19.3152 161.126 19.113 160.941 18.8685C160.757 18.624 160.62 18.3421 160.538 18.0395H158.188C158.193 18.5588 158.317 19.0685 158.549 19.5239C158.78 19.9793 159.111 20.3664 159.513 20.6512C159.536 20.6525 159.558 20.6591 159.578 20.6706C159.598 20.6821 159.615 20.6982 159.629 20.7178C160.214 21.1268 160.869 21.406 161.555 21.5392C162.241 21.6724 162.945 21.6569 163.626 21.4935C164.307 21.3302 164.95 21.0223 165.52 20.5878C166.089 20.1534 166.573 19.6009 166.942 18.9628V18.9545ZM124.349 10.7867C123.638 10.5966 122.89 10.6416 122.203 10.916C121.516 11.1904 120.921 11.6815 120.496 12.3255C120.229 11.7878 119.827 11.342 119.337 11.039C118.846 10.736 118.287 10.5881 117.722 10.6121C117.165 10.6334 116.618 10.7824 116.119 11.0492C115.619 11.3159 115.178 11.6942 114.824 12.1591V11.0196H112.412V21.3416H114.978V17.1163C114.917 16.247 114.917 15.3739 114.978 14.5046C115.007 14.2713 115.078 14.0462 115.187 13.8425C115.296 13.6387 115.442 13.4603 115.615 13.3173C115.788 13.1744 115.986 13.0697 116.197 13.0094C116.407 12.9491 116.627 12.9343 116.843 12.9659C117.753 13.0324 118.169 13.5648 118.169 14.8041V21.3748H120.889V14.5046C120.939 14.025 121.164 13.5865 121.514 13.2855C121.864 12.9845 122.31 12.8456 122.754 12.8994C123.656 12.9659 124.141 13.5648 124.141 14.8041V21.3416H126.7C126.7 18.5968 126.7 15.9436 126.7 13.2653C126.648 12.6097 126.377 11.9967 125.938 11.5406C125.498 11.0846 124.92 10.8167 124.311 10.7867H124.349ZM100.622 11.2525C100.113 11.1527 99.7816 11.3274 99.7816 11.8597C99.4502 13.6396 98.9647 15.3114 98.5409 17.0914V17.9231L97.0998 11.2691H94.5028L93.054 17.973C92.7943 17.7362 92.6243 17.4047 92.5762 17.0415C92.1523 15.3364 91.7285 13.5481 91.2507 11.9429C91.189 11.6102 90.7035 11.2359 90.7035 11.2359H88.4764C89.2471 14.0888 90.2797 17.607 90.7883 19.6199C91.2969 21.6327 91.3586 21.6327 93.2929 21.6327C93.3514 21.6452 93.4116 21.6452 93.4701 21.6327C93.6944 21.6395 93.9122 21.5509 94.0766 21.3859C94.2409 21.221 94.3386 20.993 94.3486 20.751C94.6415 19.0376 95.0576 17.2993 95.4506 15.5776C95.7589 16.8834 96.0209 17.8815 96.4524 19.7363C96.9379 21.8157 96.9379 21.8157 98.957 21.8157C99.4964 21.8157 99.9203 21.6576 99.9203 21.0505C100.768 18.0063 101.577 14.9205 102.486 11.9013C102.518 11.6668 102.518 11.4287 102.486 11.1943L100.622 11.2525ZM62.1362 7.02724C59.308 6.86089 59.308 6.86089 57.8592 9.64724L56.1407 12.7247L53.4281 7.73422C53.3309 7.43745 53.1399 7.18714 52.8887 7.02724H49.8062C51.3474 9.88013 52.7885 12.5251 54.1756 15.2116C54.4555 15.7448 54.6066 16.3455 54.6149 16.9583V21.6493H57.4431V17.0498C57.4829 16.449 57.649 15.8659 57.9286 15.3447C59.3157 12.5667 60.7645 9.88012 62.2981 7.09378L62.1362 7.02724ZM107.75 21.3416H110.463L110.524 7.09378H107.75V21.3416ZM70.5438 21.6743H73.0484V7.02724H70.5284L70.5438 21.6743ZM74.7052 21.6743H77.2098V7.02724H74.6898L74.7052 21.6743ZM146.644 10.7867H144.332V11.7931C144.078 11.5287 143.793 11.3021 143.484 11.1194C143.048 10.8664 142.569 10.7105 142.077 10.6612C141.584 10.6118 141.087 10.6699 140.615 10.8321C140.143 10.9943 139.707 11.2572 139.331 11.6052C138.956 11.9532 138.649 12.3792 138.429 12.8578C137.981 13.7849 137.747 14.8149 137.747 15.8604C137.747 16.9059 137.981 17.9359 138.429 18.863C138.691 19.4798 139.111 20.0031 139.639 20.3714C140.168 20.7397 140.782 20.9378 141.411 20.9423C142.028 21.0513 142.662 20.9808 143.245 20.7382C143.829 20.4955 144.342 20.0894 144.732 19.5616C144.732 20.1023 143.892 20.5681 143.892 20.5681C143.941 21.006 143.881 21.45 143.718 21.8547C143.556 22.2594 143.297 22.6104 142.968 22.872C142.731 23.0563 142.462 23.1875 142.178 23.2577C141.893 23.3279 141.598 23.3357 141.311 23.2806C141.023 23.2255 140.749 23.1087 140.504 22.9371C140.259 22.7655 140.049 22.5425 139.885 22.2815H137.573C137.576 22.9208 137.776 23.5409 138.142 24.0439C138.507 24.547 139.018 24.9043 139.592 25.0595C140.865 25.3204 142.173 25.3204 143.446 25.0595H143.507C144.451 24.9088 145.303 24.3644 145.88 23.5433C146.456 22.7221 146.711 21.6897 146.59 20.6679L146.644 10.7867ZM144.44 16.8834C144.389 17.4393 144.148 17.9545 143.763 18.3272C143.377 18.7 142.876 18.903 142.359 18.8962C141.865 18.87 141.398 18.6516 141.042 18.2815C140.686 17.9114 140.467 17.4147 140.425 16.8834C140.332 16.4314 140.332 15.9631 140.425 15.511C140.523 15.0043 140.665 14.5086 140.849 14.0305C141.005 13.6455 141.267 13.3213 141.599 13.1013C141.931 12.8813 142.317 12.776 142.706 12.7996C143.085 12.7888 143.458 12.911 143.768 13.1479C144.077 13.3848 144.308 13.7237 144.424 14.1137C144.539 15.0328 144.539 15.9644 144.424 16.8834H144.44ZM136.733 14.305C136.801 13.6719 136.646 13.0343 136.3 12.5183C135.953 12.0024 135.439 11.6457 134.861 11.5187C133.409 10.9534 131.82 10.9534 130.368 11.5187C129.73 11.6899 129.164 12.087 128.761 12.6464C128.357 13.2059 128.139 13.8953 128.141 14.6044H130.222C130.433 14.4976 130.618 14.3379 130.761 14.1387C131.029 13.6343 131.471 13.2642 131.99 13.1086C132.509 12.9529 133.064 13.0242 133.535 13.3069C133.706 13.4338 133.845 13.6042 133.941 13.8029C134.036 14.0016 134.085 14.2226 134.082 14.4464C134.046 14.6521 133.964 14.8451 133.843 15.0089C133.722 15.1726 133.566 15.3022 133.389 15.3863C132.998 15.4528 132.6 15.4528 132.21 15.3863C131.289 15.4823 130.379 15.683 129.497 15.9851C129.016 16.1996 128.614 16.5787 128.352 17.0641C128.09 17.5496 127.984 18.1144 128.048 18.6717C128.035 19.2846 128.216 19.8842 128.562 20.3701C128.909 20.856 129.399 21.1989 129.952 21.3416C130.707 21.6104 131.511 21.6752 132.294 21.5302C133.078 21.3852 133.816 21.0348 134.445 20.5098V21.3416H136.857C136.772 20.619 136.741 19.8903 136.764 19.1624L136.733 14.305ZM131.547 19.5949C131.26 19.6039 130.982 19.49 130.772 19.278C130.563 19.0661 130.44 18.7734 130.43 18.4637C130.394 18.1536 130.468 17.8406 130.637 17.5865C130.805 17.3324 131.056 17.1557 131.339 17.0914C132.226 16.8102 133.134 16.6072 134.052 16.4842C134.052 18.7964 133.296 19.9692 131.547 19.5949ZM65.5887 11.1943C65.4962 11.1943 65.3729 11.1943 65.2804 11.1277C64.6589 11.0281 64.0253 11.0628 63.4163 11.2298C62.8073 11.3969 62.2352 11.693 61.7332 12.1008C61.2312 12.5087 60.8094 13.0203 60.4923 13.6057C60.1752 14.1912 59.9691 14.8388 59.886 15.511L59.7935 15.8853C59.5382 17.283 59.7978 18.7331 60.5173 19.9275C61.2368 21.1218 62.3595 21.9663 63.6467 22.2815C63.7083 22.2815 63.7392 22.2815 63.77 22.2815C64.3268 22.4157 64.9028 22.4292 65.4645 22.3212C66.0263 22.2132 66.5625 21.9859 67.0422 21.6524C67.5218 21.3189 67.9353 20.8858 68.2586 20.3784C68.5819 19.871 68.8086 19.2994 68.9255 18.6966C67.9545 18.7632 66.9912 18.3889 66.0896 19.4618C65.7301 19.7875 65.2758 19.966 64.8065 19.966C64.3372 19.966 63.8829 19.7875 63.5234 19.4618C62.4137 19.0959 62.4137 18.156 62.4137 17.083H69.3494C69.5247 15.7707 69.2348 14.4354 68.5376 13.3437C67.8405 12.252 66.7874 11.4844 65.5887 11.1943ZM62.7836 15.17C62.9916 13.6313 63.6852 12.9576 64.8026 13.0241H64.8566C65.3316 13.0786 65.7672 13.3343 66.0677 13.7351C66.3682 14.1358 66.5091 14.6489 66.4595 15.1617L62.7836 15.17ZM83.344 10.7867H82.5734C81.33 10.9415 80.1936 11.6199 79.4113 12.6745C78.6291 13.729 78.2644 15.0743 78.3966 16.4176C78.3966 17.825 78.9146 19.1748 79.8366 20.1699C80.7587 21.1651 82.0092 21.7242 83.3132 21.7242C84.6172 21.7242 85.8677 21.1651 86.7898 20.1699C87.7118 19.1748 88.2298 17.825 88.2298 16.4176V15.6857C88.2194 15.0136 88.0833 14.3507 87.8296 13.7367C87.576 13.1228 87.2101 12.5705 86.7538 12.113C86.2975 11.6555 85.7602 11.3021 85.1743 11.0742C84.5884 10.8463 83.9658 10.7485 83.344 10.7867ZM85.5711 16.4176C85.5711 18.5968 85.2089 19.7446 83.8526 19.7446C82.4963 19.7446 81.5407 18.497 81.5407 16.4176C81.4483 15.8509 81.4483 15.271 81.5407 14.7042C81.6426 14.234 81.888 13.8144 82.2374 13.5127C82.5867 13.2111 83.0199 13.0448 83.4673 13.0408C83.943 12.9933 84.4182 13.1367 84.802 13.4436C85.1859 13.7505 85.4515 14.1993 85.548 14.7042C85.6097 15.2734 85.6097 15.8485 85.548 16.4176H85.5711ZM154.096 11.1361C153.842 11.0745 153.584 11.0301 153.325 11.003C152.689 10.9684 152.053 11.0704 151.454 11.3033C150.855 11.5361 150.304 11.8951 149.835 12.3594C149.365 12.8236 148.986 13.384 148.718 14.0078C148.451 14.6317 148.301 15.3066 148.277 15.9935C148.123 17.2947 148.429 18.6109 149.133 19.6804C149.836 20.7499 150.887 21.4943 152.077 21.7658C154.389 21.9903 157.055 20.934 157.055 18.3722C156.092 18.3722 155.121 18.0645 154.281 19.1375C153.9 19.4798 153.42 19.6673 152.924 19.6673C152.429 19.6673 151.949 19.4798 151.568 19.1375C151.199 18.9003 150.91 18.5404 150.746 18.1115C150.582 17.6826 150.552 17.208 150.659 16.7587H157.594C157.741 15.523 157.468 14.2717 156.824 13.2375C156.181 12.2033 155.211 11.4565 154.096 11.1361ZM150.936 14.8789C150.93 14.3369 151.122 13.8142 151.472 13.4247C151.821 13.0352 152.299 12.8105 152.801 12.7996C153.98 12.7996 154.82 13.3402 154.82 14.8789H150.936Z" fill="black"/>
</g>
<defs>
<clipPath id="clip0_144_1028">
<rect width="190" height="33" fill="white"/>
</clipPath>
</defs>
</svg>
